<!-- Generator: Adobe Illustrator 19.2.1, SVG Export Plug-In  -->
<svg version="1.1"
	 xmlns="http://www.w3.org/2000/svg" xmlns:xlink="http://www.w3.org/1999/xlink" xmlns:a="http://ns.adobe.com/AdobeSVGViewerExtensions/3.0/"
	 x="0px" y="0px" width="60.1px" height="70px" viewBox="0 0 60.1 70" style="enable-background:new 0 0 60.1 70;"
	 xml:space="preserve">
<path d="M30,70C17.6,70,7.5,59.9,7.5,47.4v-0.3H7c-3.8,0-7-3.1-7-7V37c0-3.8,3.1-7,7-7h0.5V19.8c0-3.9,1.8-7.7,4.9-10.1
	c-0.1-0.5-0.2-1.1-0.2-1.6c0-1.4,0.8-2.9,2-3.9c0,0,0,0,0,0L15,3.5c0,0,0.1,0,0.1-0.1c0.1-0.1,0.3-0.1,0.4-0.2
	c0.7-0.4,1.8-1.1,3.7-1.7c2.5-0.8,5.2-1.3,8.1-1.5c11.2-0.6,21.2,2.7,24.3,8c0,0,0,0,0,0c0.4,0.6,0.7,1.1,0.9,1.7
	c2.5,5.4,0.5,11.1,0,12.2v8h0.5c3.8,0,7,3.1,7,7v3.2c0,3.8-3.1,7-7,7h-0.5v0.3C52.6,59.9,42.5,70,30,70z M9.1,46.3v1.2
	C9.1,59,18.5,68.3,30,68.3S50.9,59,50.9,47.4v-7h-1.5c-0.2,0-0.4-0.1-0.6-0.2c-0.2-0.2-0.2-0.4-0.2-0.6c0-0.1,0.1-9.6-0.6-12.6
	c-0.7-2.7-2.6-3.7-2.7-3.8c-0.2-0.1-0.3-0.3-0.4-0.5c-0.1-0.2,0-0.5,0.1-0.6c0,0,1.1-1.9,1.2-3.8c0-0.3-1.2-1-2.8-1.5
	c-1.8-0.4-3.1-0.3-3.1-0.3c0,0,0,0,0,0H23c-2.5,0-4.6-0.4-6.4-1.3c-0.3-0.1-0.6-0.3-0.8-0.5c-0.8,0.9-1.9,2.4-1.9,3.6
	c0,1.8,1.2,3.7,1.2,3.8c0.1,0.2,0.2,0.4,0.1,0.7c-0.1,0.2-0.2,0.4-0.4,0.5c-0.1,0-2,1.1-2.7,3.8c-0.7,3-0.6,12.5-0.6,12.6
	c0,0.2-0.1,0.4-0.2,0.6c-0.2,0.2-0.4,0.2-0.6,0.2H9.1L9.1,46.3L9.1,46.3z M52.6,45.5h0.5c2.9,0,5.3-2.4,5.3-5.3V37
	c0-2.9-2.4-5.3-5.3-5.3h-0.5V45.5z M7,31.7C4,31.7,1.7,34,1.7,37v3.2c0,2.9,2.4,5.3,5.3,5.3h0.5V31.7H7z M50.3,38.8h0.6V22.1
	c-0.7-1.6-1.8-2.7-3.1-3.5c-0.1,1.5-0.7,2.8-1,3.6c0.8,0.7,2.2,2,2.8,4.4C50.2,29.2,50.3,36.3,50.3,38.8z M9.1,38.8h0.6
	c0-2.5,0-9.5,0.7-12.2c0.6-2.3,1.9-3.7,2.8-4.4c-0.4-0.9-1-2.4-1-3.9c0-1.8,1.4-3.6,2.2-4.6c-0.6-0.7-1.2-1.4-1.5-2.3
	c-2.4,2.1-3.8,5.2-3.8,8.4V38.8z M40.4,14.8c1.1,0,7.8,0.2,11.2,5.1c0.1-0.4,0.2-1,0.3-1.5c-1-0.9-4.5-4-9.7-5
	c-3.7-0.7-8-0.4-12.1-0.2c-3.1,0.2-6.3,0.4-9.2,0.2c-2.8-0.2-4.7-0.9-6-1.7c0.6,0.9,1.4,1.7,2.4,2.1c1.5,0.7,3.4,1.1,5.6,1.1h17.2
	C40.2,14.8,40.3,14.8,40.4,14.8z M36.6,11.1c2,0,4,0.1,5.9,0.5c4.6,0.9,7.9,3.2,9.6,4.6c0-0.7,0-1.5-0.1-2.3
	c-2.3-2.3-6.4-3.9-11.9-4.7c-2.9-0.4-6.2,0.1-9.7,0.5c-3.5,0.5-7.2,1-10.4,0.5c-3.6-0.5-5.3-1.8-6.1-3c-0.1,0.2-0.1,0.4-0.1,0.6
	c0,0.1,0,0.2,0,0.2c0.3,0.5,1.8,2.9,7.1,3.4c2.7,0.2,5.7,0,8.9-0.2C32.1,11.3,34.4,11.1,36.6,11.1z M37.7,7.5c0.9,0,1.8,0,2.6,0.2
	c4.6,0.6,8.4,1.9,11,3.7c-0.1-0.3-0.2-0.5-0.3-0.8C50.8,10,50.6,9.6,50.2,9c0,0,0,0,0,0c-2.7-4.8-12.3-7.8-22.8-7.2
	c-2.8,0.2-5.3,0.6-7.7,1.4c0,0,0,0,0,0l0,0C18,3.6,17,4.2,16.4,4.6c-0.2,0.1-0.3,0.2-0.4,0.3l-0.7,0.5C15.1,5.5,15,5.5,15,5.6
	c0.1,0.7,0.8,2.5,5.2,3.1c3.1,0.4,6.6-0.1,10-0.5C32.7,7.8,35.3,7.5,37.7,7.5z M30,62.8c-3.8,0-7.5-1.8-10.3-4.5
	c-0.1-0.1-0.2-0.2-0.3-0.3c-2.9-3-4.8-7.2-4.9-11.6c0-0.3,0.2-0.6,0.5-0.8c0.3-0.1,0.6-0.1,0.9,0.1c3.2,2.7,7.9,4,14.1,4
	s10.9-1.4,14.1-4c0.3-0.2,0.6-0.3,0.9-0.1c0.3,0.1,0.5,0.4,0.5,0.8c-0.1,4.4-2,8.6-4.9,11.6c-0.1,0.1-0.2,0.2-0.3,0.3
	C37.5,61,33.8,62.8,30,62.8z M23.6,59.2c1.9,1.2,4.1,1.9,6.4,1.9s4.5-0.7,6.4-1.9c-1.7,0.3-3.9,0.5-6.4,0.5S25.3,59.5,23.6,59.2z
	 M20.6,56.8c0.8,0.3,4.3,1.3,9.4,1.3c5,0,8.6-1,9.4-1.3c1.3-1.4,2.4-3,3.1-4.8c-2.2,1-6.2,2.3-12.5,2.3c-6.3,0-10.4-1.3-12.5-2.4
	C18.3,53.8,19.3,55.5,20.6,56.8z M16.7,49.7c0.9,0.6,5,3,13.3,3c8.3,0,12.4-2.4,13.3-3c0.1-0.5,0.2-1,0.3-1.6
	c-3.4,2.2-8,3.3-13.6,3.3s-10.2-1.1-13.6-3.3C16.5,48.7,16.6,49.2,16.7,49.7z M12.6,46.8c-0.1,0-0.2,0-0.3-0.1
	c-0.4-0.2-0.6-0.7-0.5-1.1l0-0.1c0.8-1.9,2.5-3.1,4.3-2.8c0.5,0.1,0.8,0.5,0.7,0.9c-0.1,0.5-0.5,0.8-0.9,0.7c-1-0.1-2,0.6-2.5,1.8
	l0,0.1C13.2,46.6,12.9,46.8,12.6,46.8z M47.7,46.8c-0.3,0-0.6-0.2-0.8-0.5l0-0.1c-0.5-1.2-1.5-1.9-2.5-1.8c-0.5,0.1-0.9-0.2-0.9-0.7
	c-0.1-0.5,0.2-0.9,0.7-0.9c1.8-0.3,3.5,0.9,4.3,2.8l0,0.1c0.2,0.4,0,0.9-0.5,1.1C48,46.8,47.8,46.8,47.7,46.8z M41.8,38.4
	c-0.1,0-0.2,0-0.3-0.1l-7.4-3.2c-0.3-0.1-0.5-0.4-0.5-0.8s0.2-0.6,0.5-0.8l7.4-3.2c0.4-0.2,0.9,0,1.1,0.4c0.2,0.4,0,0.9-0.4,1.1
	l-5.6,2.5l5.6,2.5c0.4,0.2,0.6,0.7,0.4,1.1C42.4,38.2,42.1,38.4,41.8,38.4z M18.3,38.4c-0.3,0-0.6-0.2-0.8-0.5
	c-0.2-0.4,0-0.9,0.4-1.1l5.6-2.5l-5.6-2.5c-0.4-0.2-0.6-0.7-0.4-1.1c0.2-0.4,0.7-0.6,1.1-0.4l7.4,3.2c0.3,0.1,0.5,0.4,0.5,0.8
	s-0.2,0.6-0.5,0.8l-7.4,3.2C18.5,38.4,18.4,38.4,18.3,38.4z"/>
</svg>
