<!-- Generator: Adobe Illustrator 19.2.1, SVG Export Plug-In  -->
<svg version="1.1"
	 xmlns="http://www.w3.org/2000/svg" xmlns:xlink="http://www.w3.org/1999/xlink" xmlns:a="http://ns.adobe.com/AdobeSVGViewerExtensions/3.0/"
	 x="0px" y="0px" width="59px" height="70px" viewBox="0 0 59 70" style="enable-background:new 0 0 59 70;" xml:space="preserve">
	<path d="M50.4,19.6c-1.6-1.6-3.4-3-5.2-4.2l1.7-2.9l2.9,1.7c0.2,0.1,0.3,0.1,0.5,0.1c0.4,0,0.7-0.2,0.9-0.5
		c0.3-0.5,0.1-1.1-0.4-1.4l-7.6-4.4C42.7,7.8,42,8,41.8,8.5c-0.3,0.5-0.1,1.1,0.4,1.4l2.9,1.7l-1.7,2.9c-2.9-1.6-6.1-2.6-9.5-3.1
		c1.3-1.2,2.1-2.9,2.1-4.8C36,2.9,33.1,0,29.5,0S23,2.9,23,6.5c0,1.9,0.8,3.6,2.1,4.8c-3.3,0.5-6.5,1.6-9.5,3.1L14,11.5l2.9-1.7
		c0.5-0.3,0.7-0.9,0.4-1.4s-0.9-0.7-1.4-0.4l-7.6,4.4c-0.5,0.3-0.7,0.9-0.4,1.4c0.2,0.3,0.5,0.5,0.9,0.5c0.2,0,0.4,0,0.5-0.1
		l2.9-1.7l1.7,2.9c-1.9,1.2-3.6,2.6-5.2,4.2C3.1,25.2,0,32.6,0,40.5s3.1,15.3,8.6,20.9s13,8.6,20.9,8.6s15.3-3.1,20.9-8.6
		s8.6-13,8.6-20.9S56,25.2,50.4,19.6z M25.1,6.5c0-2.5,2-4.5,4.5-4.5s4.5,2,4.5,4.5S32,11,29.5,11S25.1,9,25.1,6.5z M29.5,67.9
		c-15.1,0-27.5-12.3-27.5-27.5S14.4,13,29.5,13S57,25.3,57,40.5S44.7,67.9,29.5,67.9z"/>
	<path d="M30.5,36.3V20.8c0-0.6-0.5-1-1-1s-1,0.5-1,1v15.5c-1.9,0.5-3.3,2.2-3.3,4.2c0,2,1.4,3.7,3.3,4.2v5.7c0,0.6,0.5,1,1,1
		s1-0.5,1-1v-5.7c1.9-0.5,3.3-2.2,3.3-4.2c0-1.1-0.4-2.1-1.1-2.9C32.2,36.9,31.4,36.5,30.5,36.3z M29.5,42.7c-1.2,0-2.3-1-2.3-2.3
		c0-1.2,1-2.3,2.3-2.3c0.6,0,1.3,0.3,1.7,0.8c0.4,0.4,0.6,0.9,0.6,1.5C31.8,41.7,30.8,42.7,29.5,42.7z"/>
	<path d="M29.5,15.3c-13.9,0-25.1,11.3-25.1,25.1s11.3,25.1,25.1,25.1s25.1-11.3,25.1-25.1S43.4,15.3,29.5,15.3z M29.5,63.6
		c-12.7,0-23.1-10.4-23.1-23.1s10.4-23.1,23.1-23.1s23.1,10.4,23.1,23.1S42.2,63.6,29.5,63.6z"/>
</svg>
