<!-- Generator: Adobe Illustrator 19.2.1, SVG Export Plug-In  -->
<svg version="1.1"
	 xmlns="http://www.w3.org/2000/svg" xmlns:xlink="http://www.w3.org/1999/xlink" xmlns:a="http://ns.adobe.com/AdobeSVGViewerExtensions/3.0/"
	 x="0px" y="0px" width="57.2px" height="70px" viewBox="0 0 57.2 70" style="enable-background:new 0 0 57.2 70;"
	 xml:space="preserve">
<path d="M29.8,0.4C30,0.6,30.1,1,29.9,1.3c0,0.3,0,2.3,3,7.6c1.5,2.7,2.8,4.2,4.1,5.6c1.7,2,3.6,4,5.8,9.3c0.2,0.4,0,0.9-0.4,1.2
	c-1.7,1-3.6,2.1-5.6,3.3c0.2,0.3,0.4,0.7,0.6,1.1c0.4,0.8,0.7,1.6,1,2.2c0.3-0.1,0.4-0.2,0.6-0.2c0.9-0.3,1.7-0.1,2.4,0.5
	c0.7,0.7,1.1,1.9,0.8,3c-0.3,0.9-1,1.6-1.9,1.8c-1.9,0.4-2.3-0.8-2.8-2.3c0,0,0-0.1,0-0.1c-1.6,0.8-3.8,2-6.3,3.3
	c0.4,1.1,0.7,2.2,0.6,3.3c-0.1,2.4-1.7,4.2-4.1,4.7c-2.1,0.4-4.6-0.3-6.5-2.6c-1.6,0.9-3.2,1.7-4.6,2.5c2.3,4.4,3.7,5.8,5.2,7.3
	c1.2,1.2,2.4,2.4,4,5c2.8,4.4,4,8.1,4.5,9.9c3.1-1.5,12.2-5.9,16.6-8.4c4.3-2.4,7.4-4.5,8.5-5.3c0-1.5-0.5-6.8-4.1-12.9
	c-1.5-2.5-3.1-5.1-4.3-7.2c0.4,9.2-5.5,15.5-12.2,17.8c-8.9,3-14.5-2.6-14.7-2.9c-0.4-0.4-0.3-1,0-1.3c0.4-0.4,1-0.3,1.3,0l0,0
	c0.2,0.2,5,5.1,12.7,2.4c5.4-1.8,13.6-8.3,10.1-20.6c-0.1-0.5,0.1-0.9,0.5-1.1c0.4-0.2,0.9,0,1.2,0.4c0,0.1,3.5,5.9,6.8,11.5
	c4.6,7.7,4.4,14.1,4.4,14.4c0,0.3-0.2,0.5-0.4,0.7c-0.1,0.1-3.6,2.6-9.1,5.7c-5.4,3-17.6,8.9-17.7,8.9c-0.3,0.1-0.6,0.1-0.8,0
	c-0.3-0.1-0.4-0.4-0.5-0.7c0,0-0.9-4.6-4.5-10.4c-1.5-2.4-2.6-3.6-3.8-4.7c-1.6-1.6-3.3-3.3-6-8.6c-0.2-0.5-0.1-1,0.4-1.3
	c0.6-0.4,2.7-1.5,5.3-2.9c-0.1-0.2-0.2-0.5-0.4-0.8c-0.3-0.7-0.6-1.4-0.9-2.1c-0.7,0.3-1.2,0.5-1.4,0.5c-0.9,0-1.7-0.5-2-1.4
	c-0.4-1.1-0.2-2.7,0.9-3.5c0.2-0.2,0.8-0.6,1.6-0.4c0.7,0.2,1.1,0.7,1.9,2.3c1.7-0.9,4-2.2,6.6-3.7c-1-2.4-1.4-4.9,1-6.9
	c1.3-1.1,2.7-1.5,4.2-1.2c1.4,0.3,2.8,1.2,4,2.7c1.7-1,3.4-2,5-3c-2-4.5-3.6-6.2-5.2-8.1c-1.3-1.5-2.7-3-4.3-5.9
	c-2.1-3.7-2.8-6-3.1-7.3C25.4,3.9,18.9,7.2,15,9.3c-5,2.6-11.6,6.9-13.1,7.9c-0.1,1.1-0.1,4.6,3.5,9.1c1.9,2.3,3.6,5.2,5,7.6
	c-0.6-7.1,2.5-10.5,8.5-14.5c10.7-7,19.4,1.5,19.5,1.6c0.4,0.4,0.4,1,0,1.3c-0.4,0.4-1,0.4-1.3,0c-0.3-0.3-7.8-7.5-17.1-1.4
	c-7.2,4.7-9.3,8.1-6.7,18.2c0.1,0.5-0.1,0.9-0.6,1.1c-0.5,0.2-1,0-1.2-0.5c0-0.1-3.7-7.4-7.6-12.4C-1,21.3,0.1,16.6,0.1,16.4
	c0.1-0.2,0.2-0.4,0.4-0.6c0.1-0.1,7.9-5.2,13.6-8.2C19.2,5,28.6,0.1,28.6,0.1c0.4-0.2,0.9-0.2,1.2,0.1C29.8,0.3,29.8,0.3,29.8,0.4z
	 M39.6,34.7c0,0,0.1,0,0.2,0c0.3-0.1,0.4-0.2,0.5-0.4c0.1-0.4,0-0.8-0.2-1.1c-0.1-0.1-0.2-0.1-0.5-0.1c-0.1,0-0.3,0.1-0.5,0.2
	c0,0.1,0.1,0.2,0.1,0.3C39.3,34.1,39.5,34.6,39.6,34.7z M28.1,31.3c2-1.1,4-2.3,6-3.5c-0.9-1-1.8-1.6-2.8-1.8
	c-0.9-0.2-1.8,0.1-2.7,0.8C27.3,28,27.3,29.4,28.1,31.3z M36.7,32.4c-0.3-0.6-0.6-1.4-1-2.2c-0.2-0.3-0.3-0.7-0.5-1
	c-2.1,1.3-4.3,2.5-6.3,3.7c0.2,0.3,0.4,0.7,0.6,1c0.3,0.6,0.6,1.2,0.9,1.8C32.8,34.5,35.1,33.3,36.7,32.4z M28.7,36.7
	c-0.3-0.6-0.6-1.2-0.9-1.8c-0.2-0.3-0.4-0.7-0.5-1c-2.6,1.5-4.9,2.8-6.7,3.7c0.3,0.6,0.6,1.4,0.9,2.2c0.1,0.2,0.2,0.4,0.3,0.6
	C23.9,39.3,26.4,38,28.7,36.7z M22.8,42c1.3,1.4,3,1.9,4.4,1.6c1.2-0.2,2.6-1.1,2.6-2.9c0-0.8-0.2-1.5-0.4-2.3
	C27.3,39.6,25.1,40.8,22.8,42z M18.1,36.8c-0.3-0.6-0.5-1-0.7-1.2c-0.3,0.3-0.4,0.9-0.3,1.4c0.1,0.2,0.1,0.2,0.2,0.2
	C17.5,37.1,17.8,37,18.1,36.8z"/>
</svg>
