<!-- Generator: Adobe Illustrator 19.2.1, SVG Export Plug-In  -->
<svg version="1.1"
	 xmlns="http://www.w3.org/2000/svg" xmlns:xlink="http://www.w3.org/1999/xlink" xmlns:a="http://ns.adobe.com/AdobeSVGViewerExtensions/3.0/"
	 x="0px" y="0px" width="25.4px" height="26px" viewBox="0 0 25.4 26" style="enable-background:new 0 0 25.4 26;"
	 xml:space="preserve">
<path fill="#F07C51" d="M9.2,14.3c0-0.3-0.3-0.6-0.6-0.6H6.5c-0.3,0-0.6,0.3-0.6,0.6v2.1c0,0.3,0.3,0.6,0.6,0.6h2.1
			c0.3,0,0.6-0.3,0.6-0.6L9.2,14.3L9.2,14.3z"/>
<path fill="#F07C51" d="M14.3,14.3c0-0.3-0.3-0.6-0.6-0.6h-2.1c-0.3,0-0.6,0.3-0.6,0.6v2.1c0,0.3,0.3,0.6,0.6,0.6h2.1
	c0.3,0,0.6-0.3,0.6-0.6V14.3z"/>
<path fill="#F07C51" d="M19.5,14.3c0-0.3-0.3-0.6-0.6-0.6h-2.1c-0.3,0-0.6,0.3-0.6,0.6v2.1c0,0.3,0.3,0.6,0.6,0.6h2.1
	c0.3,0,0.6-0.3,0.6-0.6V14.3z"/>
<path fill="#F07C51" d="M9.2,19.5c0-0.3-0.3-0.6-0.6-0.6H6.5c-0.3,0-0.6,0.3-0.6,0.6v2.1c0,0.3,0.3,0.6,0.6,0.6h2.1
	c0.3,0,0.6-0.3,0.6-0.6L9.2,19.5L9.2,19.5z"/>
<path fill="#F07C51" d="M14.3,19.5c0-0.3-0.3-0.6-0.6-0.6h-2.1c-0.3,0-0.6,0.3-0.6,0.6v2.1c0,0.3,0.3,0.6,0.6,0.6h2.1
	c0.3,0,0.6-0.3,0.6-0.6V19.5z"/>
<path fill="#F07C51" d="M19.5,19.5c0-0.3-0.3-0.6-0.6-0.6h-2.1c-0.3,0-0.6,0.3-0.6,0.6v2.1c0,0.3,0.3,0.6,0.6,0.6h2.1
	c0.3,0,0.6-0.3,0.6-0.6L19.5,19.5L19.5,19.5z"/>
<path fill="#F07C51" d="M23.2,2.9V6c0,1.4-1.2,2.6-2.6,2.6H19c-1.4,0-2.6-1.1-2.6-2.6V2.9H9.1V6c0,1.4-1.2,2.6-2.6,2.6H4.8
	C3.4,8.6,2.3,7.5,2.3,6V2.9C1,2.9,0,4,0,5.2v18.4C0,24.9,1,26,2.3,26h20.8c1.3,0,2.3-1.1,2.3-2.3V5.2C25.4,4,24.4,2.9,23.2,2.9z
	 M22.4,22.5c0,0.6-0.5,1-1,1H4c-0.6,0-1-0.5-1-1V13c0-0.6,0.5-1,1-1h17.4c0.6,0,1,0.5,1,1L22.4,22.5L22.4,22.5z"/>
<path fill="#F07C51" d="M4.8,6.9h1.6c0.5,0,0.9-0.4,0.9-0.9V0.9C7.3,0.4,6.9,0,6.4,0H4.8C4.3,0,3.9,0.4,3.9,0.9V6
	C3.9,6.5,4.3,6.9,4.8,6.9z"/>
<path fill="#F07C51" d="M18.9,6.9h1.6c0.5,0,0.9-0.4,0.9-0.9V0.9C21.4,0.4,21,0,20.5,0h-1.6c-0.5,0-0.9,0.4-0.9,0.9V6
	C18.1,6.5,18.5,6.9,18.9,6.9z"/>
</svg>
