<!-- Generator: Adobe Illustrator 19.2.1, SVG Export Plug-In  -->
<svg version="1.1"
	 xmlns="http://www.w3.org/2000/svg" xmlns:xlink="http://www.w3.org/1999/xlink" xmlns:a="http://ns.adobe.com/AdobeSVGViewerExtensions/3.0/"
	 x="0px" y="0px" width="26px" height="26px" viewBox="0 0 26 26" style="enable-background:new 0 0 26 26;" xml:space="preserve">
<path fill="#F07C51" d="M13,0C5.8,0,0,5.8,0,13s5.8,13,13,13s13-5.8,13-13S20.2,0,13,0z M13,23.2C7.4,23.2,2.8,18.6,2.8,13
			S7.4,2.8,13,2.8S23.2,7.4,23.2,13S18.6,23.2,13,23.2z"/>
<path fill="#F07C51" d="M19.8,12.6h-5.8v-7c0-0.6-0.5-1.1-1.1-1.1c-0.6,0-1.1,0.5-1.1,1.1v8.1c0,0.6,0.5,1.1,1.1,1.1h6.9
	c0.6,0,1.1-0.5,1.1-1.1C20.8,13.1,20.4,12.6,19.8,12.6z"/>
</svg>
