<!-- Generator: Adobe Illustrator 19.2.1, SVG Export Plug-In  -->
<svg version="1.1"
	 xmlns="http://www.w3.org/2000/svg" xmlns:xlink="http://www.w3.org/1999/xlink" xmlns:a="http://ns.adobe.com/AdobeSVGViewerExtensions/3.0/"
	 x="0px" y="0px" width="25.4px" height="26px" viewBox="0 0 25.4 26" style="enable-background:new 0 0 25.4 26;"
	 xml:space="preserve">
<ellipse fill="#F07C51" cx="12.2" cy="3.8" rx="3.7" ry="3.8"/>
		<path fill="#F07C51" d="M4.2,11.9L0.6,15c-0.7,0.6-0.8,1.7-0.2,2.4c0.3,0.4,0.8,0.6,1.3,0.6c0.4,0,0.8-0.1,1.1-0.4l5.7-4.8
			C7.3,11.3,5.9,10.6,4.2,11.9z"/>
		<path fill="#F07C51" d="M3.2,18.2L3.2,18.2L3.2,18.2v1.5c-1.3,0.4-2.2,1.6-2.2,3C1,24.6,2.5,26,4.3,26s3.2-1.4,3.2-3.2
			c0-1.5-1-2.7-2.4-3.1v-0.8l1.9-1.6c1.9,0.8,3,1.9,6.7,1.6c0.7-0.1,1.3-0.3,1.8-0.6l2.2,2.5C17.3,21.2,17,22,17,22.8
			c0,1.8,1.4,3.2,3.2,3.2c1.8,0,3.2-1.4,3.2-3.2c0-1.8-1.4-3.2-3.2-3.2c-0.2,0-0.5,0-0.7,0.1l-2.6-2.9c1.5-2.5,1.8-6.5,1.3-9
			c0-0.1,0.1-0.2,0.1-0.2c0.7-0.7,1.4-1.5,2.1-2.3c0.5-0.5,0.9-0.8,1.5-1.1c0.6-0.3,1.1-0.1,1.6,0.3c0.1,0,0.1,0.1,0.1,0.1
			c0,0,0,0,0,0c0.8,0.9,0.2,1.9-0.5,2.6c-0.7,0.6,0.3,1.6,1,1c1.2-1.1,1.7-2.6,0.9-4c0-0.1-0.3-0.4-0.7-0.8
			c-0.5-0.4-1.1-0.7-1.9-0.7c-0.7,0-1.5,0.4-2.1,0.9c-1.3,1-2.3,2.4-3.4,3.5c0,0,0,0,0,0c0,0-0.1,0.1-0.1,0.1c0,0-6.8,5.6-10.8,8.9
			L3.2,18.2z"/>
</svg>
