<!-- Generator: Adobe Illustrator 19.2.1, SVG Export Plug-In  -->
<svg version="1.1"
	 xmlns="http://www.w3.org/2000/svg" xmlns:xlink="http://www.w3.org/1999/xlink" xmlns:a="http://ns.adobe.com/AdobeSVGViewerExtensions/3.0/"
	 x="0px" y="0px" width="45px" height="41.1px" viewBox="0 0 45 41.1" style="enable-background:new 0 0 45 41.1;"
	 xml:space="preserve">
	<path fill="#FFFFFF" d="M44.8,4.5c-0.2-0.2-0.5-0.5-0.8-0.5H4.8L4.2,0.7c0-0.2-0.5-0.6-0.8-0.7C3.3,0,3.2,0,3,0H1C0.5,0,0,0.5,0,1
		s0.5,1,1,1h1.4L3,5.3c0,0,0,0,0,0.1l0.2,0.8l0.1,1c0,0,0,0.1,0.1,0.1l3.6,16.4c0.1,0.5,0.6,0.8,1,0.8h28.8c0.5,0,0.8-0.2,0.9-0.7
		l7.1-18.5C45,5.2,45,4.8,44.8,4.5L44.8,4.5z M36.1,22.5H8.9L5.3,6.2h37.3L36.1,22.5z"/>
	<path fill="#FFFFFF" d="M33,31.9c-2.6,0-4.6,2-4.6,4.6c0,2.6,2,4.6,4.6,4.6s4.6-2,4.6-4.6C37.7,33.9,35.6,31.9,33,31.9z M33,39.1
		c-1.5,0-2.6-1.1-2.6-2.6c0-1.5,1.1-2.6,2.6-2.6c1.5,0,2.6,1.1,2.6,2.6C35.7,37.9,34.5,39.1,33,39.1z"/>
	<path fill="#FFFFFF" d="M15.4,31.9c-2.6,0-4.6,2-4.6,4.6c0,2.6,2,4.6,4.6,4.6s4.6-2,4.6-4.6C20.2,33.9,18,31.9,15.4,31.9z
		 M15.4,39.1c-1.5,0-2.6-1.1-2.6-2.6c0-1.5,1.1-2.6,2.6-2.6c1.5,0,2.6,1.1,2.6,2.6C18.1,37.9,16.9,39.1,15.4,39.1z"/>
	<path fill="#FFFFFF" d="M37,28.7H6.8c-2.7,0-4.2,2-4.2,4.4s1.5,4.6,4.2,4.6c0.6,0,1-0.6,1-1.1c0-0.6-0.5-1-1-1
		c-1.7,0-2.1-1.4-2.1-2.4c0-1,0.5-2.4,2.1-2.4H37c0.6,0,1-0.5,1-1C38.1,29.2,37.6,28.7,37,28.7L37,28.7z"/>
</svg>
