<!-- Generator: Adobe Illustrator 19.2.1, SVG Export Plug-In  -->
<svg version="1.1"
	 xmlns="http://www.w3.org/2000/svg" xmlns:xlink="http://www.w3.org/1999/xlink" xmlns:a="http://ns.adobe.com/AdobeSVGViewerExtensions/3.0/"
	 x="0px" y="0px" width="26px" height="26px" viewBox="0 0 26 26" style="enable-background:new 0 0 26 26;" xml:space="preserve">
<path fill="#F07C51" d="M21.1,17.9h-1.6c-1.8,0-3.3-1.5-3.3-3.3v-1c0.7-0.9,1.2-1.9,1.6-2.9c0-0.2,0.2-0.3,0.3-0.4
		c0.6-0.6,0.7-1.7,0.3-2.4c-0.1-0.1-0.2-0.2-0.2-0.4c0-1,0-1.9,0-2.9c0-1.1-0.4-2.3-1.2-3.2c-0.7-0.7-1.5-1.1-2.5-1.3
		c-1.2-0.2-2.4-0.2-3.5,0.1c-1,0.3-1.9,0.8-2.5,1.7C8,2.7,7.8,3.6,7.8,4.5c0,1,0,1.9,0,2.9c0,0.2-0.1,0.3-0.2,0.5
		C7.1,8.7,7.3,9.8,8,10.4c0.2,0.1,0.2,0.3,0.3,0.5c0.3,1,0.8,1.8,1.5,2.6v1.1c0,1.8-1.5,3.3-3.3,3.3H4.9c0,0-2.9,0.8-4.9,4.9v1.6
		C0,25.3,0.7,26,1.6,26h22.8c0.9,0,1.6-0.7,1.6-1.6v-1.6C24.1,18.7,21.1,17.9,21.1,17.9z"/>
</svg>
