<!-- Generator: Adobe Illustrator 19.2.1, SVG Export Plug-In  -->
<svg version="1.1"
	 xmlns="http://www.w3.org/2000/svg" xmlns:xlink="http://www.w3.org/1999/xlink" xmlns:a="http://ns.adobe.com/AdobeSVGViewerExtensions/3.0/"
	 x="0px" y="0px" width="20px" height="20px" viewBox="0 0 20 20" style="enable-background:new 0 0 20 20;" xml:space="preserve">
<path fill="#F07C51" d="M17.1,2.9C15.2,1,12.7,0,10,0S4.8,1,2.9,2.9S0,7.3,0,10s1,5.2,2.9,7.1S7.3,20,10,20s5.2-1,7.1-2.9
			S20,12.7,20,10S19,4.8,17.1,2.9z M16.3,16.3c-1.7,1.7-3.9,2.6-6.3,2.6s-4.6-0.9-6.3-2.6c-3.5-3.5-3.5-9.1,0-12.5
			C5.4,2.1,7.6,1.1,10,1.1s4.6,0.9,6.3,2.6C19.7,7.2,19.7,12.8,16.3,16.3z"/>
<path fill="#F07C51" d="M14.4,5.6c-0.2-0.2-0.6-0.2-0.8,0L10,9.2L6.4,5.6c-0.2-0.2-0.6-0.2-0.8,0s-0.2,0.6,0,0.8L9.2,10l-3.6,3.6
	c-0.2,0.2-0.2,0.6,0,0.8c0.1,0.1,0.3,0.2,0.4,0.2s0.3-0.1,0.4-0.2l3.6-3.6l3.6,3.6c0.1,0.1,0.3,0.2,0.4,0.2c0.1,0,0.3-0.1,0.4-0.2
	c0.2-0.2,0.2-0.6,0-0.8L10.8,10l3.6-3.6C14.6,6.2,14.6,5.8,14.4,5.6z"/>
</svg>
