<?xml version="1.0" encoding="utf-8"?>
<!-- Generator: Adobe Illustrator 19.2.1, SVG Export Plug-In . SVG Version: 6.00 Build 0)  -->
<svg version="1.1" id="Layer_1" xmlns="http://www.w3.org/2000/svg" xmlns:xlink="http://www.w3.org/1999/xlink" x="0px" y="0px"
	 viewBox="0 0 48 48" style="enable-background:new 0 0 48 48;" xml:space="preserve">
<circle fill="#F07C51" cx="24" cy="24" r="24"/>
<g>
	<path fill="#FFFFFF" d="M16.8,29.8c-0.2,0-0.3,0.1-0.3,0.3c0,0.2,0.1,0.3,0.3,0.3c0.2,0,0.3-0.1,0.3-0.3C17.1,30,16.9,29.8,16.8,29.8z
		 M16.8,30.2C16.7,30.2,16.7,30.2,16.8,30.2c-0.1-0.1,0-0.2,0-0.2S16.8,30.1,16.8,30.2C16.8,30.2,16.8,30.2,16.8,30.2z"/>
	<path fill="#FFFFFF" d="M31.2,29.9c-0.2,0-0.3,0.1-0.3,0.3c0,0.2,0.1,0.3,0.3,0.3s0.3-0.1,0.3-0.3C31.5,30,31.4,29.9,31.2,29.9z
		 M31.2,30.2C31.2,30.2,31.2,30.2,31.2,30.2c-0.1-0.1,0-0.2,0-0.2S31.3,30.1,31.2,30.2C31.3,30.2,31.3,30.2,31.2,30.2z"/>
	<path fill="#FFFFFF" d="M37.3,27.7v-4.8v-5.2c0-1.6-1.3-2.9-2.9-2.9H15.3c-2.5,0-4.6,2-4.6,4.6v8.4c-0.4,0.3-0.6,0.8-0.6,1.3v0.1
		c0,0.9,0.7,1.6,1.6,1.6h2.1c0.2,1.4,1.5,2.5,3,2.5c1.5,0,2.8-1.1,3-2.5h8.5c0.2,1.4,1.5,2.5,3,2.5c1.5,0,2.8-1.1,3-2.5h2.1
		c0.9,0,1.6-0.7,1.6-1.6V29C37.9,28.5,37.7,28,37.3,27.7z M36.3,22.4h-1.4c-0.1,0-0.1-0.1-0.1-0.1v-3.9c0-0.1,0.1-0.1,0.1-0.1h1.4
		V22.4z M11.1,29.1L11.1,29.1c0-0.4,0.3-0.7,0.6-0.7h2.6c-0.3,0.4-0.4,0.8-0.5,1.3h-2.1C11.3,29.7,11.1,29.4,11.1,29.1z M16.8,32.2
		c-1.1,0-2-0.9-2-2c0-1.1,0.9-2,2-2s2,0.9,2,2C18.8,31.3,17.9,32.2,16.8,32.2z M28.2,29.7h-8.5c-0.2-1.4-1.5-2.5-3-2.5
		c-0.5,0-0.9,0.1-1.3,0.3h-3.8v-8c0-2,1.6-3.5,3.5-3.5h19.1c0.9,0,1.6,0.6,1.9,1.4h-1.3c-0.6,0-1.1,0.5-1.1,1.1v3.9
		c0,0.6,0.5,1.1,1.1,1.1h1.4v3.9h-3.8c-0.4-0.2-0.8-0.3-1.3-0.3C29.7,27.1,28.5,28.2,28.2,29.7z M31.2,32.2c-1.1,0-2-0.9-2-2
		c0-1.1,0.9-2,2-2c1.1,0,2,0.9,2,2C33.3,31.3,32.4,32.2,31.2,32.2z M36.9,29.1c0,0.3-0.3,0.6-0.6,0.6h-2.1c-0.1-0.5-0.3-0.9-0.5-1.3
		h2.6C36.7,28.4,36.9,28.7,36.9,29.1L36.9,29.1z"/>
	<path fill="#FFFFFF" d="M32.2,22.3v-3.9c0-0.6-0.5-1.1-1.1-1.1H15.4c-1.4,0-2.5,1.1-2.5,2.5v2.6c0,0.6,0.5,1.1,1.1,1.1h17
		C31.7,23.4,32.2,22.9,32.2,22.3z M23.1,18.2h4v4.2h-4V18.2z M22.1,22.4h-4v-4.2h4V22.4z M14,22.3v-2.6c0-0.8,0.6-1.4,1.4-1.4H17
		v4.2h-3C14,22.4,14,22.4,14,22.3z M31.2,22.3c0,0.1-0.1,0.1-0.1,0.1h-3v-4.2h3c0.1,0,0.1,0.1,0.1,0.1V22.3z"/>
	<path fill="#FFFFFF" d="M35.2,26.6c0.3,0,0.5-0.2,0.5-0.5v-0.5c0-0.3-0.2-0.5-0.5-0.5s-0.5,0.2-0.5,0.5v0.5
		C34.6,26.4,34.9,26.6,35.2,26.6z"/>
</g>
</svg>
