<?xml version="1.0" encoding="utf-8"?>
<!-- Generator: Adobe Illustrator 19.2.1, SVG Export Plug-In . SVG Version: 6.00 Build 0)  -->
<svg version="1.1" id="Layer_1" xmlns="http://www.w3.org/2000/svg" xmlns:xlink="http://www.w3.org/1999/xlink" x="0px" y="0px"
	 viewBox="0 0 48 48" style="enable-background:new 0 0 48 48;" xml:space="preserve">
<circle fill="#F07C51" cx="24" cy="24" r="24"/>
<g>
	<path fill="#FFFFFF" d="M30.6,31.5l-1.9-12.6c-0.2-1.1-0.7-2.2-1.6-2.9c-0.9-0.8-2-1.2-3.1-1.2c-1.1,0-2.3,0.4-3.1,1.2
		c-0.9,0.8-1.4,1.8-1.6,2.9l-1.9,12.6c-0.1,0.5,0.2,1,0.7,1.2c0.2,0,0.3,0.1,0.4,0.2c0.3,0.2,0.6,0.4,1.3,0.4c0.6,0,1-0.2,1.3-0.4
		c0.2-0.1,0.4-0.3,0.8-0.3c0.4,0,0.6,0.1,0.8,0.3c0.3,0.2,0.6,0.4,1.3,0.4c0.6,0,1-0.2,1.3-0.4c0.2-0.1,0.4-0.3,0.8-0.3
		c0.4,0,0.6,0.1,0.8,0.3c0.3,0.2,0.6,0.4,1.3,0.4c0.6,0,1-0.2,1.3-0.4c0.1-0.1,0.3-0.2,0.4-0.2C30.4,32.5,30.7,32,30.6,31.5z
		 M24,32.4c-0.4,0-0.6-0.1-0.8-0.3c-0.3-0.2-0.6-0.4-1.3-0.4c-0.6,0-1,0.2-1.3,0.4c-0.2,0.1-0.4,0.3-0.8,0.3c-0.4,0-0.6-0.1-0.8-0.3
		c-0.2-0.1-0.3-0.2-0.6-0.3c-0.1,0-0.2-0.1-0.2-0.2L20.1,19c0.1-0.9,0.6-1.8,1.3-2.4c0.7-0.6,1.6-1,2.6-1s1.9,0.3,2.6,1
		c0.7,0.6,1.2,1.5,1.3,2.4l1.9,12.6c0,0.1-0.1,0.2-0.2,0.2c-0.2,0.1-0.4,0.2-0.6,0.3c-0.2,0.1-0.4,0.3-0.8,0.3
		c-0.4,0-0.6-0.1-0.8-0.3c-0.3-0.2-0.6-0.4-1.3-0.4c-0.6,0-1,0.2-1.3,0.4C24.6,32.3,24.4,32.4,24,32.4z"/>
	<path fill="#FFFFFF" d="M22.8,18.8c-0.6,0-1,0.5-1,1v1.3c0,0.6,0.5,1,1,1c0.6,0,1-0.5,1-1v-1.3C23.8,19.3,23.3,18.8,22.8,18.8z
		 M22.6,19.9c0-0.1,0.1-0.2,0.2-0.2s0.2,0.1,0.2,0.2v1.3c0,0.1-0.1,0.2-0.2,0.2s-0.2-0.1-0.2-0.2V19.9z"/>
	<path fill="#FFFFFF" d="M26.3,19.9c0-0.6-0.5-1-1-1s-1,0.5-1,1v1.3c0,0.6,0.5,1,1,1s1-0.5,1-1V19.9z M25.1,19.9c0-0.1,0.1-0.2,0.2-0.2
		s0.2,0.1,0.2,0.2v1.3c0,0.1-0.1,0.2-0.2,0.2s-0.2-0.1-0.2-0.2V19.9z"/>
	<path fill="#FFFFFF" d="M19.8,27c-0.1,0-0.2,0-0.3,0.1c-0.1,0.1-0.1,0.2-0.2,0.3l-0.6,3.8c0,0.2,0.1,0.4,0.3,0.5c0,0,0,0,0.1,0
		c0.2,0,0.4-0.2,0.4-0.4l0.6-3.8C20.1,27.3,20,27.1,19.8,27z"/>
	<path fill="#FFFFFF" d="M24.8,17c0.2,0.1,0.4,0.1,0.5,0.2c0.1,0,0.1,0.1,0.2,0.1c0.1,0,0.3-0.1,0.4-0.2c0.1-0.2,0.1-0.4-0.1-0.6
		c-0.2-0.1-0.5-0.2-0.7-0.3c-0.2-0.1-0.4,0-0.5,0.3c0,0.1,0,0.2,0,0.3C24.7,16.9,24.7,16.9,24.8,17z"/>
	<path fill="#FFFFFF" d="M20,25.1c-0.1,0-0.2,0-0.3,0.1c-0.1,0.1-0.1,0.2-0.2,0.3l-0.1,0.6c0,0.1,0,0.2,0.1,0.3
		c0.1,0.1,0.2,0.1,0.3,0.2c0,0,0,0,0.1,0c0.2,0,0.4-0.2,0.4-0.4l0.1-0.6C20.4,25.4,20.3,25.2,20,25.1z"/>
	<path fill="#FFFFFF" d="M26.7,19.1l0.4,2.7c0,0.2,0.2,0.4,0.4,0.4c0,0,0,0,0.1,0c0.1,0,0.2-0.1,0.3-0.2c0.1-0.1,0.1-0.2,0.1-0.3
		L27.5,19v0c-0.1-0.6-0.3-1.1-0.7-1.6c-0.1-0.2-0.4-0.2-0.6-0.1c-0.1,0.1-0.1,0.2-0.2,0.3c0,0.1,0,0.2,0.1,0.3
		C26.5,18.3,26.6,18.7,26.7,19.1z"/>
</g>
</svg>
