<?xml version="1.0" encoding="utf-8"?>
<!-- Generator: Adobe Illustrator 19.2.1, SVG Export Plug-In . SVG Version: 6.00 Build 0)  -->
<svg version="1.1" id="Layer_1" xmlns="http://www.w3.org/2000/svg" xmlns:xlink="http://www.w3.org/1999/xlink" x="0px" y="0px"
	 viewBox="0 0 48 48" style="enable-background:new 0 0 48 48;" xml:space="preserve">
<g>
	<circle fill="#F07C51" cx="24" cy="24" r="24"/>
	<g>
		<path fill="#FFFFFF" d="M28.4,23.4h-3.8v-5c0-0.3-0.3-0.6-0.6-0.6c-0.3,0-0.6,0.3-0.6,0.6v5.7l0,0.1l0.1,0.1c0.1,0.2,0.3,0.3,0.5,0.3
			h4.4c0.3,0,0.6-0.3,0.6-0.6C29,23.7,28.7,23.4,28.4,23.4z"/>
		<path fill="#FFFFFF" d="M30.2,17.8c-1.7-1.7-3.9-2.6-6.2-2.6c-2.3,0-4.6,0.9-6.2,2.6c-1.7,1.7-2.6,3.9-2.6,6.2c0,2.4,0.9,4.6,2.6,6.2
			c1.7,1.7,3.9,2.6,6.2,2.6c2.3,0,4.6-0.9,6.2-2.6c1.7-1.7,2.6-3.9,2.6-6.2C32.8,21.7,31.9,19.4,30.2,17.8z M31.6,24
			c0,2-0.8,3.9-2.2,5.4c-1.4,1.4-3.3,2.2-5.4,2.2c-2,0-3.9-0.8-5.4-2.2c-1.4-1.4-2.2-3.3-2.2-5.4c0-2,0.8-3.9,2.2-5.4
			c1.4-1.4,3.3-2.2,5.4-2.2c2,0,3.9,0.8,5.4,2.2l0,0C30.8,20.1,31.6,22,31.6,24z"/>
	</g>
</g>
</svg>
