<?xml version="1.0" encoding="utf-8"?>
<!-- Generator: Adobe Illustrator 19.2.1, SVG Export Plug-In . SVG Version: 6.00 Build 0)  -->
<svg version="1.1" id="Layer_1" xmlns="http://www.w3.org/2000/svg" xmlns:xlink="http://www.w3.org/1999/xlink" x="0px" y="0px"
	 viewBox="0 0 48 48" style="enable-background:new 0 0 48 48;" xml:space="preserve">
<circle fill="#F07C51" cx="24" cy="24" r="24"/>
<g>
	<path fill="#FFFFFF" d="M30.3,27.7L27.5,27c-0.1-0.3-0.2-0.5-0.4-0.6l-0.3-0.2c1-1,1.5-2.4,1.5-4c0-0.2,0-0.5-0.1-0.8
		c0-0.2,0.4-2.8,0.4-5.2c0-0.2-0.1-0.4-0.3-0.4c-0.1,0-1.9-0.6-4.3-0.6c-0.5,0-1.9,0.1-2.9,0.9h0c-0.5,0-1.1,0.2-1.4,0.6
		c-0.4,0.4-0.5,0.9-0.5,1.4c0.1,1,0.2,2.6,0.5,3.8c0,0.1,0,0.2,0,0.2c0,1.5,0.5,3,1.5,4l-0.3,0.2c-0.2,0.1-0.4,0.4-0.4,0.6l-2.8,0.7
		c-1.1,0.3-1.9,1.3-1.9,2.5v1.7c0,0.6,0.5,1,1,1h14.4c0.6,0,1-0.5,1-1v-1.7C32.2,29,31.4,28,30.3,27.7z M29.1,30.8
		c-0.2,0-0.4,0.2-0.4,0.4V32h-9.3v-0.8c0-0.2-0.2-0.4-0.4-0.4s-0.4,0.2-0.4,0.4V32h-1.7c-0.1,0-0.2-0.1-0.2-0.2v-1.7
		c0-0.8,0.5-1.4,1.3-1.6l2.7-0.7c0.2,0.4,0.5,1,0.7,1.4l0.4,0.9c0.1,0.1,0.1,0.3,0.4,0.3c0,0,0,0,0.1,0c0.1,0,0.2,0,0.3-0.1
		c0.4-0.4,0.8-0.7,1.1-0.8v1.7c0,0.2,0.2,0.4,0.4,0.4c0.2,0,0.4-0.2,0.4-0.4v-1.7c0.3,0.2,0.7,0.4,1.1,0.8c0.1,0.1,0.2,0.1,0.3,0.1
		c0,0,0,0,0.1,0c0.2,0,0.3-0.2,0.4-0.3l1.1-2.3l2.7,0.7c0.7,0.2,1.3,0.9,1.3,1.6l0,1.7c0,0.1-0.1,0.2-0.2,0.2h-1.7v-0.8
		C29.5,31,29.3,30.8,29.1,30.8z M24.7,28.7l1.7-1.7l0.2,0.1c0.1,0,0.1,0.1,0.1,0.2c-0.4,0.9-0.8,1.6-1,2C25.3,29,25,28.8,24.7,28.7z
		 M24.9,27.3L24,28.2l-0.9-0.9C23.7,27.5,24.3,27.5,24.9,27.3z M22.3,29.3c-0.2-0.4-0.5-1-1-2c0-0.1,0-0.2,0.1-0.2l0.2-0.1l1.7,1.7
		C23,28.8,22.7,29,22.3,29.3z M24,16c1.7,0,3.1,0.3,3.8,0.5c0,1-0.1,2.1-0.2,3c-0.1-0.1-0.2-0.1-0.3-0.1l-0.4,0
		c-2.1,0-4.1,0-5.8-0.6c-0.2-0.1-0.4,0-0.5,0.2c-0.2,0.2-0.3,0.5-0.4,0.8c-0.1-0.6-0.1-1.1-0.2-1.7c0-0.3,0.1-0.6,0.3-0.8
		c0.2-0.2,0.5-0.3,0.8-0.3h0.2c0.1,0,0.2,0,0.3-0.1C22.3,16.1,23.5,16,24,16z M21.2,19.7c1.8,0.5,3.7,0.5,5.8,0.5l0.1,0
		c0.2,0.5,0.4,1.2,0.5,1.8h-0.6v-0.2c0-0.2-0.2-0.4-0.4-0.4h-1.8c-0.2,0-0.4,0.1-0.4,0.3c-0.1,0-0.2,0-0.4,0
		c-0.1-0.2-0.2-0.3-0.4-0.3h-1.8c-0.2,0-0.4,0.2-0.4,0.4v0.2h-0.6C20.6,21.2,20.8,20.4,21.2,19.7z M21.2,22.9
		c0.1,0.2,0.2,0.3,0.4,0.3c0.2,0,0.4-0.2,0.4-0.4v-0.5h0v0.2c0,0.2,0.2,0.4,0.4,0.4s0.4-0.2,0.4-0.4v-0.2h0v0.5
		c0,0.2,0.2,0.4,0.4,0.4c0.2,0,0.4-0.2,0.4-0.4c0-0.1,0.1-0.2,0.2-0.2s0.2,0.1,0.2,0.2c0,0.2,0.2,0.4,0.4,0.4S25,23,25,22.8v-0.5h0
		v0.2c0,0.2,0.2,0.4,0.4,0.4s0.4-0.2,0.4-0.4v-0.2h0v0.5c0,0.2,0.2,0.4,0.4,0.4c0.2,0,0.4-0.1,0.4-0.3h0.6c-0.3,2.1-1.7,3.6-3.4,3.6
		c-1.7,0-3.1-1.6-3.4-3.6H21.2z"/>
	<path fill="#FFFFFF" d="M22.6,25.2L22.6,25.2c0.4,0.2,0.9,0.4,1.4,0.4c0.6,0,1.1-0.1,1.4-0.4c0.1-0.1,0.2-0.2,0.2-0.3
		c0-0.1,0-0.2-0.1-0.3c-0.1-0.2-0.4-0.2-0.6-0.1c-0.2,0.1-0.6,0.2-1,0.2c-0.4,0-0.7-0.1-1-0.2c-0.2-0.1-0.5-0.1-0.6,0.1
		C22.3,24.8,22.4,25.1,22.6,25.2z"/>
</g>
</svg>
