<!-- Generator: Adobe Illustrator 19.2.1, SVG Export Plug-In . SVG Version: 6.00 Build 0)  -->
<svg version="1.1" id="Layer_1" xmlns="http://www.w3.org/2000/svg" xmlns:xlink="http://www.w3.org/1999/xlink" x="0px" y="0px"
	 viewBox="0 0 48 48" style="enable-background:new 0 0 48 48;" xml:space="preserve">
<circle fill="#F07C51" cx="24" cy="24" r="24"/>
<path fill="#FFFFFF" d="M22.7,19.1C22.6,19,22.5,19,22.3,19c0,0-0.7,0.1-1.5,0.6c-0.7,0.5-1.7,1.4-2.1,3c-0.1,0.2,0.1,0.5,0.3,0.6
		c0,0,0.1,0,0.1,0c0.2,0,0.4-0.1,0.4-0.3c0.3-1.1,0.9-1.9,1.7-2.4c0.6-0.4,1.2-0.5,1.2-0.5c0.2,0,0.4-0.3,0.4-0.5
		C22.8,19.3,22.8,19.2,22.7,19.1z"/>
<path fill="#FFFFFF" d="M32.1,27.6c-0.2-0.2-0.4-0.2-0.6-0.2h-0.2v-0.3c0-0.5-0.4-0.8-0.8-0.8H17.5c-0.5,0-0.8,0.4-0.8,0.8v0.3h-0.2
	c-0.5,0-0.8,0.4-0.8,0.8v1.1c0,0.5,0.4,0.8,0.8,0.8h15.1c0.5,0,0.8-0.4,0.8-0.8v-1.1C32.4,28,32.3,27.8,32.1,27.6z M30.9,28.3h0.5
	v0.9H16.6v-0.9h0.5c0.3,0,0.5-0.2,0.5-0.5v-0.6h12.9v0.6C30.4,28.1,30.6,28.3,30.9,28.3z"/>
<path fill="#FFFFFF" d="M17.1,26.1h13.7c0.5,0,0.8-0.4,0.8-0.8v-0.8c0-0.4-0.3-0.7-0.6-0.8c-0.1-1.7-0.9-3.3-2.1-4.5
	c-1-1-2.3-1.6-3.7-1.9v-1h0c0.7,0,1.3-0.6,1.3-1.3c0-0.7-0.6-1.3-1.3-1.3h-2.5c-0.7,0-1.3,0.6-1.3,1.3c0,0.7,0.6,1.3,1.3,1.3h0v1
	c-1.4,0.2-2.7,0.9-3.7,1.9c-1.2,1.2-2,2.8-2.1,4.5c-0.4,0.1-0.6,0.4-0.6,0.8v0.8C16.3,25.7,16.7,26.1,17.1,26.1z M25.3,15.5h-2.5
	c-0.2,0-0.3-0.2-0.3-0.3c0-0.2,0.2-0.3,0.3-0.3h2.5c0.2,0,0.3,0.2,0.3,0.3C25.6,15.3,25.5,15.5,25.3,15.5z M24.3,16.4v0.8h-0.6
	v-0.8H24.3z M17.9,23.7c0.3-3.1,2.9-5.5,6.1-5.5s5.8,2.4,6.1,5.5H17.9z M17.2,25.2v-0.6h13.5v0.6H17.2z"/>
</svg>
