<?xml version="1.0" encoding="utf-8"?>
<!-- Generator: Adobe Illustrator 19.2.1, SVG Export Plug-In . SVG Version: 6.00 Build 0)  -->
<svg version="1.1" id="Layer_1" xmlns="http://www.w3.org/2000/svg" xmlns:xlink="http://www.w3.org/1999/xlink" x="0px" y="0px"
	 viewBox="0 0 48 48" style="enable-background:new 0 0 48 48;" xml:space="preserve">
<circle fill="#F07C51" cx="24" cy="24" r="24"/>
<path fill="#FFFFFF" d="M27.7,19.4c0-0.2-0.2-0.4-0.4-0.4h-6.4c-0.2,0-0.4,0.2-0.4,0.4c0,0.2,0.2,0.4,0.4,0.4h6.4
		C27.5,19.8,27.7,19.6,27.7,19.4z"/>
	<path fill="#FFFFFF" d="M17.6,29.3c0,0.2,0.2,0.4,0.4,0.4c0,0,0,0,0.1,0c0.1,0,0.2-0.1,0.3-0.2c0.1-0.1,0.1-0.2,0.1-0.3L17.7,24
		l5.8-2.5v7.8c0,0.2,0.2,0.4,0.4,0.4c0.2,0,0.4-0.2,0.4-0.4v-7.8l5.8,2.5l-0.7,5.1c0,0.1,0,0.2,0.1,0.3c0.1,0.1,0.2,0.2,0.3,0.2
		c0.1,0,0.2,0,0.3-0.1c0.1-0.1,0.2-0.2,0.2-0.3l0.8-5.5c0-0.2-0.1-0.4-0.3-0.5L29,22.5l-0.2-3.7c0-0.6-0.6-1.1-1.2-1.1H26v-2.2
		c0-0.2-0.1-0.3-0.2-0.4c0,0-0.7-0.4-1.7-0.4c-1,0-1.7,0.3-1.7,0.4c-0.1,0.1-0.2,0.2-0.2,0.4v2.2h-1.6c-0.6,0-1.1,0.5-1.2,1.1
		L19,22.5l-1.9,0.8c-0.2,0.1-0.3,0.3-0.3,0.5L17.6,29.3z M24,15.7c0.5,0,0.8,0.1,1.1,0.2v1.9h-2.1v-1.9C23.2,15.8,23.5,15.7,24,15.7
		z M23.8,20.4c0,0-0.4,0.2-3.9,1.7l0.2-3.2c0-0.2,0.2-0.3,0.3-0.3h7.2c0.2,0,0.3,0.1,0.3,0.3l0.2,3.2l-3.9-1.7c0,0,0,0,0,0l0,0
		c0,0-0.1,0-0.1,0c0,0-0.1,0-0.1,0C23.9,20.4,23.9,20.4,23.8,20.4L23.8,20.4C23.8,20.4,23.8,20.4,23.8,20.4L23.8,20.4z M28.5,23.1
		L28.5,23.1L28.5,23.1L28.5,23.1z"/>
	<path fill="#FFFFFF" d="M15.3,30.8c0.5,0,1-0.2,1.4-0.5c0.4,0.3,0.9,0.5,1.4,0.5c0.5,0,1-0.2,1.5-0.5c0.4,0.3,0.9,0.5,1.4,0.5
		c0.5,0,1-0.2,1.5-0.5c0.4,0.3,0.9,0.5,1.4,0.5c0.5,0,1-0.2,1.4-0.5c0.4,0.3,0.9,0.5,1.4,0.5c0.5,0,1-0.2,1.4-0.5
		c0.4,0.3,0.9,0.5,1.4,0.5c0.5,0,1-0.2,1.4-0.5c0.4,0.3,0.9,0.5,1.4,0.5c0.2,0,0.4-0.2,0.4-0.4c0-0.2-0.2-0.4-0.4-0.4
		c-0.4,0-0.8-0.2-1.1-0.6c-0.1-0.1-0.2-0.2-0.4-0.2c-0.1,0-0.3,0.1-0.4,0.2c-0.3,0.3-0.7,0.6-1.1,0.6c-0.4,0-0.8-0.2-1.1-0.6
		c-0.1-0.1-0.2-0.2-0.4-0.2s-0.3,0.1-0.4,0.2c-0.3,0.3-0.7,0.6-1.1,0.6c-0.4,0-0.8-0.2-1.1-0.6c-0.1-0.1-0.2-0.2-0.4-0.2
		c-0.1,0-0.3,0.1-0.4,0.2C24.8,29.8,24.4,30,24,30c-0.4,0-0.8-0.2-1.1-0.6c-0.1-0.1-0.2-0.2-0.4-0.2c-0.1,0-0.3,0.1-0.4,0.2
		c-0.3,0.4-0.7,0.6-1.1,0.6c-0.4,0-0.8-0.2-1.1-0.6c-0.1-0.1-0.2-0.2-0.4-0.2c-0.1,0-0.3,0.1-0.4,0.2C19,29.8,18.6,30,18.2,30
		c-0.4,0-0.8-0.2-1.1-0.6c-0.1-0.1-0.2-0.2-0.4-0.2c-0.1,0-0.3,0.1-0.4,0.2c-0.3,0.4-0.7,0.6-1.1,0.6c-0.2,0-0.4,0.2-0.4,0.4
		C14.9,30.6,15.1,30.8,15.3,30.8z"/>
	<path fill="#FFFFFF" d="M32.7,32.3c-0.4,0-0.8-0.2-1.1-0.6c-0.1-0.1-0.2-0.2-0.4-0.2c-0.1,0-0.3,0.1-0.4,0.2c-0.3,0.3-0.7,0.6-1.1,0.6
		c-0.4,0-0.8-0.2-1.1-0.6c-0.1-0.1-0.2-0.2-0.4-0.2s-0.3,0.1-0.4,0.2c-0.3,0.3-0.7,0.6-1.1,0.6c-0.4,0-0.8-0.2-1.1-0.6
		c-0.1-0.1-0.2-0.2-0.4-0.2c-0.1,0-0.3,0.1-0.4,0.2c-0.3,0.3-0.7,0.6-1.1,0.6c-0.4,0-0.8-0.2-1.1-0.6c-0.1-0.1-0.2-0.2-0.4-0.2
		c-0.1,0-0.3,0.1-0.4,0.2c-0.3,0.4-0.7,0.6-1.1,0.6c-0.4,0-0.8-0.2-1.1-0.6c-0.1-0.1-0.2-0.2-0.4-0.2c-0.1,0-0.3,0.1-0.4,0.2
		c-0.3,0.3-0.7,0.6-1.1,0.6c-0.4,0-0.8-0.2-1.1-0.6c-0.1-0.1-0.2-0.2-0.4-0.2c-0.1,0-0.3,0.1-0.4,0.2c-0.3,0.4-0.7,0.6-1.1,0.6
		c-0.2,0-0.4,0.2-0.4,0.4s0.2,0.4,0.4,0.4c0.5,0,1-0.2,1.4-0.5c0.4,0.3,0.9,0.5,1.4,0.5c0.5,0,1-0.2,1.5-0.5
		c0.4,0.3,0.9,0.5,1.4,0.5c0.5,0,1-0.2,1.5-0.5c0.4,0.3,0.9,0.5,1.4,0.5c0.5,0,1-0.2,1.4-0.5c0.4,0.3,0.9,0.5,1.4,0.5
		c0.5,0,1-0.2,1.4-0.5c0.4,0.3,0.9,0.5,1.4,0.5c0.5,0,1-0.2,1.4-0.5c0.4,0.3,0.9,0.5,1.4,0.5c0.2,0,0.4-0.2,0.4-0.4
		S32.9,32.3,32.7,32.3z"/>
</svg>
