<?xml version="1.0" encoding="utf-8"?>
<!-- Generator: Adobe Illustrator 19.2.1, SVG Export Plug-In . SVG Version: 6.00 Build 0)  -->
<svg version="1.1" id="Layer_1" xmlns="http://www.w3.org/2000/svg" xmlns:xlink="http://www.w3.org/1999/xlink" x="0px" y="0px"
	 viewBox="0 0 48 48" style="enable-background:new 0 0 48 48;" xml:space="preserve">
<circle fill="#F07C51" cx="24" cy="24" r="24"/>
<g>
	<path fill="#FFFFFF" d="M24.4,18c-2.2,0-3.9,1.8-3.9,3.9s1.8,3.9,3.9,3.9s3.9-1.8,3.9-3.9S26.6,18,24.4,18z M24.4,24.7
		c-1.6,0-2.8-1.3-2.8-2.8c0-1.6,1.3-2.8,2.8-2.8c1.6,0,2.8,1.3,2.8,2.8C27.2,23.5,26,24.7,24.4,24.7z M30,26.9
		c0.2,0.2,0.2,0.6,0,0.8c-0.1,0.1-0.3,0.2-0.4,0.2c-0.1,0-0.3-0.1-0.4-0.2c0,0,0,0-0.1-0.1c-0.2-0.2-0.3-0.5-0.1-0.8
		c0.2-0.2,0.5-0.3,0.8-0.1C29.9,26.8,30,26.8,30,26.9z M24.4,20c-1,0-1.9,0.8-1.9,1.9c0,1,0.8,1.9,1.9,1.9c1,0,1.9-0.8,1.9-1.9
		S25.5,20,24.4,20z M24.4,22.7c-0.4,0-0.8-0.4-0.8-0.8c0-0.4,0.4-0.8,0.8-0.8c0.4,0,0.8,0.4,0.8,0.8C25.2,22.4,24.9,22.7,24.4,22.7z
		 M18.5,21.9c0-3.3,2.7-5.9,5.9-5.9c1.5,0,2.9,0.6,4,1.6c0.2,0.2,0.2,0.6,0,0.8c-0.2,0.2-0.6,0.2-0.8,0c-0.9-0.8-2.1-1.3-3.3-1.3
		c-2.7,0-4.8,2.2-4.8,4.8s2.2,4.8,4.8,4.8s4.8-2.2,4.8-4.8V21c0-0.8,0.6-1.4,1.4-1.4h2.7c0.2,0,0.3-0.2,0.3-0.3
		c0-0.2-0.2-0.3-0.3-0.3h-2.6c-0.8,0-1.4-0.6-1.4-1.4c0-0.8,0.6-1.4,1.4-1.4h1c0.2,0,0.3-0.2,0.3-0.3c0-0.3,0.2-0.6,0.6-0.6
		c0.3,0,0.6,0.2,0.6,0.6c0,0.8-0.6,1.4-1.4,1.4h-1c-0.2,0-0.3,0.2-0.3,0.3c0,0.2,0.2,0.3,0.3,0.3h2.6c0.8,0,1.4,0.6,1.4,1.4
		c0,0.8-0.6,1.4-1.4,1.4h-2.7c-0.2,0-0.3,0.2-0.3,0.3v0.9c0,3.3-2.7,5.9-5.9,5.9S18.5,25.2,18.5,21.9L18.5,21.9z M30.2,25.8
		c-0.3-0.2-0.3-0.5-0.2-0.8c0.2-0.3,0.5-0.3,0.8-0.2c0.8,0.5,1.4,1.3,1.7,2.2c0.1,0.3-0.1,0.6-0.4,0.7c-0.1,0-0.1,0-0.2,0
		c-0.2,0-0.5-0.2-0.5-0.4C31.2,26.8,30.8,26.2,30.2,25.8L30.2,25.8z M16.1,21.5l0.3,0.8c0.1,0.2,0.3,0.4,0.5,0.4c0.1,0,0.1,0,0.2,0
		c0.3-0.1,0.4-0.4,0.3-0.7l-0.3-0.8c0.9-0.8,1.2-2.2,0.7-3.5c-0.5-1.5-1.9-2.5-3.2-2.3c-0.1,0-0.2,0-0.2,0.1
		c-1.2,0.7-1.6,2.3-1.1,3.8C13.8,20.5,14.9,21.4,16.1,21.5z M14.9,16.3c0.8,0,1.6,0.6,1.9,1.6c0.2,0.7,0.2,1.4-0.1,2l-0.6-1.8
		c-0.1-0.3-0.4-0.4-0.7-0.3c-0.3,0.1-0.4,0.4-0.3,0.7l0.6,1.8c-0.6-0.2-1.1-0.8-1.3-1.5C14.1,17.8,14.3,16.8,14.9,16.3L14.9,16.3z
		 M15.4,27.4c0,0.3-0.3,0.5-0.5,0.5c0,0-0.1,0-0.1,0c-0.3-0.1-0.5-0.3-0.4-0.6c0.3-1.7,1.4-3.2,2.9-4.1c0.3-0.1,0.6-0.1,0.8,0.2
		c0.1,0.3,0.1,0.6-0.2,0.8C16.5,24.7,15.6,25.9,15.4,27.4L15.4,27.4z M34.7,28.6H13.3c-0.3,0-0.6,0.2-0.6,0.6s0.2,0.6,0.6,0.6h4.2
		l1.7,2.8c0.1,0.2,0.3,0.3,0.5,0.3h8.6c0.2,0,0.4-0.1,0.5-0.3l1.7-2.8h4.2c0.3,0,0.6-0.2,0.6-0.6S35,28.6,34.7,28.6z M28,31.8h-8
		l-1.2-2h10.4L28,31.8z M19.9,26.8c0.2,0.3,0.1,0.6-0.2,0.8c-0.1,0-0.1,0.1-0.1,0.1c-0.1,0.1-0.2,0.2-0.4,0.2
		c-0.1,0-0.3-0.1-0.4-0.2c-0.2-0.2-0.2-0.6,0-0.8c0.1-0.1,0.2-0.2,0.3-0.3C19.4,26.4,19.7,26.5,19.9,26.8z M18,24.9
		c0.3-0.2,0.6-0.1,0.8,0.2c0.2,0.3,0.1,0.6-0.2,0.8c-0.6,0.4-1,0.9-1.2,1.6c-0.1,0.2-0.3,0.4-0.5,0.4c-0.1,0-0.1,0-0.2,0
		c-0.3-0.1-0.5-0.4-0.4-0.7C16.6,26.2,17.2,25.4,18,24.9L18,24.9z M33.4,27.4c-0.2-1.3-1.1-2.5-2.2-3.2C31,24,30.9,23.6,31,23.4
		c0.2-0.3,0.5-0.3,0.8-0.2c1.4,0.9,2.4,2.3,2.7,4c0.1,0.3-0.1,0.6-0.4,0.6c0,0-0.1,0-0.1,0C33.7,27.8,33.5,27.6,33.4,27.4L33.4,27.4
		z"/>
</g>
</svg>
