<?xml version="1.0" encoding="utf-8"?>
<!-- Generator: Adobe Illustrator 19.2.1, SVG Export Plug-In . SVG Version: 6.00 Build 0)  -->
<svg version="1.1" id="Layer_1" xmlns="http://www.w3.org/2000/svg" xmlns:xlink="http://www.w3.org/1999/xlink" x="0px" y="0px"
	 viewBox="0 0 48 48" style="enable-background:new 0 0 48 48;" xml:space="preserve">
<g>
	<circle fill="#F07C51" cx="24" cy="24" r="24"/>
	<g>
		<path fill="#FFFFFF" d="M33.7,22.4c0.2,0,0.5-0.2,0.5-0.5v-2.1c0-0.6-0.5-1.1-1.1-1.1H15c-0.6,0-1.1,0.5-1.1,1.1v2.1
			c0,0.2,0.2,0.5,0.5,0.5c0.9,0,1.6,0.7,1.6,1.6s-0.7,1.6-1.6,1.6c-0.2,0-0.5,0.2-0.5,0.5v2.1c0,0.6,0.5,1.1,1.1,1.1h18
			c0.6,0,1.1-0.5,1.1-1.1v-2.1c0-0.2-0.2-0.5-0.5-0.5c-0.9,0-1.6-0.7-1.6-1.6S32.8,22.4,33.7,22.4z M31.1,24c0,1.2,0.9,2.3,2.1,2.5
			v1.7c0,0.1-0.1,0.2-0.2,0.2h-3.3v-0.6c0-0.2-0.2-0.5-0.5-0.5c-0.2,0-0.5,0.2-0.5,0.5v0.6H15c-0.1,0-0.2-0.1-0.2-0.2v-1.7
			c1.2-0.2,2.1-1.3,2.1-2.5c0-1.2-0.9-2.3-2.1-2.5v-1.7c0-0.1,0.1-0.2,0.2-0.2h13.7v0.6c0,0.2,0.2,0.5,0.5,0.5
			c0.2,0,0.5-0.2,0.5-0.5v-0.6H33c0.1,0,0.2,0.1,0.2,0.2v1.7C32,21.7,31.1,22.8,31.1,24z"/>
		<path fill="#FFFFFF" d="M29.2,23.2c-0.2,0-0.5,0.2-0.5,0.5v0.7c0,0.2,0.2,0.5,0.5,0.5c0.2,0,0.5-0.2,0.5-0.5v-0.7
			C29.6,23.4,29.4,23.2,29.2,23.2z"/>
		<path fill="#FFFFFF" d="M29.2,21.1c-0.2,0-0.5,0.2-0.5,0.5v0.7c0,0.2,0.2,0.5,0.5,0.5c0.2,0,0.5-0.2,0.5-0.5v-0.7
			C29.6,21.3,29.4,21.1,29.2,21.1z"/>
		<path fill="#FFFFFF" d="M29.2,25.3c-0.2,0-0.5,0.2-0.5,0.5v0.7c0,0.2,0.2,0.5,0.5,0.5c0.2,0,0.5-0.2,0.5-0.5v-0.7
			C29.6,25.5,29.4,25.3,29.2,25.3z"/>
		<path fill="#FFFFFF" d="M26.8,20.8h-7.9c-0.4,0-0.8,0.4-0.8,0.8v4.8c0,0.4,0.4,0.8,0.8,0.8h7.9c0.4,0,0.8-0.4,0.8-0.8v-4.8
			C27.6,21.1,27.2,20.8,26.8,20.8z M26.7,21.7v4.6h-7.7v-4.6H26.7z"/>
		<path fill="#FFFFFF" d="M20.2,23.8h5.2c0.2,0,0.5-0.2,0.5-0.5s-0.2-0.5-0.5-0.5h-5.2c-0.2,0-0.5,0.2-0.5,0.5S20,23.8,20.2,23.8z"/>
		<path fill="#FFFFFF" d="M20.2,25.1h1c0.2,0,0.5-0.2,0.5-0.5s-0.2-0.5-0.5-0.5h-1c-0.2,0-0.5,0.2-0.5,0.5S20,25.1,20.2,25.1z"/>
		<path fill="#FFFFFF" d="M25.4,24.2h-2.8c-0.2,0-0.5,0.2-0.5,0.5s0.2,0.5,0.5,0.5h2.8c0.2,0,0.5-0.2,0.5-0.5S25.6,24.2,25.4,24.2z"/>
	</g>
</g>
</svg>
