<?xml version="1.0" encoding="utf-8"?>
<!-- Generator: Adobe Illustrator 19.2.1, SVG Export Plug-In . SVG Version: 6.00 Build 0)  -->
<svg version="1.1" id="Layer_1" xmlns="http://www.w3.org/2000/svg" xmlns:xlink="http://www.w3.org/1999/xlink" x="0px" y="0px"
	 viewBox="0 0 48 48" style="enable-background:new 0 0 48 48;" xml:space="preserve">
<g>
	<circle fill="#F07C51" cx="24" cy="24" r="24"/>
	<g>
		<path fill="#FFFFFF" d="M36.7,22.9C36.6,22.9,36.6,22.9,36.7,22.9L36.7,22.9c-0.2-0.2-0.3-0.3-0.4-0.4L31,16.8c0,0,0,0,0,0
			c-0.5-0.5-1.2-0.8-1.9-0.9c-0.3-0.5-0.9-0.9-1.6-0.9c-1,0-1.8,0.8-1.8,1.8v3.9h-3.4v-3.9c0-1-0.8-1.8-1.8-1.8
			c-0.6,0-1.2,0.3-1.6,0.9c-0.7,0.1-1.4,0.4-1.9,0.9c0,0,0,0,0,0l-5.3,5.7c-0.1,0.1-0.2,0.2-0.3,0.3l0,0c0,0,0,0,0,0.1
			c-0.9,1.1-1.4,2.5-1.4,3.9c0,3.4,2.8,6.2,6.2,6.2s6.2-2.8,6.2-6.2c0-0.1,0-0.3,0-0.4h3.4c0,0.1,0,0.3,0,0.4c0,3.4,2.8,6.2,6.2,6.2
			s6.2-2.8,6.2-6.2C38.1,25.4,37.6,24,36.7,22.9z M26.7,16.7c0-0.4,0.4-0.7,0.8-0.7c0.1,0,0.2,0,0.3,0.1
			C27.4,16.2,27,16.4,26.7,16.7z M27.9,21.5c0.1-0.1,0.2-0.4,0.1-0.5c-0.1-0.2-0.3-0.3-0.5-0.3c0,0,0,0,0,0l-0.9,0V19
			c0-1.2,1-2.1,2.1-2.1c0.5,0,1.1,0.2,1.5,0.6l3.2,3.4c-0.5-0.1-1-0.2-1.6-0.2c-1.1,0-2.1,0.3-3.1,0.8c-0.8,0.4-1.4,1-1.9,1.8
			C27.1,22.6,27.4,22,27.9,21.5z M31.9,32c-2.9,0-5.2-2.3-5.2-5.2s2.3-5.2,5.2-5.2c1.4,0,2.7,0.5,3.7,1.5l0.3,0.3
			c0.8,0.9,1.2,2.1,1.2,3.4C37.1,29.7,34.7,32,31.9,32z M25.7,24.4v1h-3.4v-1c0-1-0.3-2-0.8-2.8h5.1C26,22.5,25.7,23.4,25.7,24.4z
			 M20.5,16c0.2,0,0.4,0.1,0.6,0.2c0.1,0.1,0.2,0.3,0.2,0.5c-0.3-0.3-0.7-0.5-1.1-0.7C20.3,16,20.4,16,20.5,16z M16.1,20.7
			c-0.5,0-1.1,0.1-1.6,0.2l3.2-3.4l0,0c0.4-0.4,0.9-0.6,1.5-0.6c1.2,0,2.1,1,2.1,2.1v1.7h-0.8c0,0,0,0,0,0c-0.1,0-0.3,0-0.4,0.1
			c-0.1,0.1-0.1,0.2-0.1,0.3c0,0.1,0.1,0.3,0.1,0.3c0.5,0.5,0.9,1.1,1.1,1.7c-0.5-0.7-1.2-1.3-1.9-1.8
			C18.3,20.9,17.2,20.7,16.1,20.7z M21.3,26.8c0,2.9-2.3,5.2-5.2,5.2s-5.2-2.3-5.2-5.2c0-1.2,0.4-2.4,1.2-3.3l0.3-0.3
			c1-1,2.3-1.5,3.7-1.5C19,21.6,21.3,24,21.3,26.8z"/>
		<path fill="#FFFFFF" d="M16.1,22.9c-2.2,0-3.9,1.8-3.9,3.9s1.8,3.9,3.9,3.9s3.9-1.8,3.9-3.9S18.3,22.9,16.1,22.9z M16.1,29.9
			c-1.7,0-3-1.4-3-3s1.4-3,3-3s3,1.4,3,3S17.8,29.9,16.1,29.9z"/>
		<path fill="#FFFFFF" d="M31.9,22.9c-2.2,0-3.9,1.7-3.9,3.9s1.7,3.9,3.9,3.9s3.9-1.7,3.9-3.9S34,22.9,31.9,22.9z M31.9,29.9
			c-1.7,0-3-1.4-3-3c0-1.7,1.4-3,3-3s3,1.4,3,3C34.9,28.5,33.5,29.9,31.9,29.9z"/>
		<path fill="#FFFFFF" d="M32.2,24.6c-0.2,0-0.4,0.2-0.4,0.4s0.2,0.4,0.4,0.4c0.7,0,1.2,0.5,1.2,1.2c0,0.2,0.2,0.4,0.4,0.4
			s0.4-0.2,0.4-0.4C34.1,25.5,33.3,24.6,32.2,24.6z"/>
		<path fill="#FFFFFF" d="M16.4,24.5c-0.2,0-0.4,0.2-0.4,0.4s0.2,0.4,0.4,0.4c0.7,0,1.2,0.6,1.2,1.2c0,0.2,0.2,0.4,0.4,0.4
			s0.4-0.2,0.4-0.4C18.4,25.5,17.5,24.5,16.4,24.5z"/>
	</g>
</g>
</svg>
