<?xml version="1.0" encoding="utf-8"?>
<!-- Generator: Adobe Illustrator 19.2.1, SVG Export Plug-In . SVG Version: 6.00 Build 0)  -->
<svg version="1.1" id="Layer_1" xmlns="http://www.w3.org/2000/svg" xmlns:xlink="http://www.w3.org/1999/xlink" x="0px" y="0px"
	 viewBox="0 0 48 48" style="enable-background:new 0 0 48 48;" xml:space="preserve">
<g>
	<circle fill="#F07C51" cx="24" cy="24" r="24"/>
	<g>
		<path fill="#FFFFFF" d="M18.6,22.9H15c-0.3,0-0.5-0.2-0.5-0.5c0-0.3,0.2-0.5,0.5-0.5h3.5c0.3,0,0.5,0.2,0.5,0.5
			C19.1,22.7,18.9,22.9,18.6,22.9z M17.1,25h2c0.3,0,0.5-0.2,0.5-0.5S19.4,24,19.1,24h-2c-0.3,0-0.5,0.2-0.5,0.5S16.8,25,17.1,25z
			 M14.5,24.5c0-0.3-0.2-0.5-0.5-0.5h-1.2c-0.3,0-0.5,0.2-0.5,0.5s0.2,0.5,0.5,0.5H14C14.3,25,14.5,24.7,14.5,24.5z M21.2,20.3
			c0-0.3-0.2-0.5-0.5-0.5h-8.4c-0.3,0-0.5,0.2-0.5,0.5c0,0.3,0.2,0.5,0.5,0.5h8.4C20.9,20.9,21.2,20.6,21.2,20.3z M36.2,26.6l0,0.5
			c0,0.3,0,0.6,0,1.1c0,0.8-0.6,1.5-1.5,1.7c-0.2,1.6-1.6,2.8-3.2,2.8c-1.8,0-3.2-1.5-3.2-3.2c0-1.8,1.5-3.2,3.2-3.2
			c1.6,0,2.9,1.1,3.2,2.6c0.3-0.1,0.5-0.4,0.5-0.7c0-0.4,0-0.8,0-1.1l0-0.5c0-0.6,0-1.4,0-1.8c0-0.1,0-0.2,0-0.3H22.7
			c-1.4,0-1.9-1.2-2-1.6c-0.1-0.3,0-0.6,0.3-0.7c0.3-0.1,0.6,0,0.7,0.3c0.3,0.7,0.6,1,1.1,1H35c-0.2-0.5-0.7-0.9-1.7-1.8
			c-0.2-0.2-0.4-0.4-0.7-0.6c-0.2-0.2-0.4-0.3-0.5-0.5c-0.3-0.2-0.5-0.5-0.8-0.7c-0.2-0.2-0.5-0.4-0.7-0.6c-2.7-2.3-3.5-3-5.9-3
			h-9.3c-0.6,0-1.1,0.4-1.1,0.8v1.2c0,0.3-0.2,0.5-0.5,0.5s-0.5-0.2-0.5-0.5v-1.2c0-1,0.9-1.8,2.1-1.8h9.3c2.7,0,3.8,0.9,6.6,3.2
			c0.2,0.2,0.4,0.4,0.7,0.6c0.3,0.3,0.6,0.5,0.8,0.8c0.2,0.2,0.3,0.3,0.5,0.5c0.2,0.2,0.5,0.4,0.7,0.6c1.7,1.5,2.2,1.9,2.2,3.9
			C36.2,25.2,36.2,26,36.2,26.6z M33.7,29.5C33.7,29.5,33.7,29.4,33.7,29.5c0-1.2-1-2.2-2.2-2.2c-1.2,0-2.2,1-2.2,2.2
			c0,1.2,1,2.2,2.2,2.2C32.7,31.7,33.7,30.7,33.7,29.5z M18.1,28.9L18.1,28.9c-0.3,0-0.5,0.2-0.5,0.5c0,0.3,0.2,0.5,0.5,0.5
			c0.3,0,0.5-0.2,0.5-0.5C18.6,29.2,18.4,28.9,18.1,28.9z M31.5,28.9L31.5,28.9c-0.3,0-0.5,0.2-0.5,0.5c0,0.3,0.2,0.5,0.5,0.5
			c0.3,0,0.5-0.2,0.5-0.5C32,29.2,31.8,28.9,31.5,28.9z M27.2,29.5c0,0.3-0.2,0.5-0.5,0.5h-5.4c-0.2,1.5-1.6,2.7-3.2,2.7
			c-1.6,0-3-1.2-3.2-2.8c-0.6-0.1-1.1-0.5-1.3-1c-0.1-0.2-0.2-0.5-0.2-0.7v-1.5c0-0.3,0.2-0.5,0.5-0.5c0.3,0,0.5,0.2,0.5,0.5v1.5
			c0,0.1,0,0.2,0.1,0.3c0.1,0.2,0.3,0.3,0.5,0.4c0.3-1.5,1.6-2.6,3.2-2.6c1.6,0,3,1.2,3.2,2.7h5.4C27,28.9,27.2,29.2,27.2,29.5z
			 M20.3,29.5c0-1.2-1-2.2-2.2-2.2c-1.2,0-2.2,1-2.2,2.2c0,0,0,0,0,0c0,1.2,1,2.2,2.2,2.2C19.3,31.7,20.3,30.7,20.3,29.5z"/>
	</g>
</g>
</svg>
