<?xml version="1.0" encoding="utf-8"?>
<!-- Generator: Adobe Illustrator 19.2.1, SVG Export Plug-In . SVG Version: 6.00 Build 0)  -->
<svg version="1.1" id="Layer_1" xmlns="http://www.w3.org/2000/svg" xmlns:xlink="http://www.w3.org/1999/xlink" x="0px" y="0px"
	 viewBox="0 0 48 48" style="enable-background:new 0 0 48 48;" xml:space="preserve">
<circle fill="#F07C51" cx="24" cy="24" r="24"/>
<g>
	<path fill="#FFFFFF" d="M37.5,26.4c0-0.1,0-0.2,0-0.2c-0.1-2.4-1.7-2.7-3.7-3c-0.5-0.1-1-0.2-1.5-0.3
		c-3.8-0.8-7.1-2.7-9.9-5.6c-0.1-0.1-0.3-0.2-0.4-0.2h-2c-0.2,0-0.5,0.1-0.5,0.4c-0.5,1.3-1.8,2.1-3.1,2.1c-1.3,0-2.5-0.8-3.1-2.1
		c-0.1-0.2-0.3-0.4-0.5-0.4h-1.3c-0.3,0-0.6,0.3-0.6,0.6c0,0.9-0.1,1.8-0.2,2.7c-0.2,2.3-0.5,4.5,0.6,5.9c-0.4,0.4-0.6,1-0.6,1.6
		v0.6c0,1.2,0.9,2.3,1.9,2.3h15.9c4.2,0,7.2-0.9,8.5-2.4C37.5,27.9,37.6,27.2,37.5,26.4z M11.8,20.5c0.1-0.7,0.1-1.4,0.2-2.2h0.4
		c0.8,1.5,2.3,2.4,4,2.4s3.2-0.9,4-2.4h1.4c0.2,0.2,0.4,0.4,0.6,0.6l-0.4,0.6c-0.2,0.3-0.2,0.6,0.1,0.8c0.3,0.2,0.6,0.2,0.8-0.1
		l0.4-0.5c0.2,0.2,0.5,0.4,0.7,0.6l-0.4,0.5c-0.2,0.3-0.2,0.6,0.1,0.8c0.3,0.2,0.6,0.2,0.8-0.1l0.4-0.5c0.2,0.2,0.5,0.3,0.8,0.5
		L25.3,22c-0.2,0.3-0.2,0.6,0.1,0.8c0.3,0.2,0.6,0.2,0.8-0.1l0.5-0.6c0.3,0.1,0.5,0.3,0.8,0.4L27.2,23c-0.2,0.3-0.2,0.6,0.1,0.8
		c0.3,0.2,0.6,0.2,0.8-0.1l0.5-0.6c0.5,0.2,1.1,0.4,1.7,0.6c-0.8,1.1-2.3,1.6-3.7,1.1c0,0-0.1,0-0.1,0c-2-0.9-3.9-2.1-5.8-3.6
		c0,0-0.2-0.1-0.3-0.1c-0.1,0-0.4,0-0.5,0.1c0,0-0.2,0.2-0.2,0.2c-0.5,1.2-2,2-3.5,2c-0.7,0-2.5-0.2-3.3-2c-0.1-0.2-0.3-0.4-0.5-0.4
		h-0.7C11.8,20.8,11.8,20.7,11.8,20.5z M28.5,29.7H12.6c-0.4,0-0.8-0.5-0.8-1.1V28c0-0.3,0.1-0.6,0.3-0.8c0.8,0.5,1.8,0.8,3.1,0.8
		h20.7C34.8,29,32.1,29.7,28.5,29.7z M36.3,26.3c0,0.1-0.1,0.2-0.1,0.2c-0.1,0.1-0.2,0.1-0.3,0.1H15.2c-1.2,0-2.1-0.2-2.7-0.7
		c0,0-0.1-0.1-0.2-0.2c-0.7-0.8-0.8-2.1-0.7-3.6h0.4c0.8,1.5,2.3,2.4,4.2,2.4c1.8,0,3.4-0.8,4.3-2.1c1.8,1.3,3.6,2.4,5.4,3.3
		c0,0,0.1,0,0.1,0.1c2,0.9,4.4,0.1,5.5-1.8c0.2,0,0.4,0.1,0.6,0.1c0.6,0.1,1.1,0.2,1.6,0.3c2,0.3,2.6,0.5,2.6,1.8
		C36.3,26.3,36.3,26.3,36.3,26.3z"/>
</g>
</svg>
