<!-- Generator: Adobe Illustrator 19.2.1, SVG Export Plug-In  -->
<svg version="1.1"
	 xmlns="http://www.w3.org/2000/svg" xmlns:xlink="http://www.w3.org/1999/xlink" xmlns:a="http://ns.adobe.com/AdobeSVGViewerExtensions/3.0/"
	 x="0px" y="0px" width="28px" height="24.9px" viewBox="0 0 28 24.9" style="enable-background:new 0 0 28 24.9;"
	 xml:space="preserve">
<path fill="#f1ca2f" d="M27.3,10.7l-10-10C16.9,0.3,16.2,0,15.6,0c-0.7,0-1.3,0.3-1.8,0.7c-1,1-1,2.5,0,3.5l5.7,5.7h-17C1.1,10,0,11.1,0,12.4
	s1.1,2.5,2.5,2.5h17l-5.7,5.7c-1,1-1,2.5,0,3.5c0.5,0.5,1.1,0.7,1.8,0.7c0.7,0,1.3-0.3,1.8-0.7l10-10C28.2,13.2,28.2,11.7,27.3,10.7
	z"/>
</svg>
