<!-- Generator: Adobe Illustrator 19.2.1, SVG Export Plug-In  -->
<svg version="1.1"
	 xmlns="http://www.w3.org/2000/svg" xmlns:xlink="http://www.w3.org/1999/xlink" xmlns:a="http://ns.adobe.com/AdobeSVGViewerExtensions/3.0/"
	 x="0px" y="0px" width="28px" height="24.9px" viewBox="0 0 28 24.9" style="enable-background:new 0 0 28 24.9;"
	 xml:space="preserve">
<path fill="#f1ca2f" d="M0.7,14.2l10,10c0.5,0.5,1.1,0.7,1.8,0.7c0.7,0,1.3-0.3,1.8-0.7c1-1,1-2.5,0-3.5l-5.7-5.7h17c1.4,0,2.5-1.1,2.5-2.5
	S26.9,10,25.5,10h-17l5.7-5.7c1-1,1-2.5,0-3.5C13.7,0.3,13.1,0,12.4,0c-0.7,0-1.3,0.3-1.8,0.7l-10,10C-0.2,11.7-0.2,13.2,0.7,14.2z"
	/>
</svg>
