<!-- Generator: Adobe Illustrator 19.2.1, SVG Export Plug-In  -->
<svg version="1.1"
	 xmlns="http://www.w3.org/2000/svg" xmlns:xlink="http://www.w3.org/1999/xlink" xmlns:a="http://ns.adobe.com/AdobeSVGViewerExtensions/3.0/"
	 x="0px" y="0px" width="48px" height="48px" viewBox="0 0 48 48" style="enable-background:new 0 0 48 48;" xml:space="preserve">
<defs>
</defs>
<g>
	<path d="M41,7c-4.5-4.5-10.6-7-17-7S11.6,2.5,7,7c-4.5,4.5-7,10.6-7,17s2.5,12.4,7,17c4.5,4.5,10.6,7,17,7s12.4-2.5,17-7
		c4.5-4.5,7-10.6,7-17S45.5,11.6,41,7z M24,46.5C11.6,46.5,1.5,36.4,1.5,24S11.6,1.5,24,1.5S46.5,11.6,46.5,24S36.4,46.5,24,46.5z"
		/>
	<circle cx="24" cy="10" r="0.8"/>
	<path d="M44.7,24.8c-0.1-0.2-0.3-0.2-0.6-0.2h-2.7v-2.3c0-0.4-0.3-0.8-0.8-0.8s-0.8,0.3-0.8,0.8v2.3H38v-5.4c0-0.3-0.1-0.5-0.4-0.6
		l-7.8-4.9V10c0-0.4-0.3-0.8-0.8-0.8h-1.4c-0.4-1.7-1.9-3.1-3.8-3.1s-3.4,1.3-3.8,3.1h-1.4c-0.4,0-0.8,0.3-0.8,0.8v3.3h-2.6V11
		c0-0.4-0.3-0.8-0.8-0.8S14,10.6,14,11v2.3h-3.3c-0.4,0-0.8,0.3-0.8,0.8v10.5l-6.1,0c-0.2,0-0.4,0.1-0.6,0.2
		c-0.1,0.2-0.2,0.4-0.2,0.6c0.4,5.7,3,10.8,7.1,14.4c0,0,0.1,0.1,0.1,0.1c2.4,2.1,5.2,3.6,8.4,4.5c0,0,0.1,0,0.1,0
		c1.7,0.4,3.4,0.7,5.3,0.7c1.8,0,3.5-0.2,5.2-0.7c0,0,0.1,0,0.1,0c1.8-0.5,3.5-1.2,5.2-2.1c3.1-1.8,5.7-4.4,7.5-7.5
		c0.2-0.4,0.1-0.8-0.3-1c-0.4-0.2-0.8-0.1-1,0.3c-0.8,1.3-1.7,2.4-2.7,3.5V26h5.3c-0.2,1.8-0.6,3.5-1.3,5.2c-0.2,0.4,0,0.8,0.4,1
		c0.4,0.2,0.8,0,1-0.4c0.8-2.1,1.3-4.2,1.5-6.5C44.9,25.1,44.8,24.9,44.7,24.8z M19.7,17.9h8.7v22h-8.7V17.9z M19.7,10.7h1.3
		c0.4,0,0.8-0.3,0.8-0.8c0-1.3,1-2.3,2.3-2.3s2.3,1,2.3,2.3c0,0.4,0.3,0.8,0.8,0.8h1.3v5.6h-8.7V10.7z M4.7,26l5.3,0v5.4
		c0,0.4,0.3,0.8,0.8,0.8s0.8-0.3,0.8-0.8V14.8h6.6v25h-0.3c-0.4,0-0.8,0.3-0.8,0.8s0.3,0.8,0.8,0.8h0.3v1.1c-2.5-0.8-4.7-2-6.6-3.7
		v-4.3c0-0.4-0.3-0.8-0.8-0.8S10,34,10,34.5v2.9C7.1,34.4,5.2,30.4,4.7,26z M19.7,42.9v-1.6h8.7v1.5c-1.4,0.3-2.9,0.5-4.3,0.5
		C22.5,43.4,21.1,43.2,19.7,42.9z M29.9,42.5v-1.1h0.3c0.4,0,0.8-0.3,0.8-0.8s-0.3-0.8-0.8-0.8h-0.3V15.4l6.6,4.1v19.2
		C34.6,40.4,32.3,41.7,29.9,42.5z"/>
	<path d="M33.2,32.7c-0.4,0-0.8,0.3-0.8,0.8v1c0,0.4,0.3,0.8,0.8,0.8s0.8-0.3,0.8-0.8v-1C34,33,33.6,32.7,33.2,32.7z"/>
	<path d="M33.2,28.6c-0.4,0-0.8,0.3-0.8,0.8v1c0,0.4,0.3,0.8,0.8,0.8s0.8-0.3,0.8-0.8v-1C34,28.9,33.6,28.6,33.2,28.6z"/>
	<path d="M33.2,24.5c-0.4,0-0.8,0.3-0.8,0.8v1c0,0.4,0.3,0.8,0.8,0.8s0.8-0.3,0.8-0.8v-1C34,24.9,33.6,24.5,33.2,24.5z"/>
	<path d="M33.2,20.4c-0.4,0-0.8,0.3-0.8,0.8v1c0,0.4,0.3,0.8,0.8,0.8s0.8-0.3,0.8-0.8v-1C34,20.8,33.6,20.4,33.2,20.4z"/>
	<path d="M14.8,35.2c0.4,0,0.8-0.3,0.8-0.8v-1c0-0.4-0.3-0.8-0.8-0.8S14,33,14,33.4v1C14,34.9,14.4,35.2,14.8,35.2z"/>
	<path d="M14.8,31.1c0.4,0,0.8-0.3,0.8-0.8v-1c0-0.4-0.3-0.8-0.8-0.8S14,28.9,14,29.4v1C14,30.8,14.4,31.1,14.8,31.1z"/>
	<path d="M14.8,27.1c0.4,0,0.8-0.3,0.8-0.8v-1c0-0.4-0.3-0.8-0.8-0.8S14,24.9,14,25.3v1C14,26.7,14.4,27.1,14.8,27.1z"/>
	<path d="M14.8,18.9c0.4,0,0.8-0.3,0.8-0.8v-1c0-0.4-0.3-0.8-0.8-0.8S14,16.7,14,17.1v1C14,18.6,14.4,18.9,14.8,18.9z"/>
	<path d="M14.8,23c0.4,0,0.8-0.3,0.8-0.8v-1c0-0.4-0.3-0.8-0.8-0.8S14,20.8,14,21.2v1C14,22.6,14.4,23,14.8,23z"/>
	<path d="M24,35.7c-0.4,0-0.8,0.3-0.8,0.8v1c0,0.4,0.3,0.8,0.8,0.8s0.8-0.3,0.8-0.8v-1C24.8,36.1,24.4,35.7,24,35.7z"/>
	<path d="M24,31.7c-0.4,0-0.8,0.3-0.8,0.8v1c0,0.4,0.3,0.8,0.8,0.8s0.8-0.3,0.8-0.8v-1C24.8,32,24.4,31.7,24,31.7z"/>
	<path d="M24,27.6c-0.4,0-0.8,0.3-0.8,0.8v1c0,0.4,0.3,0.8,0.8,0.8s0.8-0.3,0.8-0.8v-1C24.8,27.9,24.4,27.6,24,27.6z"/>
	<path d="M24,23.5c-0.4,0-0.8,0.3-0.8,0.8v1c0,0.4,0.3,0.8,0.8,0.8s0.8-0.3,0.8-0.8v-1C24.8,23.8,24.4,23.5,24,23.5z"/>
	<path d="M24,19.4c-0.4,0-0.8,0.3-0.8,0.8v1c0,0.4,0.3,0.8,0.8,0.8s0.8-0.3,0.8-0.8v-1C24.8,19.7,24.4,19.4,24,19.4z"/>
	<path d="M22,14.8H26c0.4,0,0.8-0.3,0.8-0.8s-0.3-0.8-0.8-0.8H22c-0.4,0-0.8,0.3-0.8,0.8S21.5,14.8,22,14.8z"/>
</g>
</svg>