<!-- Generator: Adobe Illustrator 19.2.1, SVG Export Plug-In  -->
<svg version="1.1"
	 xmlns="http://www.w3.org/2000/svg" xmlns:xlink="http://www.w3.org/1999/xlink" xmlns:a="http://ns.adobe.com/AdobeSVGViewerExtensions/3.0/"
	 x="0px" y="0px" width="48px" height="48px" viewBox="0 0 48 48" style="enable-background:new 0 0 48 48;" xml:space="preserve">
<defs>
</defs>
<g>
	<path d="M44.9,25.5c0-0.5,0.1-1,0.1-1.5c0-1.1-0.1-2.1-0.2-3.2c-0.1-0.4-0.4-0.7-0.8-0.7c-1.4,0-2.7,0.1-4.1,0.2v-2.5
		c0.1,0,0.2,0,0.3,0c0.3,0,0.6-0.2,0.7-0.4c0.2-0.4,0-0.8-0.3-1l-4.1-2c-0.2-0.1-0.5-0.1-0.7,0l-4.1,2c-0.4,0.2-0.5,0.6-0.3,1
		c0.2,0.3,0.6,0.5,0.9,0.4v3.8C23.2,24.1,15.1,29,8.8,36.1c-0.5-0.6-0.9-1.3-1.4-1.9c0.2,0,0.4,0,0.5,0.1c0,0,0.1,0,0.1,0
		c0.4,0,0.7-0.3,0.8-0.7c0.1-0.4-0.2-0.8-0.7-0.9c-0.5-0.1-1.1-0.1-1.6-0.2c-0.4-0.8-0.8-1.7-1.1-2.6c2.1,0.1,4.1,0.3,6.1,0.8
		c0.1,0,0.1,0,0.2,0c0.4,0,0.7-0.2,0.7-0.6c0.1-0.4-0.2-0.8-0.6-0.9c-2.2-0.5-4.5-0.7-6.8-0.8c-0.2-0.8-0.3-1.7-0.4-2.6
		c3.7,0.1,7.4,0.6,11,1.7c0.1,0,0.1,0,0.2,0c0.3,0,0.6-0.2,0.7-0.5c0.1-0.4-0.1-0.8-0.5-1c-3.7-1.1-7.6-1.7-11.5-1.8
		c0-0.1,0-0.2,0-0.3c0-0.8,0-1.5,0.1-2.3c5.3,0.1,10.5,1.1,15.4,3c0.4,0.2,0.8,0,1-0.4c0.2-0.4,0-0.8-0.4-1c-5.3-2-10.9-3-16.6-3.1
		c-0.4,0-0.7,0.3-0.8,0.7c-0.2,1-0.2,2.1-0.2,3.2c0,1.8,0.2,3.6,0.7,5.3c1.3,4.7,4.1,8.8,8,11.6c0,0,0,0,0,0c3.4,2.5,7.7,4,12.2,4
		c3,0,5.9-0.6,8.6-1.9c0.4-0.2,0.6-0.6,0.4-1c-0.2-0.4-0.6-0.6-1-0.4c-2.5,1.1-5.2,1.7-8,1.7c-0.3,0-0.6,0-0.8,0
		c4.6-4,10.2-6.6,16.2-7.5c-1.3,1.7-2.9,3.2-4.8,4.4c-0.4,0.2-0.5,0.7-0.2,1.1c0.1,0.2,0.4,0.3,0.6,0.3c0.1,0,0.3,0,0.4-0.1
		c5.5-3.6,9-9.4,9.5-15.9C44.9,25.6,44.9,25.6,44.9,25.5z M33.7,17.2L36,16l2.3,1.1v3.4c-0.5,0.1-1,0.1-1.5,0.2v-1.5
		c0-0.4-0.3-0.8-0.8-0.8s-0.8,0.3-0.8,0.8V21c-0.5,0.1-1,0.2-1.5,0.3V17.2z M9.8,37.2c8.5-9.7,20.6-15.3,33.4-15.5
		c0.1,0.8,0.1,1.5,0.1,2.3c0,0.3,0,0.5,0,0.8c-5.5,0.1-10.8,1.2-15.8,3.3c-0.4,0.2-0.6,0.6-0.4,1c0.1,0.3,0.4,0.5,0.7,0.5
		c0.1,0,0.2,0,0.3-0.1c4.8-2,9.8-3.1,15-3.2c-0.1,1.1-0.3,2.1-0.6,3.1c-5.1,0.2-10.1,1.4-14.7,3.6c-4.5,2.1-8.4,5.1-11.8,8.7
		c-1-0.4-1.9-0.9-2.8-1.5c3.4-3.9,7.5-7.1,12.1-9.4c0.4-0.2,0.5-0.7,0.3-1c-0.2-0.4-0.7-0.5-1-0.3c-4.8,2.5-9.1,5.8-12.7,9.9
		C11.3,38.7,10.5,38,9.8,37.2z M21.1,43.2c-1.2-0.2-2.4-0.5-3.5-0.9C24,35.6,32.8,31.5,42.1,31c-0.4,1.1-1,2.2-1.6,3.2
		C33.3,34.9,26.4,38.1,21.1,43.2z"/>
	<path d="M41,7c-4.5-4.5-10.6-7-17-7S11.6,2.5,7,7c-4.5,4.5-7,10.6-7,17s2.5,12.4,7,17c4.5,4.5,10.6,7,17,7s12.4-2.5,17-7
		c4.5-4.5,7-10.6,7-17S45.5,11.6,41,7z M24,46.5C11.6,46.5,1.5,36.4,1.5,24S11.6,1.5,24,1.5S46.5,11.6,46.5,24S36.4,46.5,24,46.5z"
		/>
	<path d="M24,12.8c2.7,0,4.9-2.2,4.9-4.9S26.7,3.1,24,3.1s-4.9,2.2-4.9,4.9S21.3,12.8,24,12.8z M24,4.6c1.8,0,3.3,1.5,3.3,3.3
		s-1.5,3.3-3.3,3.3s-3.3-1.5-3.3-3.3S22.2,4.6,24,4.6z"/>
</g>
</svg>