<!-- Generator: Adobe Illustrator 19.2.1, SVG Export Plug-In  -->
<svg version="1.1"
	 xmlns="http://www.w3.org/2000/svg" xmlns:xlink="http://www.w3.org/1999/xlink" xmlns:a="http://ns.adobe.com/AdobeSVGViewerExtensions/3.0/"
	 x="0px" y="0px" width="48px" height="48px" viewBox="0 0 48 48" style="enable-background:new 0 0 48 48;" xml:space="preserve">
<defs>
</defs>
<g>
	<path d="M41,7c-4.5-4.5-10.6-7-17-7S11.6,2.5,7,7c-4.5,4.5-7,10.6-7,17s2.5,12.4,7,17c4.5,4.5,10.6,7,17,7s12.4-2.5,17-7
		c4.5-4.5,7-10.6,7-17S45.5,11.6,41,7z M24,46.5C11.6,46.5,1.5,36.4,1.5,24S11.6,1.5,24,1.5S46.5,11.6,46.5,24S36.4,46.5,24,46.5z"
		/>
	<path d="M24,15.4c-0.4,0-0.8,0.3-0.8,0.8v3.1c0,0.4,0.3,0.8,0.8,0.8s0.8-0.3,0.8-0.8v-3.1C24.8,15.8,24.4,15.4,24,15.4z"/>
	<path d="M38.8,33.4c0.4,0,0.8-0.3,0.8-0.8c0-0.4-0.3-0.8-0.8-0.8h-2c-0.4,0-0.8,0.3-0.8,0.8c0,0.4,0.3,0.8,0.8,0.8H38.8z"/>
	<path d="M34.4,32.6c0-0.4-0.3-0.8-0.8-0.8H24c-0.4,0-0.8,0.3-0.8,0.8c0,0.4,0.3,0.8,0.8,0.8h9.7C34.1,33.4,34.4,33,34.4,32.6z"/>
	<path d="M44.8,26.6C44.8,26.6,44.8,26.5,44.8,26.6c0.1-0.9,0.2-1.7,0.2-2.6c0-0.2,0-0.3,0-0.5c0,0,0-0.1,0-0.1c0-0.1,0-0.1,0-0.1
		c-0.2-5.2-2.3-10-5.9-13.8c-0.3-0.3-0.7-0.3-1-0.1c-0.7,0.6-1.2,1.3-1.6,2.2c-0.1,0-0.3,0-0.4,0c-2.5,0-4.6,2.1-4.6,4.6
		c0,0.4,0.3,0.8,0.8,0.8s0.8-0.3,0.8-0.8c0-1.7,1.4-3.1,3.1-3.1c0.3,0,0.5,0,0.7,0.1c0.4,0.1,0.8-0.1,0.9-0.6
		c0.1-0.6,0.4-1.1,0.8-1.5c2.9,3.2,4.6,7.3,4.9,11.5h-4.9c-0.4,0-0.8,0.3-0.8,0.8c0,0.4,0.3,0.8,0.8,0.8h5c0,0.5,0,1-0.1,1.5h-7.2
		v-6.5c0-0.2-0.1-0.4-0.2-0.5c-0.1-0.1-0.3-0.2-0.5-0.2h-5.5v-7.4c0-0.4-0.3-0.8-0.8-0.8c-0.4,0-0.8,0.3-0.8,0.8v1.3h-1.9v-1.3
		c0-0.4-0.3-0.8-0.8-0.8s-0.8,0.3-0.8,0.8v1.3h-1.9v-1.3c0-0.4-0.3-0.8-0.8-0.8c-0.4,0-0.8,0.3-0.8,0.8v1.3h-1.9v-1.3
		c0-0.4-0.3-0.8-0.8-0.8c-0.4,0-0.8,0.3-0.8,0.8v14.6h-2.3c-1.8,0-3.4,1.3-3.8,3.1h-1.4c-0.4,0-0.8,0.3-0.8,0.8
		c0,0.4,0.3,0.8,0.8,0.8h5.1c0.4,0,0.8-0.3,0.8-0.8c0-0.4-0.3-0.8-0.8-0.8h-2.2c0.3-0.9,1.2-1.5,2.2-1.5h27.3
		c-0.1,0.5-0.2,1-0.3,1.5H18.9c-0.4,0-0.8,0.3-0.8,0.8c0,0.4,0.3,0.8,0.8,0.8h23.5c-2.6,7.6-9.9,13.1-18.4,13.1
		c-4.4,0-8.4-1.5-11.7-3.9H26c0.4,0,0.8-0.3,0.8-0.8c0-0.4-0.3-0.8-0.8-0.8h-1.4c-0.4-1.7-1.9-3.1-3.8-3.1h-13
		c-2.1-3.1-3.3-6.8-3.4-10.7l11.2,0c0.4,0,0.8-0.3,0.8-0.8c0-0.4-0.3-0.8-0.8-0.8l-8.1,0c0.3-1.3,1.6-2.3,3-2.3c0.3,0,0.5,0,0.7,0.1
		c0.4,0.1,0.8-0.1,0.9-0.6c0.4-1.6,1.8-2.8,3.5-2.9c0.4,0,0.7-0.4,0.7-0.8c0-0.4-0.4-0.7-0.8-0.7c-2.1,0.2-3.9,1.5-4.6,3.4
		c-0.1,0-0.3,0-0.4,0c-2.3,0-4.2,1.7-4.6,3.9H3.8c-0.4,0-0.8,0.3-0.8,0.7c0,0.1,0,0.3,0,0.4c0,0.1,0,0.1,0,0.2
		c0,4.5,1.4,8.7,3.8,12.1c0,0,0,0,0,0c3.8,5.3,10,8.8,17.1,8.8c9.5,0,17.6-6.4,20.1-15.2c0,0,0,0,0,0C44.4,28.7,44.6,27.7,44.8,26.6
		z M34.6,20v5.7h-4.7V20H34.6z M19.7,13.9h8.7v11.8h-8.7V13.9z M9.1,36.4h11.8c1,0,1.8,0.6,2.2,1.5H10.5C10,37.5,9.6,37,9.1,36.4z"
		/>
	<path d="M7.1,25.7c-0.4,0-0.8,0.3-0.8,0.8c0,0.4,0.3,0.8,0.8,0.8h3.5c0.4,0,0.8-0.3,0.8-0.8c0-0.4-0.3-0.8-0.8-0.8H7.1z"/>
	<path d="M29.1,38c-0.4,0-0.8,0.3-0.8,0.8c0,0.4,0.3,0.8,0.8,0.8h3.6c0.4,0,0.8-0.3,0.8-0.8c0-0.4-0.3-0.8-0.8-0.8H29.1z"/>
</g>
</svg>