<!-- Generator: Adobe Illustrator 19.2.1, SVG Export Plug-In  -->
<svg version="1.1"
	 xmlns="http://www.w3.org/2000/svg" xmlns:xlink="http://www.w3.org/1999/xlink" xmlns:a="http://ns.adobe.com/AdobeSVGViewerExtensions/3.0/"
	 x="0px" y="0px" width="18.6px" height="16px" viewBox="0 0 18.6 16" style="enable-background:new 0 0 18.6 16;"
	 xml:space="preserve">
<defs>
</defs>
<g>
	<g>
		<circle fill="#a0a0a0" cx="15.4" cy="1.7" r="1.7"/>
		<path fill="#a0a0a0" d="M16.5,3.7c-0.1,0-0.1-0.1-0.2-0.1c-0.2-0.1-0.3-0.1-0.5-0.2l-0.4,0.4L15,3.4c0,0,0,0,0,0c-0.2,0.1-0.4,0.1-0.6,0.3
			c0,0-0.1,0-0.1,0c-1.3,0.8-2,2.4-2.9,4.4c-0.1,0.2-0.1,0.5,0.1,0.7c-0.5,0.4-0.7,0.3-1.3,0c-0.1,0-0.1-0.1-0.2-0.1
			c0,0-0.1,0-0.1,0C9.8,8.5,9.7,8.5,9.6,8.4L9.4,8.7L9.1,8.4c0,0,0,0,0,0c-0.2,0-0.4,0.1-0.5,0.3C8.1,9,7.8,9.2,7.4,8.8
			c0.2-0.2,0.3-0.4,0.2-0.7c-0.8-2.8-2-3.8-3.2-4.5c0,0-0.1,0-0.1,0C4.1,3.5,3.9,3.4,3.7,3.4c0,0,0,0,0,0L3.3,3.8L2.9,3.4
			C2.7,3.5,2.5,3.6,2.3,3.7c0,0,0,0,0,0C1.1,4.4,0,5.4,0,8.4C0,8.8,0.3,9,0.6,9c0,0,0,0,0,0C1,9,1.3,8.7,1.3,8.4
			c0-1.1,0.1-1.8,0.4-2.3v1.2C1.5,8,0.7,11.3,0.7,11.8c0,0.3,0.5,0.5,1.1,0.6l0,2.8c0,0.4,0.3,0.8,0.8,0.8c0.4,0,0.8-0.3,0.8-0.8
			v-2.6c0,0,0.1,0,0.1,0l0,2.6c0,0.4,0.3,0.8,0.8,0.8h0c0.4,0,0.8-0.3,0.8-0.8l0-2.8c0.5-0.1,0.8-0.4,0.9-0.7C5.9,10.8,5.2,8,5,7.3
			V5.8c0.5,0.6,1,1.4,1.4,2.8c0,0.1,0.1,0.2,0.2,0.3C6.5,9,6.5,9.1,6.6,9.3c0.5,0.4,0.9,0.6,1.2,0.6c0.1,0,0.3,0,0.4-0.1v0.5
			c0,0-0.4,2.8-0.9,2.9h0.9l0,2.3c0,0.3,0.2,0.5,0.5,0.5c0.3,0,0.5-0.2,0.5-0.5l0-2.3h0.1l0,2.3c0,0.3,0.2,0.5,0.5,0.5
			c0.3,0,0.5-0.2,0.5-0.5l0-2.3h1c-0.5-0.1-0.9-2.9-0.9-2.9l0,0V9.8c0.2,0.1,0.3,0.1,0.5,0.1c0.4,0,0.8-0.2,1.2-0.6
			c0.1-0.1,0.1-0.2,0.1-0.4c0.1-0.1,0.2-0.2,0.3-0.3c0.4-0.9,0.8-1.7,1.2-2.4v2.2c0,0.2,0,0.3,0.1,0.5c0,0,0,0.1,0,0.1l0,6.1
			c0,0.4,0.3,0.8,0.8,0.8c0.4,0,0.8-0.3,0.8-0.8l0-5.3c0,0,0.1,0,0.1,0c0,0,0,0,0,0v5.3c0,0.4,0.3,0.8,0.8,0.8h0
			c0.4,0,0.8-0.3,0.8-0.8l0-6.1c0.1-0.2,0.2-0.4,0.2-0.6V6.1c0.2,0.5,0.3,1.2,0.2,2.1c0,0.4,0.2,0.7,0.6,0.7c0,0,0,0,0.1,0
			c0.3,0,0.6-0.2,0.6-0.6C18.8,5.5,17.7,4.4,16.5,3.7z"/>
		<circle fill="#a0a0a0" cx="9.4" cy="7.3" r="1.1"/>
		<circle fill="#a0a0a0" cx="3.3" cy="1.7" r="1.7"/>
	</g>
</g>
</svg>
