<!-- Generator: Adobe Illustrator 19.2.1, SVG Export Plug-In  -->
<svg version="1.1"
	 xmlns="http://www.w3.org/2000/svg" xmlns:xlink="http://www.w3.org/1999/xlink" xmlns:a="http://ns.adobe.com/AdobeSVGViewerExtensions/3.0/"
	 x="0px" y="0px" width="21px" height="21px" viewBox="0 0 21 21" style="enable-background:new 0 0 21 21;" xml:space="preserve">
<defs>
</defs>
<path fill="#FFF" d="M20.8,2.5c0.3,0.3,0.3,0.8,0,1.1l-6.3,6.3c-0.3,0.3-0.3,0.8,0,1.1l6.3,6.3c0.3,0.3,0.3,0.8,0,1.1l-2.3,2.3
	c-0.3,0.3-0.8,0.3-1.1,0l-6.3-6.3c-0.3-0.3-0.8-0.3-1.1,0l-6.3,6.3c-0.3,0.3-0.8,0.3-1.1,0l-2.3-2.3c-0.3-0.3-0.3-0.8,0-1.1l6.3-6.3
	c0.3-0.3,0.3-0.8,0-1.1L0.2,3.7c-0.3-0.3-0.3-0.8,0-1.1l2.3-2.3c0.3-0.3,0.8-0.3,1.1,0l6.3,6.3c0.3,0.3,0.8,0.3,1.1,0l6.3-6.3
	c0.3-0.3,0.8-0.3,1.1,0L20.8,2.5z"/>
</svg>
