<!-- Generator: Adobe Illustrator 19.2.1, SVG Export Plug-In  -->
<svg version="1.1"
	 xmlns="http://www.w3.org/2000/svg" xmlns:xlink="http://www.w3.org/1999/xlink" xmlns:a="http://ns.adobe.com/AdobeSVGViewerExtensions/3.0/"
	 x="0px" y="0px" width="41.8px" height="25px" viewBox="0 0 41.8 25" style="enable-background:new 0 0 41.8 25;"
	 xml:space="preserve">
<g>
	<path fill="#FFF" d="M19.6,11.6c-0.7,0-0.9,0.8-0.9,0.9h1.5C20.2,12.4,20.3,11.6,19.6,11.6z"/>
	<path fill="#FFF" d="M40.4,15.3C40.4,15.2,40.4,15.2,40.4,15.3C40.4,15.2,40.4,15.2,40.4,15.3c0-0.1,0-0.1,0-0.1c0,0,0,0-0.1,0
		h-0.1v0.1L40.4,15.3C40.4,15.3,40.4,15.3,40.4,15.3z"/>
	<path fill="#FFF" d="M40,15.1c0,0.1,0,0.1,0,0.2c0,0.1,0,0.1,0,0.2c0,0.1,0.1,0.1,0.1,0.1c0.1,0,0.1,0,0.2,0c0.1,0,0.1,0,0.2,0
		c0.1,0,0.1-0.1,0.1-0.1c0-0.1,0-0.1,0-0.2c0-0.1,0-0.1,0-0.2c0-0.1-0.1-0.1-0.1-0.1c-0.1,0-0.1,0-0.2,0c-0.1,0-0.1,0-0.2,0
		C40.1,15,40.1,15.1,40,15.1z M40.4,15.1C40.4,15.1,40.5,15.1,40.4,15.1c0.1,0.1,0.1,0.1,0.1,0.1c0,0,0,0.1,0,0.1c0,0-0.1,0-0.1,0
		c0,0,0,0,0,0c0,0,0,0,0.1,0.1l0.1,0.1h-0.1l0-0.1c0-0.1-0.1-0.1-0.1-0.1c0,0,0,0-0.1,0h0v0.2h-0.1v-0.4h0.2
		C40.4,15.1,40.4,15.1,40.4,15.1z"/>
	<path fill="#FFF" d="M8.3,14.2c0,0.2,0.1,0.5,0.5,0.5c0.8,0,1-1,0.9-1.3c0,0-0.1,0-0.3,0C8.5,13.4,8.3,13.8,8.3,14.2z"/>
	<path fill="#FFF" d="M29.9,14.2c0,0.2,0.1,0.5,0.5,0.5c0.8,0,1-1,0.9-1.3c0,0-0.1,0-0.3,0C30.1,13.4,29.9,13.8,29.9,14.2z"/>
	<path fill="#FFF" d="M29.3,0c-3.2,0-6.2,1.2-8.4,3.2c-2.2-2-5.2-3.2-8.4-3.2c0,0-0.1,0-0.1,0C5.6,0,0,5.6,0,12.5
		C0,19.4,5.6,25,12.5,25c3.2,0,6.2-1.2,8.4-3.2c2.2,2,5.2,3.2,8.4,3.2c6.9,0,12.5-5.6,12.5-12.5c0,0,0,0,0,0C41.8,5.6,36.2,0,29.3,0
		z M19.7,4.5h2.4c0.4,0.4,0.7,0.9,1,1.3h-4.2C19.1,5.4,19.4,5,19.7,4.5z M18.1,7.2h5.7c0.2,0.4,0.4,0.9,0.5,1.3h-6.9
		C17.5,8.4,17.7,7.9,18.1,7.2z M5.1,15.7l0.8-4.8l-1.7,4.8H3.2l-0.1-4.8l-0.8,4.8H1l1.1-6.3H4l0.1,3.9l1.3-3.9h2.1l-1,6.3H5.1z
		 M9.6,15.7l0-0.5c0,0-0.4,0.6-1.4,0.6c-0.5,0-1.3-0.3-1.3-1.4c0-1.5,1.2-2,2.4-2c0.2,0,0.6,0,0.6,0s0-0.1,0-0.3
		c0-0.4-0.4-0.5-0.9-0.5c-0.9,0-1.5,0.2-1.5,0.2l0.2-1.1c0,0,0.7-0.3,1.6-0.3c0.5,0,1.8,0.1,1.8,1.6l-0.5,3.7H9.6z M14.6,14.1
		c0,1.8-1.7,1.7-2,1.7c-1.1,0-1.5-0.2-1.5-0.2l0.2-1.2c0,0,0.6,0.2,1.2,0.2c0.4,0,0.8,0,0.8-0.5c0-0.6-1.7-0.5-1.7-2
		c0-1.3,1-1.7,2-1.7c0.8,0,1.2,0.1,1.2,0.1l-0.2,1.2c0,0-0.7-0.1-0.9-0.1c-0.5,0-0.7,0.1-0.7,0.4C13,12.7,14.6,12.4,14.6,14.1z
		 M16.6,14.5c0.1,0,0.3,0,0.3,0l-0.2,1.1c-0.1,0-0.5,0.2-1,0.2c-0.6,0-1.1-0.3-1.1-1.1c0-0.5,0.8-4.9,0.8-4.9h1.3l-0.1,0.8h0.7
		l-0.2,1.3h-0.7l-0.4,2.3C16.1,14.3,16.2,14.5,16.6,14.5z M19.6,10.4c1.5,0,1.9,1.1,1.9,1.9c0,0.4-0.2,1.2-0.2,1.2h-2.7
		c0,0-0.2,1.1,1.2,1.1c0.7,0,1.4-0.3,1.4-0.3l-0.2,1.3c0,0-0.4,0.2-1.4,0.2c-1.1,0-2.3-0.4-2.3-2.3C17.2,11.8,18.2,10.4,19.6,10.4z
		 M20.9,21.7L20.9,21.7C20.9,21.7,20.9,21.7,20.9,21.7C20.9,21.7,20.9,21.8,20.9,21.7c-0.5-0.4-0.9-0.9-1.3-1.3h2.6
		C21.8,20.9,21.4,21.3,20.9,21.7z M23.1,19.1h-4.4c-0.3-0.4-0.5-0.9-0.7-1.3h5.9C23.6,18.2,23.4,18.7,23.1,19.1z M22.8,15.7h-1.4
		l0.8-5.2h1.2l-0.1,0.7c0,0,0.4-0.8,1-0.8c0.2,0,0.3,0,0.3,0c-0.2,0.4-0.3,0.7-0.5,1.5C23.3,11.7,23.2,13.5,22.8,15.7z M28,15.6
		c0,0-0.7,0.2-1.2,0.2c-1.6,0-2.4-1.1-2.4-2.8c0-2.5,1.5-3.8,3-3.8c0.7,0,1.5,0.3,1.5,0.3l-0.2,1.4c0,0-0.5-0.4-1.2-0.4
		c-0.9,0-1.7,0.9-1.7,2.4c0,0.8,0.4,1.5,1.3,1.5c0.4,0,1.1-0.3,1.1-0.3L28,15.6z M31.2,15.7l0-0.5c0,0-0.4,0.6-1.4,0.6
		c-0.5,0-1.3-0.3-1.3-1.4c0-1.5,1.2-2,2.4-2c0.2,0,0.6,0,0.6,0s0-0.1,0-0.3c0-0.4-0.4-0.5-0.9-0.5c-0.9,0-1.5,0.2-1.5,0.2l0.2-1.1
		c0,0,0.7-0.3,1.6-0.3c0.5,0,1.8,0.1,1.8,1.6l-0.5,3.7H31.2z M34,15.7h-1.4l0.8-5.2h1.2l-0.1,0.7c0,0,0.4-0.8,1-0.8
		c0.2,0,0.3,0,0.3,0c-0.2,0.4-0.3,0.7-0.5,1.5C34.4,11.7,34.4,13.5,34,15.7z M40.7,15.1c0,0.1,0.1,0.1,0.1,0.2c0,0.1,0,0.1-0.1,0.2
		c0,0.1-0.1,0.1-0.1,0.2c-0.1,0-0.1,0.1-0.2,0.1c-0.1,0-0.1,0-0.2-0.1c-0.1,0-0.1-0.1-0.1-0.2c0-0.1-0.1-0.1-0.1-0.2
		c0-0.1,0-0.1,0.1-0.2c0-0.1,0.1-0.1,0.2-0.1c0.1,0,0.1-0.1,0.2-0.1c0.1,0,0.1,0,0.2,0.1C40.6,15,40.6,15,40.7,15.1z M38.7,11.1
		L39,9.4l1.3,0l-1,6.3h-1.3l0.1-0.5c0,0-0.4,0.6-1.2,0.6c-1.1,0-1.6-1.1-1.6-2.2c0-1.7,1-3.2,2.2-3.2C38.2,10.4,38.7,11.1,38.7,11.1
		z"/>
	<path fill="#FFF" d="M36.6,13.4c0,0.6,0.2,1,0.7,1c0.7,0,1.1-0.9,1.1-1.6c0-0.8-0.2-1.1-0.7-1.1C37.1,11.7,36.6,12.4,36.6,13.4z"/>
</g>
</svg>
