<!-- Generator: Adobe Illustrator 19.2.1, SVG Export Plug-In  -->
<svg version="1.1"
	 xmlns="http://www.w3.org/2000/svg" xmlns:xlink="http://www.w3.org/1999/xlink" xmlns:a="http://ns.adobe.com/AdobeSVGViewerExtensions/3.0/"
	 x="0px" y="0px" width="100px" height="25px" viewBox="0 0 100 25" style="enable-background:new 0 0 100 25;"
	 xml:space="preserve">
<g>
	<g>
		<path fill-rule="evenodd" clip-rule="evenodd" fill="#FFFFFF" d="M87.4,0c2,0,3.8,0.5,5.5,1.3c0.3,0.1,0.5,0.3,0.8,0.4l-1.2,1l-1.7-1.8l-2.9,2.6l-1.7-1.9l-5.4,4.9l3.5,3.8
			l-1.4,1.2l3.4,3.8l-1.4,1.2l4.9,5.5l2.9-2.7l2.5,2.9c-0.5,0.4-1,0.8-1.6,1.1c-1.8,1-3.9,1.6-6.2,1.6c-6.9,0-12.5-5.6-12.5-12.5
			C74.9,5.6,80.5,0,87.4,0L87.4,0z"/>
		<polygon fill-rule="evenodd" clip-rule="evenodd" fill="#FFFFFF" points="85.1,11.7 88.1,9 90.8,12 87.8,14.7 85.1,11.7 		"/>
		<polygon fill-rule="evenodd" clip-rule="evenodd" fill="#FFFFFF" points="87.2,16.8 90.2,14.2 92.9,17.1 89.9,19.8 87.2,16.8 		"/>
		<polygon fill-rule="evenodd" clip-rule="evenodd" fill="#FFFFFF" points="83,6.6 86,4 88.6,6.9 85.7,9.6 83,6.6 		"/>
		<polygon fill-rule="evenodd" clip-rule="evenodd" fill="#FFFFFF" points="88.4,5.2 90.7,3.2 92.7,5.4 90.4,7.4 88.4,5.2 		"/>
		<polygon fill-rule="evenodd" clip-rule="evenodd" fill="#FFFFFF" points="92.4,14.4 94.6,12.4 96.6,14.6 94.4,16.6 92.4,14.4 		"/>
		<polygon fill-rule="evenodd" clip-rule="evenodd" fill="#FFFFFF" points="94.4,18.9 96.6,16.9 98.6,19.1 96.4,21.1 94.4,18.9 		"/>
		<polygon fill-rule="evenodd" clip-rule="evenodd" fill="#FFFFFF" points="95.3,8.6 96.7,7.2 98.1,8.7 96.6,10.1 95.3,8.6 		"/>
		<polygon fill-rule="evenodd" clip-rule="evenodd" fill="#FFFFFF" points="93.4,4.2 94.8,2.8 96.2,4.3 94.7,5.6 93.4,4.2 		"/>
		<polygon fill-rule="evenodd" clip-rule="evenodd" fill="#FFFFFF" points="97.2,13 98.6,11.6 100,13.1 98.5,14.5 97.2,13 		"/>
		<polygon fill-rule="evenodd" clip-rule="evenodd" fill="#FFFFFF" points="90.5,9.7 92.7,7.7 94.7,9.9 92.5,11.9 90.5,9.7 		"/>
	</g>
	<g>
		<path fill="#FFFFFF" d="M5.8,10.3L5.8,10.3l-2,7.1H2.3L0,7.4h1.6l1.6,7.5h0.1l1.9-7.5h1.3l2,7.5h0.1L10,7.4h1.7L9.3,17.5H7.8
			L5.8,10.3z"/>
		<path fill="#FFFFFF" d="M17.9,15.9V17c-0.6,0.4-1.5,0.7-2.5,0.7c-2.4,0-3.4-1.5-3.4-3.7c0-2.2,1.1-3.7,3.2-3.7c1.8,0,2.9,1.2,2.9,3.5
			v0.5h-4.6c0,1.7,0.7,2.5,2.2,2.5C16.4,16.6,17.2,16.4,17.9,15.9z M13.5,13.2h3.3c-0.1-1.5-0.8-2.1-1.6-2.1
			C14.4,11.1,13.7,11.8,13.5,13.2z"/>
		<path fill="#FFFFFF" d="M20.9,10.7c0.4-0.2,1.2-0.5,1.9-0.5c1.8,0,2.7,1.2,2.7,3.5c0,2.7-1.3,4-3.4,4c-0.8,0-1.9-0.2-2.8-0.7V7
			l1.5-0.4V10.7z M20.9,16.4c0.5,0.2,1,0.2,1.3,0.2c1.1,0,1.9-0.7,1.9-3c0-1.8-0.7-2.4-1.6-2.4c-0.6,0-1,0.2-1.6,0.5V16.4z"/>
		<path fill="#FFFFFF" d="M32.1,15.3L32.1,15.3l3.1-8H37v10.1h-1.5v-7.3h-0.1l-2.9,7.3h-0.9l-2.9-7.2h-0.1v7.2h-1.3V7.4h1.7L32.1,15.3z
			"/>
		<path fill="#FFFFFF" d="M38.5,13.9c0-2.5,1.4-3.7,3.3-3.7c1.9,0,3.3,1.2,3.3,3.7c0,2.4-1.3,3.7-3.3,3.7
			C39.8,17.6,38.5,16.3,38.5,13.9z M43.5,13.9c0-1.9-0.8-2.7-1.8-2.7c-0.9,0-1.8,0.8-1.8,2.7c0,2,0.7,2.7,1.8,2.7
			C42.8,16.6,43.5,15.9,43.5,13.9z"/>
		<path fill="#FFFFFF" d="M46.4,11.2c0.6-0.4,2-1.1,3.6-1.1c1.7,0,2.4,0.7,2.4,2.1v5.2h-1.5v-4.8c0-1.1-0.6-1.3-1.3-1.3
			c-0.6,0-1.3,0.3-1.7,0.5v5.6h-1.5V11.2z"/>
		<path fill="#FFFFFF" d="M59.6,15.9V17c-0.6,0.4-1.5,0.7-2.5,0.7c-2.4,0-3.4-1.5-3.4-3.7c0-2.2,1.1-3.7,3.2-3.7c1.8,0,2.9,1.2,2.9,3.5
			v0.5h-4.6c0,1.7,0.7,2.5,2.2,2.5C58.1,16.6,58.8,16.4,59.6,15.9z M55.2,13.2h3.3c-0.1-1.5-0.8-2.1-1.6-2.1
			C56,11.1,55.4,11.8,55.2,13.2z"/>
		<path fill="#FFFFFF" d="M65.4,10.4h1.5l-2.6,7.1c-0.7,2-1.6,3-3.2,3v-1.2c1,0,1.6-0.8,1.9-1.8l-2.7-7.1h1.6l1.8,5.2h0.1L65.4,10.4z"
			/>
	</g>
</g>
</svg>
