<!-- Generator: Adobe Illustrator 19.2.1, SVG Export Plug-In  -->
<svg version="1.1"
	 xmlns="http://www.w3.org/2000/svg" xmlns:xlink="http://www.w3.org/1999/xlink" xmlns:a="http://ns.adobe.com/AdobeSVGViewerExtensions/3.0/"
	 x="0px" y="0px" width="45.3px" height="25px" viewBox="0 0 45.3 25" style="enable-background:new 0 0 45.3 25;"
	 xml:space="preserve">
<g>
	<path fill="#FFF" d="M3.3,25c9.2-4,22.2-7.6,39.4-4l0.2-4.4c-18.1-2-31.1,3.8-39.6,7.9L3.3,25L3.3,25z"/>
	<polygon fill="#FFF" points="13,13.5 17,0.3 20.5,0.3 16.5,13.5 	"/>
	<path fill="#FFF" d="M11.4,0.3L8.1,5.9C7.3,7.4,6.8,8.1,6.6,9h0c0.1-1.2-0.1-2.6-0.1-3.4L6.1,0.3h-6L0,0.6c1.5,0,2.5,0.8,2.7,2.4
		l1.2,10.5h3.7l7.5-13.2H11.4L11.4,0.3z"/>
	<path fill="#FFF" d="M39.2,13.5l-0.1-2l-4.5,0l-0.9,2h-3.9l7-13.2h4.8l1.2,13.2L39.2,13.5L39.2,13.5z M38.8,5.7c0-1-0.1-2.3,0-3.1
		h-0.1c-0.2,0.7-1.2,2.6-1.6,3.6l-1.3,2.9h3.1L38.8,5.7L38.8,5.7z"/>
	<path fill="#FFF" d="M24.3,13.9c-2.5,0-4.2-0.8-5.4-1.5l1.7-2.6c1.1,0.6,1.9,1.3,3.9,1.3c0.6,0,1.2-0.2,1.6-0.8
		c0.5-0.9-0.1-1.3-1.5-2.1l-0.7-0.4c-2.1-1.4-3-2.8-2-5.1c0.6-1.5,2.3-2.6,5-2.6c1.9,0,3.6,0.8,4.6,1.6l-2,2.3
		c-1-0.8-1.8-1.2-2.8-1.2c-0.8,0-1.3,0.3-1.5,0.7c-0.4,0.7,0.1,1.2,1.2,1.9l0.8,0.5c2.5,1.6,3.1,3.2,2.5,4.8
		C28.6,13.3,26.5,13.9,24.3,13.9L24.3,13.9z"/>
	<path fill="#FFF" d="M43.8,2.3h-0.2V0.9h0.5c0.3,0,0.5,0.1,0.5,0.4c0,0.3-0.2,0.4-0.4,0.4l0.4,0.6h-0.3L44,1.7h-0.2L43.8,2.3
		L43.8,2.3z M44,1.5c0.2,0,0.3,0,0.3-0.2c0-0.2-0.2-0.2-0.3-0.2h-0.3v0.4H44L44,1.5z M44,2.9c-0.7,0-1.3-0.6-1.3-1.3
		c0-0.8,0.6-1.3,1.3-1.3c0.7,0,1.3,0.5,1.3,1.3C45.3,2.4,44.7,2.9,44,2.9L44,2.9z M44,0.5c-0.6,0-1,0.4-1,1.1c0,0.6,0.4,1.1,1,1.1
		c0.6,0,1-0.4,1-1.1C45,1,44.6,0.5,44,0.5L44,0.5z"/>
</g>
</svg>
