<!-- Generator: Adobe Illustrator 19.2.1, SVG Export Plug-In  -->
<svg version="1.1"
	 xmlns="http://www.w3.org/2000/svg" xmlns:xlink="http://www.w3.org/1999/xlink" xmlns:a="http://ns.adobe.com/AdobeSVGViewerExtensions/3.0/"
	 x="0px" y="0px" width="95.2px" height="25px" viewBox="0 0 95.2 25" style="enable-background:new 0 0 95.2 25;"
	 xml:space="preserve">
<g>
	<path fill="#FFFFFF" d="M72.8,6.6h-5.4c-0.4,0-0.7,0.3-0.7,0.6L64.5,21c0,0.3,0.2,0.5,0.4,0.5h2.8c0.3,0,0.5-0.2,0.5-0.4l0.6-3.9
		c0.1-0.4,0.4-0.6,0.7-0.6h1.7c3.5,0,5.6-1.7,6.1-5.1c0.3-1.5,0-2.6-0.7-3.5C75.9,7.1,74.6,6.6,72.8,6.6 M73.4,11.6
		c-0.3,1.9-1.8,1.9-3.2,1.9h-0.8L70,10c0-0.2,0.2-0.4,0.4-0.4h0.4c1,0,1.9,0,2.3,0.5C73.4,10.5,73.5,11,73.4,11.6 M34.5,6.6h-5.4
		c-0.4,0-0.7,0.3-0.7,0.6L26.3,21c0,0.3,0.2,0.5,0.5,0.5h2.6c0.4,0,0.7-0.3,0.7-0.6l0.6-3.7c0.1-0.4,0.4-0.6,0.7-0.6H33
		c3.5,0,5.6-1.7,6.1-5.1c0.2-1.5,0-2.6-0.7-3.5C37.7,7.1,36.3,6.6,34.5,6.6 M35.1,11.6c-0.3,1.9-1.8,1.9-3.2,1.9h-0.8l0.6-3.6
		c0-0.2,0.2-0.4,0.5-0.4h0.4c1,0,1.9,0,2.3,0.5C35.2,10.5,35.2,11,35.1,11.6 M50.6,11.6H48c-0.2,0-0.4,0.2-0.4,0.4l-0.1,0.7
		l-0.2-0.3c-0.6-0.8-1.8-1.1-3-1.1c-2.8,0-5.3,2.2-5.7,5.2c-0.3,1.5,0.1,2.9,0.9,3.9c0.8,0.9,1.9,1.3,3.3,1.3c2.3,0,3.5-1.5,3.5-1.5
		L46.1,21c0,0.3,0.2,0.5,0.4,0.5h2.3c0.4,0,0.7-0.3,0.7-0.6l1.4-8.8C51.1,11.8,50.8,11.6,50.6,11.6 M47,16.6
		c-0.3,1.5-1.4,2.5-2.9,2.5c-0.8,0-1.4-0.2-1.7-0.7c-0.4-0.4-0.5-1.1-0.4-1.8c0.2-1.5,1.4-2.5,2.9-2.5c0.7,0,1.3,0.2,1.7,0.7
		C46.9,15.2,47.1,15.9,47,16.6 M88.8,11.6h-2.6c-0.2,0-0.4,0.2-0.4,0.4l-0.1,0.7l-0.2-0.3c-0.6-0.8-1.8-1.1-3-1.1
		c-2.9,0-5.3,2.2-5.7,5.2c-0.3,1.5,0.1,2.9,0.9,3.9c0.8,0.9,1.9,1.3,3.2,1.3c2.3,0,3.6-1.5,3.6-1.5L84.4,21
		c-0.1,0.3,0.2,0.5,0.4,0.5h2.3c0.4,0,0.7-0.3,0.8-0.6l1.4-8.8C89.3,11.8,89.1,11.6,88.8,11.6 M85.3,16.6C85,18.1,83.8,19,82.3,19
		c-0.7,0-1.3-0.2-1.7-0.7c-0.4-0.4-0.5-1.1-0.4-1.8c0.2-1.5,1.4-2.5,2.9-2.5c0.7,0,1.3,0.2,1.7,0.7C85.2,15.2,85.4,15.9,85.3,16.6
		 M64.2,11.6h-2.6c-0.2,0-0.5,0.1-0.6,0.3l-3.6,5.2l-1.5-5c-0.1-0.3-0.4-0.5-0.7-0.5h-2.5c-0.3,0-0.5,0.3-0.4,0.6l2.9,8.3l-2.7,3.8
		c-0.2,0.3,0,0.7,0.4,0.7h2.6c0.2,0,0.5-0.1,0.6-0.3l8.6-12.4C64.8,12,64.6,11.6,64.2,11.6 M91.9,7l-2.2,14c0,0.3,0.2,0.5,0.4,0.5
		h2.2c0.4,0,0.7-0.3,0.7-0.6l2.2-13.8c0-0.3-0.2-0.5-0.4-0.5h-2.5C92.1,6.6,91.9,6.8,91.9,7"/>
	<path fill="#FFFFFF" d="M19,6.8c-1,5.3-4.5,7.1-9,7.1H7.7c-0.5,0-1,0.4-1.1,0.9l-1.5,9.5C5.1,24.7,5.4,25,5.7,25h4
		c0.5,0,0.9-0.3,1-0.8l0-0.2l0.8-4.8l0-0.3c0.1-0.5,0.5-0.8,1-0.8h0.6c3.9,0,7-1.6,7.9-6.2c0.4-1.9,0.2-3.5-0.8-4.7
		c-0.3-0.3-0.7-0.6-1.1-0.9C19.1,6.5,19,6.7,19,6.8L19,6.8z"/>
	<path fill="#FFFFFF" d="M8,6.4C8,6.1,8.2,5.8,8.5,5.7c0.1-0.1,0.3-0.1,0.4-0.1H15c0.7,0,1.4,0,2,0.1c0.2,0,0.3,0.1,0.5,0.1
		c0.2,0,0.3,0.1,0.5,0.1c0.1,0,0.2,0,0.2,0.1c0.3,0.1,0.6,0.2,0.8,0.4c-0.1,0-0.1,0-0.1,0s0,0,0.1,0c0,0,0,0,0,0
		c0.3-1.9,0-3.3-1.1-4.5C16.9,0.6,14.8,0,12.1,0H4.3c-0.5,0-1,0.4-1.1,0.9L0,21.5c-0.1,0.4,0.2,0.8,0.7,0.8h4.8l1.2-7.6l0,0.2
		c0,0,0,0,0,0l0-0.2L8,6.4z"/>
	<path fill="#FFFFFF" d="M19.1,6.4c0,0.1,0,0.3-0.1,0.5c-1,5.3-4.5,7.1-9,7.1h0c4.5,0,8-1.8,9-7.1C19,6.7,19.1,6.5,19.1,6.4
		C19.1,6.4,19.1,6.4,19.1,6.4C19.1,6.4,19.1,6.4,19.1,6.4z"/>
	<path fill="#FFFFFF" d="M6.6,14.8L6.6,14.8C6.7,14.4,7,14.1,7.3,14C7,14.1,6.7,14.4,6.6,14.8z"/>
	<path fill="#FFFFFF" opacity="0.5" d="M19,6.8c0-0.2,0.1-0.3,0.1-0.5c0,0,0,0,0,0c-0.3-0.1-0.5-0.3-0.8-0.4c-0.1,0-0.2,0-0.2-0.1
		c-0.2,0-0.3-0.1-0.5-0.1c-0.2,0-0.3-0.1-0.5-0.1c-0.6-0.1-1.3-0.1-2-0.1H8.9c-0.2,0-0.3,0-0.4,0.1C8.2,5.8,8,6.1,8,6.4l-1.3,8.2
		l0,0.2C6.7,14.4,7,14.1,7.3,14c0.1,0,0.3-0.1,0.4-0.1H10C14.5,13.9,18,12.1,19,6.8z"/>
	<polygon fill="#FFFFFF" points="19.1,6.4 19.1,6.4 19.1,6.3 	"/>
</g>
</svg>