<!-- Generator: Adobe Illustrator 19.2.1, SVG Export Plug-In  -->
<svg version="1.1"
	 xmlns="http://www.w3.org/2000/svg" xmlns:xlink="http://www.w3.org/1999/xlink" xmlns:a="http://ns.adobe.com/AdobeSVGViewerExtensions/3.0/"
	 x="0px" y="0px" width="612px" height="600.8px" viewBox="0 0 612 600.8" style="enable-background:new 0 0 612 600.8;"
	 xml:space="preserve">
<defs>
</defs>
<g>
	<path fill="#F07C51" d="M257.9,330.5c0,17.4-14.1,31.4-31.4,31.4c-17.4,0-31.4-14.1-31.4-31.4c0-17.4,14.1-31.4,31.4-31.4
		C243.9,299.1,257.9,313.1,257.9,330.5z M385.5,299.1c-17.4,0-31.4,14.1-31.4,31.4c0,17.4,14.1,31.4,31.4,31.4s31.4-14.1,31.4-31.4
		C416.9,313.1,402.8,299.1,385.5,299.1z M612,313v59.7c0,30-24.3,54.3-54.3,54.3h-39.4c-39,108.4-138.7,173.8-212.3,173.8
		S132.7,535.4,93.7,427H54.3C24.3,427,0,402.7,0,372.7V313c0-20.6,11.5-38.6,28.5-47.8c0.6-84.8,25.3-151,73.6-196.8
		C149.9,23,218.5,0,306,0s156.1,23,204,68.4c48.3,45.8,73,112,73.6,196.8C600.5,274.4,612,292.3,612,313z M497.1,330.7
		c0-14-0.7-27.1-1.8-39.8c-24.1-22-67.8-38.8-123-45c7.2,8.1,13.5,18.9,17.3,33c-33.8-26.6-100.2-20.3-150.4-79.9
		c-2.9-3.3-5.4-6.5-7.5-9.4c0,0-0.1-0.1-0.1-0.1l0,0c-8.9-12.1-12-19.3-12.1-11.3c-1.5,68.5-50,121.9-104,129.5
		c-0.3,7.5-0.6,15.1-0.6,23.1c0,29,4.7,55.4,12.8,79.1c30.3,36.5,80.3,46.9,124.6,49.6c8.2-13.1,26.7-22.2,48.1-22.2
		c29.1,0,52.7,16.8,52.7,37.4c0,20.7-23.6,37.4-52.7,37.4c-22.4,0-41.5-9.9-49.1-23.9c-30.9-1.8-65-7.1-95.3-21.4
		c42.6,62.8,108.7,96.1,150,96.1C370.9,562.8,497.1,480.9,497.1,330.7z M550.9,258.7C547.4,110.7,463,32.6,306,32.6
		S64.6,110.7,61.1,258.7H82c7.6-49.9,23.8-90.9,48.3-122.4C169.4,86,228.5,60.5,306,60.5S442.6,86,481.7,136.3
		c24.5,31.5,40.6,72.5,48.3,122.4L550.9,258.7L550.9,258.7z"/>
</g>
</svg>
