<?xml version="1.0" encoding="utf-8"?>
<!-- Generator: Adobe Illustrator 19.2.1, SVG Export Plug-In . SVG Version: 6.00 Build 0)  -->
<svg version="1.1" id="Layer_1" xmlns="http://www.w3.org/2000/svg" xmlns:xlink="http://www.w3.org/1999/xlink" x="0px" y="0px"
	 viewBox="0 0 70 70" style="enable-background:new 0 0 70 70;" xml:space="preserve">
<g>
	<circle fill="#F07C51" cx="35" cy="35" r="35"/>
	<g>
		<g>
			<circle fill="#FFFFFF" cx="35" cy="26.4" r="6.4"/>
			<path fill="#FFFFFF" d="M37.7,33.2h-5.4c-4.5,0-8.2,3.7-8.2,8.2V48l0,0.1l0.5,0.1c4.3,1.3,8,1.8,11.1,1.8c6,0,9.5-1.7,9.7-1.8
				l0.4-0.2h0v-6.6C45.9,36.8,42.2,33.2,37.7,33.2z M36.3,46l-1.2,1.7c0,0,0,0-0.1,0c0,0,0,0,0,0c0,0-0.1,0-0.1,0L33.9,46
				c0,0,0,0,0-0.1l0.5-8.3c0,0,0-0.1,0.1-0.1h1.1c0,0,0.1,0,0.1,0.1L36.3,46C36.3,46,36.3,46,36.3,46z M35.7,37.3h-1.3l-1.2-2.4
				c0-0.2,0.2-0.4,0.4-0.4h2.8c0.2,0,0.4,0.2,0.4,0.4L35.7,37.3z"/>
		</g>
	</g>
</g>
</svg>
