<?xml version="1.0" encoding="utf-8"?>
<!-- Generator: Adobe Illustrator 19.2.1, SVG Export Plug-In . SVG Version: 6.00 Build 0)  -->
<svg version="1.1" id="Layer_1" xmlns="http://www.w3.org/2000/svg" xmlns:xlink="http://www.w3.org/1999/xlink" x="0px" y="0px"
	 viewBox="0 0 70 70" style="enable-background:new 0 0 70 70;" xml:space="preserve">
<g>
	<circle fill="#F07C51" cx="35" cy="35" r="35"/>
	<g>
		<path fill="#FFFFFF" d="M44,48V27h0.6v-3.4H25.4V27H26v21h-1.1v2.1h20.3V48H44z M33.4,28.1h3.2v3.2h-3.2V28.1z M33.4,33.4h3.2v3.2
			h-3.2V33.4z M28.2,28.1h3.2v3.2h-3.2V28.1z M28.2,33.4h3.2v3.2h-3.2V33.4z M38.1,41.7V48h-6.2v-6.2H31c0-2.2,1.8-4,4-4s4,1.8,4,4
			H38.1z M41.8,36.6h-3.2v-3.2h3.2V36.6z M41.8,31.3h-3.2v-3.2h3.2V31.3z"/>
		<path fill="#FFFFFF" d="M31.4,23.1h7.2c0.9,0,1.6-0.7,1.6-1.6c0-0.9-0.7-1.6-1.6-1.6h-7.2c-0.9,0-1.6,0.7-1.6,1.6
			C29.8,22.4,30.5,23.1,31.4,23.1z M37.5,20.7h0.4V22h0.7v0.3h-1L37.5,20.7L37.5,20.7z M36.2,20.7h1V21h-0.7v0.3h0.6v0.3h-0.6V22
			h0.7v0.3h-1.1V20.7z M34.7,20.7H36V21h-0.5v1.4h-0.4V21h-0.4L34.7,20.7L34.7,20.7z M33.9,20.6c0.5,0,0.8,0.4,0.8,0.8
			c0,0.5-0.3,0.9-0.8,0.9c-0.5,0-0.8-0.4-0.8-0.8C33.1,21,33.4,20.6,33.9,20.6z M31.4,20.7h0.4v0.6h0.6v-0.6h0.4v1.7h-0.4v-0.7h-0.6
			v0.7h-0.4V20.7z"/>
		<path fill="#FFFFFF" d="M33.9,22.1c0.3,0,0.4-0.2,0.4-0.6c0-0.3-0.1-0.6-0.4-0.6c-0.3,0-0.4,0.2-0.4,0.6
			C33.5,21.8,33.6,22.1,33.9,22.1z"/>
	</g>
</g>
</svg>
