<?xml version="1.0" encoding="utf-8"?>
<!-- Generator: Adobe Illustrator 19.2.1, SVG Export Plug-In . SVG Version: 6.00 Build 0)  -->
<svg version="1.1" id="Layer_1" xmlns="http://www.w3.org/2000/svg" xmlns:xlink="http://www.w3.org/1999/xlink" x="0px" y="0px"
	 viewBox="0 0 70 70" style="enable-background:new 0 0 70 70;" xml:space="preserve">
<g>
	<circle fill="#F07C51" cx="35" cy="35" r="35"/>
	<g>
		<path fill="#FFFFFF" d="M50.1,34c-0.5-7.6-6.5-13.6-14.1-14.1v0h-1h-1v0c-7.6,0.5-13.6,6.5-14.1,14.1h0v1v1h0
			c0.5,7.6,6.5,13.6,14.1,14.1v0h1h1v0c7.6-0.5,13.6-6.5,14.1-14.1h0v-1L50.1,34L50.1,34z M29.3,23.2c-1,1.3-1.8,2.9-2.4,4.8h-3
			C25.3,25.9,27.1,24.2,29.3,23.2z M22.9,30h3.5c-0.3,1.3-0.4,2.6-0.5,4h-4C22,32.6,22.4,31.2,22.9,30z M21.9,36h4
			c0.1,1.4,0.2,2.8,0.5,4h-3.5C22.4,38.8,22,37.4,21.9,36z M23.9,42.1h3c0.6,1.9,1.4,3.5,2.4,4.8C27.1,45.8,25.3,44.1,23.9,42.1z
			 M34,48c-2.1-0.6-3.9-2.8-4.9-5.9H34V48z M34,40h-5.5c-0.3-1.3-0.5-2.6-0.5-4h6V40z M34,34h-6c0.1-1.4,0.2-2.8,0.5-4H34V34z
			 M34,27.9H29c1.1-3.1,2.9-5.4,4.9-5.9V27.9z M46.1,27.9h-3c-0.6-1.9-1.4-3.5-2.4-4.8C42.9,24.2,44.7,25.9,46.1,27.9z M36,22
			c2.1,0.6,3.9,2.8,4.9,5.9H36V22z M36,30h5.5c0.3,1.3,0.5,2.6,0.5,4h-6V30z M36,36h6c-0.1,1.4-0.2,2.8-0.5,4H36V36z M36,48v-5.9H41
			C39.9,45.2,38.1,47.4,36,48z M40.7,46.8c1-1.3,1.8-2.9,2.4-4.8h3C44.7,44.1,42.9,45.8,40.7,46.8z M47.1,40h-3.5
			c0.3-1.3,0.4-2.6,0.5-4h4C48,37.4,47.6,38.8,47.1,40z M44.1,34c-0.1-1.4-0.2-2.8-0.5-4h3.5c0.5,1.3,0.9,2.6,1,4H44.1z"/>
	</g>
</g>
</svg>
