<!-- Generator: Adobe Illustrator 19.2.1, SVG Export Plug-In  -->
<svg version="1.1"
	 xmlns="http://www.w3.org/2000/svg" xmlns:xlink="http://www.w3.org/1999/xlink" xmlns:a="http://ns.adobe.com/AdobeSVGViewerExtensions/3.0/"
	 x="0px" y="0px" width="278px" height="200.2px" viewBox="0 0 278 200.2" style="enable-background:new 0 0 278 200.2;"
	 xml:space="preserve">
<g>
	<path fill="#F07C51" d="M278,52.6c0-6.1-2.6-11.6-6.7-15.5c4.1-3.9,6.7-9.4,6.7-15.5C278,9.7,268.3,0,256.5,0H155.8c-10.7,0-19.6,7.9-21.3,18.2
		C104.2,19.8,78.2,38,65.4,63.9H21.5C9.7,63.9,0,73.6,0,85.4c0,6.1,2.6,11.6,6.7,15.5c-4.1,3.9-6.7,9.4-6.7,15.5s2.6,11.6,6.7,15.5
		C2.6,136,0,141.5,0,147.6c0,6.1,2.6,11.6,6.7,15.5c-4.1,3.9-6.7,9.4-6.7,15.5c0,11.9,9.7,21.5,21.5,21.5h100.6
		c10.7,0,19.6-7.9,21.3-18.2c30.4-1.6,56.4-19.8,69.2-45.7h43.8c11.9,0,21.5-9.7,21.5-21.5c0-6.1-2.6-11.6-6.7-15.5
		c4.1-3.9,6.7-9.4,6.7-15.5c0-6.1-2.6-11.6-6.7-15.5C275.4,64.2,278,58.7,278,52.6L278,52.6z M266,52.6c0,5.3-4.3,9.5-9.5,9.5h-44.7
		c-3.7-7-8.3-13.4-13.8-19.1h58.5C261.7,43.1,266,47.4,266,52.6z M266,83.7c0,5.3-4.3,9.5-9.5,9.5h-35.7c-0.6-6.6-1.9-13-3.9-19.1
		h39.6C261.7,74.2,266,78.5,266,83.7z M266,114.8c0,5.3-4.3,9.5-9.5,9.5h-39c1.9-6.1,3.1-12.5,3.5-19.1h35.6
		C261.7,105.3,266,109.5,266,114.8z M122.2,188.2H21.5c-5.3,0-9.5-4.3-9.5-9.5c0-5.3,4.3-9.5,9.5-9.5h73.1
		c10.7,6.9,23.1,11.4,36.5,12.7C129.9,185.6,126.3,188.2,122.2,188.2L122.2,188.2z M12,147.6c0-5.3,4.3-9.5,9.5-9.5h44.7
		c3.7,7,8.3,13.4,13.8,19.1H21.5C16.3,157.2,12,152.9,12,147.6z M12,116.5c0-5.3,4.3-9.5,9.5-9.5h35.7c0.6,6.6,1.9,13,3.9,19.1H21.5
		C16.3,126.1,12,121.8,12,116.5z M12,85.4c0-5.3,4.3-9.5,9.5-9.5h39C58.7,82,57.5,88.4,57.1,95H21.5C16.3,95,12,90.7,12,85.4z
		 M139,170.2c-38.6,0-70.1-31.4-70.1-70.1S100.4,30,139,30s70.1,31.4,70.1,70.1S177.6,170.2,139,170.2z M155.8,12h100.6
		c5.3,0,9.5,4.3,9.5,9.5s-4.3,9.5-9.5,9.5h-73.1c-10.7-6.9-23.1-11.4-36.5-12.7C148.1,14.7,151.7,12,155.8,12z"/>
	<path fill="#F07C51" d="M198.8,100.1c0-33-26.8-59.8-59.8-59.8s-59.8,26.8-59.8,59.8s26.8,59.8,59.8,59.8S198.8,133.1,198.8,100.1z M139,147.9
		c-26.4,0-47.8-21.4-47.8-47.8s21.4-47.8,47.8-47.8s47.8,21.4,47.8,47.8S165.4,147.9,139,147.9z"/>
	<path fill="#F07C51" d="M145,132.1v-1.9c9.6-2.1,16.5-9.1,16.5-17.7s-6.9-15.6-16.5-17.7V82.6c2.8,1.2,4.5,3.3,4.5,5.2c0,3.3,2.7,6,6,6s6-2.7,6-6
		c0-8.6-6.9-15.6-16.5-17.7v-1.9c0-3.3-2.7-6-6-6s-6,2.7-6,6V70c-9.6,2.1-16.5,9.1-16.5,17.7s6.9,15.6,16.5,17.7v12.1
		c-2.8-1.2-4.5-3.3-4.5-5.2c0-3.3-2.7-6-6-6s-6,2.7-6,6c0,8.6,6.9,15.6,16.5,17.7v1.9c0,3.3,2.7,6,6,6S145,135.4,145,132.1z
		 M128.5,87.8c0-1.9,1.7-3.9,4.5-5.2v10.3C130.2,91.7,128.5,89.6,128.5,87.8z M149.5,112.5c0,1.9-1.7,3.9-4.5,5.2v-10.3
		C147.8,108.6,149.5,110.6,149.5,112.5z"/>
</g>
</svg>
