<?xml version="1.0" encoding="utf-8"?>
<!-- Generator: Adobe Illustrator 19.2.1, SVG Export Plug-In . SVG Version: 6.00 Build 0)  -->
<svg version="1.1" id="Layer_1" xmlns="http://www.w3.org/2000/svg" xmlns:xlink="http://www.w3.org/1999/xlink" x="0px" y="0px"
	 viewBox="0 0 70 70" style="enable-background:new 0 0 70 70;" xml:space="preserve">
<circle fill="#F07C51" cx="35" cy="35" r="35"/>
<g>
	<path fill="#FFFFFF" d="M27.6,24.1c0-2.3,1.9-4.2,4.2-4.2c2.3,0,4.2,1.9,4.2,4.2s-1.9,4.2-4.2,4.2C29.5,28.4,27.6,26.5,27.6,24.1z
		 M33.8,31.2c0-0.9,0.4-1.8,0.9-2.5c-0.4-0.1-0.7-0.1-1.1-0.1H30c-0.4,0-0.7,0-1.1,0.1c0.5,0.8,0.9,1.7,0.9,2.7
		c0.7-0.4,1.4-0.6,2.2-0.6C32.6,30.8,33.3,31,33.8,31.2z M34.5,31.6c1.2,0.8,2.1,2.1,2.2,3.6c0.5,0.2,1.1,0.4,1.6,0.4
		c2.1,0,3.9-1.7,3.9-3.9c0-2.1-1.7-3.9-3.9-3.9C36.3,27.8,34.6,29.5,34.5,31.6z M32,39.6c2.1,0,3.9-1.7,3.9-3.9
		c0-2.1-1.7-3.9-3.9-3.9c-2.1,0-3.9,1.7-3.9,3.9C28.1,37.8,29.8,39.6,32,39.6z M33.6,39.8h-3.3c-2.7,0-5,2.2-5,5v4l0,0.1l0.3,0.1
		c2.6,0.8,4.9,1.1,6.8,1.1c3.7,0,5.8-1,5.9-1.1l0.3-0.1h0v-4C38.6,42.1,36.4,39.8,33.6,39.8z M40.1,35.8h-3.3c0,1.3-0.6,2.5-1.5,3.3
		c2.4,0.7,4.2,3,4.2,5.7v1.2c3.2-0.1,5.1-1,5.2-1.1l0.3-0.1h0v-4C45.1,38.1,42.8,35.8,40.1,35.8z M41,27.7c1.2,0.8,2.1,2.1,2.2,3.6
		c0.5,0.2,1.1,0.4,1.6,0.4c2.1,0,3.9-1.7,3.9-3.9c0-2.1-1.7-3.9-3.9-3.9C42.7,23.9,41,25.6,41,27.7z M46.5,31.9h-3.3
		c0,1.3-0.6,2.5-1.5,3.3c2.4,0.7,4.2,3,4.2,5.7v1.2c3.2-0.1,5.1-1,5.2-1.1l0.3-0.1h0v-4C51.5,34.1,49.2,31.9,46.5,31.9z M25.2,35.6
		c0.8,0,1.5-0.2,2.1-0.6c0.2-1.2,0.9-2.3,1.8-3.1c0-0.1,0-0.1,0-0.2c0-2.1-1.7-3.9-3.9-3.9c-2.1,0-3.9,1.7-3.9,3.9
		C21.3,33.8,23,35.6,25.2,35.6z M28.7,39.2c-0.9-0.8-1.4-2-1.5-3.3c-0.1,0-0.2,0-0.4,0h-3.3c-2.7,0-5,2.2-5,5v4l0,0.1l0.3,0.1
		c2.1,0.7,4,1,5.6,1.1v-1.2C24.4,42.1,26.2,39.9,28.7,39.2z"/>
</g>
</svg>
