<!-- Generator: Adobe Illustrator 19.2.1, SVG Export Plug-In  -->
<svg version="1.1"
	 xmlns="http://www.w3.org/2000/svg" xmlns:xlink="http://www.w3.org/1999/xlink" xmlns:a="http://ns.adobe.com/AdobeSVGViewerExtensions/3.0/"
	 x="0px" y="0px" width="17px" height="17px" viewBox="0 0 17 17" style="enable-background:new 0 0 17 17;" xml:space="preserve">
<defs>
</defs>
<g id="Search_1_">
	<path fill="#FFF" d="M16.6,14.6l-3.7-3.7c0,0,0,0-0.1-0.1C13.6,9.7,14,8.4,14,7c0-3.9-3.1-7-7-7S0,3.1,0,7c0,3.9,3.1,7,7,7
		c1.4,0,2.7-0.4,3.8-1.2c0,0,0,0,0.1,0.1l3.7,3.7c0.6,0.6,1.5,0.6,2,0C17.1,16,17.1,15.1,16.6,14.6z M7,11.6c-2.5,0-4.6-2-4.6-4.6
		c0-2.5,2-4.6,4.6-4.6c2.5,0,4.6,2,4.6,4.6S9.5,11.6,7,11.6z"/>
</g>
</svg>