<!-- Generator: Adobe Illustrator 19.2.1, SVG Export Plug-In  -->
<svg version="1.1"
	 xmlns="http://www.w3.org/2000/svg" xmlns:xlink="http://www.w3.org/1999/xlink" xmlns:a="http://ns.adobe.com/AdobeSVGViewerExtensions/3.0/"
	 x="0px" y="0px" width="20px" height="20px" viewBox="0 0 20 20" style="enable-background:new 0 0 20 20;" xml:space="preserve">
<g>
	<path fill="#FFF" d="M16.3,13.8H15c-1.4,0-2.5-1.1-2.5-2.5v-0.8c0.6-0.7,0.9-1.4,1.2-2.3c0-0.1,0.2-0.2,0.2-0.3c0.5-0.5,0.6-1.3,0.2-1.9
		c0-0.1-0.1-0.2-0.1-0.3c0-0.7,0-1.5,0-2.2c0-0.9-0.3-1.8-0.9-2.5c-0.5-0.5-1.2-0.8-1.9-1C10.3-0.1,9.4,0,8.5,0.2
		C7.7,0.4,7,0.8,6.6,1.5C6.2,2.1,6,2.8,6,3.5C6,4.2,6,5,6,5.7C6,5.9,5.9,6,5.8,6.1C5.5,6.7,5.6,7.5,6.2,8c0.1,0.1,0.2,0.3,0.2,0.4
		c0.2,0.7,0.6,1.4,1.1,2v0.8c0,1.4-1.1,2.5-2.5,2.5H3.8c0,0-2.3,0.6-3.8,3.7v1.3C0,19.4,0.6,20,1.3,20h17.5c0.7,0,1.2-0.6,1.2-1.2
		v-1.3C18.5,14.4,16.3,13.8,16.3,13.8z"/>
</g>
</svg>
