<!-- Generator: Adobe Illustrator 19.2.1, SVG Export Plug-In  -->
<svg version="1.1"
	 xmlns="http://www.w3.org/2000/svg" xmlns:xlink="http://www.w3.org/1999/xlink" xmlns:a="http://ns.adobe.com/AdobeSVGViewerExtensions/3.0/"
	 x="0px" y="0px" width="21.1px" height="20px" viewBox="0 0 21.1 20" style="enable-background:new 0 0 21.1 20;"
	 xml:space="preserve">
<g>
	<path fill="#FFF" d="M20.1,6.8l-5.8-0.5c-0.4,0-0.7-0.3-0.8-0.6l-2.1-5c-0.3-0.8-1.5-0.8-1.8,0l-2.1,5C7.4,6,7.1,6.2,6.7,6.3L0.9,6.8
		C0,6.9-0.3,8,0.3,8.6l4.4,3.8C5,12.6,5.1,13,5,13.4l-1.3,5.4c-0.2,0.8,0.7,1.5,1.5,1.1L10,17c0.3-0.2,0.7-0.2,1,0l4.8,2.8
		c0.8,0.4,1.7-0.2,1.5-1.1L16,13.4c-0.1-0.4,0-0.7,0.3-1l4.4-3.8C21.4,8,21,6.9,20.1,6.8z"/>
</g>
</svg>
