<!-- Generator: Adobe Illustrator 19.2.1, SVG Export Plug-In  -->
<svg version="1.1"
	 xmlns="http://www.w3.org/2000/svg" xmlns:xlink="http://www.w3.org/1999/xlink" xmlns:a="http://ns.adobe.com/AdobeSVGViewerExtensions/3.0/"
	 x="0px" y="0px" width="21.8px" height="20px" viewBox="0 0 21.8 20" style="enable-background:new 0 0 21.8 20;"
	 xml:space="preserve">
<g>
	<g>
		<path fill="#FFF" d="M21.8,7.1c0-3.9-3.1-7.1-7-7.1c-0.4,0-0.8,0-1.2,0.1c-0.2,0-0.5,0.1-0.7,0.2l1.9,6.8L21.8,7.1L21.8,7.1z"/>
		<path fill="#FFF" d="M6.4,8.1c0-0.5-0.2-1.4-0.8-2.2C4.8,5,3.8,4.4,2.4,4.2C2.3,4,2,3.9,1.8,3.9H0.9C0.4,3.9,0,4.3,0,4.7
			c0,0.5,0.4,0.9,0.9,0.9h0.9c0.2,0,0.4-0.1,0.5-0.2c1,0.2,1.8,0.6,2.3,1.2C5,7.2,5.1,7.7,5.2,8.1h0c0,3.8,3.7,6.8,8.3,6.8
			c4.6,0,8.3-3.1,8.3-6.8C21.8,8.1,6.4,8.1,6.4,8.1z"/>
		<path fill="#FFF" d="M10.2,15.2c-1.3,0-2.4,1.1-2.4,2.4S8.9,20,10.2,20s2.4-1.1,2.4-2.4S11.5,15.2,10.2,15.2z M10.2,18.8
			c-0.6,0-1.2-0.5-1.2-1.2s0.5-1.2,1.2-1.2c0.6,0,1.2,0.5,1.2,1.2S10.8,18.8,10.2,18.8z"/>
		<path fill="#FFF" d="M16.6,15.2c-1.3,0-2.4,1.1-2.4,2.4s1.1,2.4,2.4,2.4c1.3,0,2.4-1.1,2.4-2.4S17.9,15.2,16.6,15.2z M16.6,18.8
			c-0.6,0-1.2-0.5-1.2-1.2s0.5-1.2,1.2-1.2c0.6,0,1.2,0.5,1.2,1.2S17.2,18.8,16.6,18.8z"/>
	</g>
</g>
</svg>
