<!-- Generator: Adobe Illustrator 19.2.1, SVG Export Plug-In  -->
<svg version="1.1"
	 xmlns="http://www.w3.org/2000/svg" xmlns:xlink="http://www.w3.org/1999/xlink" xmlns:a="http://ns.adobe.com/AdobeSVGViewerExtensions/3.0/"
	 x="0px" y="0px" width="48px" height="48px" viewBox="0 0 48 48" style="enable-background:new 0 0 48 48;" xml:space="preserve">
<g>
	<path fill="#E13719" d="M24,0C24,0,24,0,24,0C24,0,24,0,24,0C10.7,0,0,10.7,0,24s10.7,24,24,24c0,0,0,0,0,0s0,0,0,0
		c13.3,0,24-10.7,24-24S37.3,0,24,0z M29,24v-2h4v-4h2v4h4v2h-4v4h-2v-4H29z M19,39c-5.2,0-10-2.6-10-6c0-3.4,3.8-6,9-6
		c0.6,0,1.5,0,2,0c-0.7-0.7-1.5-1.7-1.5-2.7c0-0.6,0.2-1.2,0.5-1.7c-0.3,0-0.6,0-0.9,0c-4.2,0-7.1-2.8-7.1-6.6c0-3.7,3.8-7,8-7
		c2.3,0,9.4,0,9.4,0L26,10h-3c2,1,3,3.7,3,6c0,2-1.5,3.8-3,5c-1.5,1.2-1,3-1,3c0,0.9,2,2,2,2c2.5,1.7,5,3.3,5,6C29,36,24.9,39,19,39
		z"/>
	<path fill="#E13719" d="M21,28c0,0-1.2,0-2,0c-3.6,0-7,2.3-7,5c0,2.7,3.4,4,7,4c5,0,7-1,7-4c0-0.3,0-2-1-3C23.9,28.9,22,28,21,28z"/>
	<path fill="#E13719" d="M23,16.1c-0.4-3.1-2.6-6-5-6.1c-2.4-0.1-4.4,2.9-4,6c0.4,3.1,3.6,6,6,6C22,22,23.4,19.2,23,16.1z"/>
</g>
</svg>
