<!-- Generator: Adobe Illustrator 19.2.1, SVG Export Plug-In  -->
<svg version="1.1"
	 xmlns="http://www.w3.org/2000/svg" xmlns:xlink="http://www.w3.org/1999/xlink" xmlns:a="http://ns.adobe.com/AdobeSVGViewerExtensions/3.0/"
	 x="0px" y="0px" width="48px" height="48px" viewBox="0 0 48 48" style="enable-background:new 0 0 48 48;" xml:space="preserve">
<g>
	<path fill="#CF3427" d="M24,0C24,0,24,0,24,0C24,0,24,0,24,0C10.7,0,0,10.7,0,24s10.7,24,24,24c0,0,0,0,0,0s0,0,0,0
		c13.3,0,24-10.7,24-24S37.3,0,24,0z M24,34.5c0,0-7.8,0-10.2-0.2c-0.7-0.1-2.2-0.1-3.3-1.3c-0.9-0.9-1.2-3-1.2-3S9,27.9,9,25.5v-3
		C9,20.1,9.3,18,9.3,18s0.3-2.1,1.2-3c1.1-1.2,2.4-1.2,3-1.3c4.2-0.3,10.5-0.3,10.5-0.3s6.3,0,10.5,0.3c0.6,0.1,1.9,0.1,3,1.3
		c0.9,0.9,1.2,3,1.2,3s0.3,2,0.3,4.4v3c0,2.4-0.3,4.5-0.3,4.5s-0.3,2.1-1.2,3c-1.1,1.2-2.4,1.2-3,1.3C30.3,34.6,24,34.5,24,34.5z"/>
	<polygon fill="#CF3427" points="20,20 20,28 28,24 	"/>
</g>
</svg>
