<!-- Generator: Adobe Illustrator 19.2.1, SVG Export Plug-In  -->
<svg version="1.1"
	 xmlns="http://www.w3.org/2000/svg" xmlns:xlink="http://www.w3.org/1999/xlink" xmlns:a="http://ns.adobe.com/AdobeSVGViewerExtensions/3.0/"
	 x="0px" y="0px" width="48px" height="48px" viewBox="0 0 48 48" style="enable-background:new 0 0 48 48;" xml:space="preserve">
<g>
	<path fill="#475B9B" d="M24,0C24,0,24,0,24,0C24,0,24,0,24,0C10.7,0,0,10.7,0,24s10.7,24,24,24c0,0,0,0,0,0s0,0,0,0
		c13.3,0,24-10.7,24-24S37.3,0,24,0z M21,39V25h-5v-5h5v-4c0-4.6,2.9-7,7-7c2,0,4,0,4,0v5h-2c-2.2,0-3,0.5-3,2v4l5,0l-1,5h-4v14H21z
		"/>
</g>
</svg>
