<!-- Generator: Adobe Illustrator 19.2.1, SVG Export Plug-In  -->
<svg version="1.1"
	 xmlns="http://www.w3.org/2000/svg" xmlns:xlink="http://www.w3.org/1999/xlink" xmlns:a="http://ns.adobe.com/AdobeSVGViewerExtensions/3.0/"
	 x="0px" y="0px" width="48px" height="48px" viewBox="0 0 48 48" style="enable-background:new 0 0 48 48;" xml:space="preserve">
<g>
	<path fill="#D57120" d="M24,0C24,0,24,0,24,0C24,0,24,0,24,0C10.7,0,0,10.7,0,24s10.7,24,24,24c0,0,0,0,0,0s0,0,0,0
		c13.3,0,24-10.7,24-24S37.3,0,24,0z M31,16c0,3.9-3.1,7-7,7c-3.9,0-7-3.1-7-7c0-3.9,3.1-7,7-7C27.9,9,31,12.1,31,16z M24,33
		c0,0-4.5,5.3-4.5,5.3S19,39,18,39c-1.1,0-2-0.9-2-2c0-0.6,0.8-1.6,0.8-1.6L21,30c0,0-3.8-1.6-5-2.3c-0.4-0.3-1-0.7-1-1.7
		c0-1.1,0.9-2,2-2c1,0,3,2,7,2s6-2,7-2c1.1,0,2,0.9,2,2c0,1-0.6,1.5-1,1.7c-1.2,0.7-5,2.3-5,2.3l4.3,5.4c0,0,0.8,0.9,0.8,1.6
		c0,1.1-0.9,2-2,2c-1,0-1.5-0.7-1.5-0.7S24,33,24,33z"/>
	<circle fill="#D57120" cx="24" cy="16" r="3.5"/>
</g>
</svg>
