<!-- Generator: Adobe Illustrator 19.2.1, SVG Export Plug-In  -->
<svg version="1.1"
	 xmlns="http://www.w3.org/2000/svg" xmlns:xlink="http://www.w3.org/1999/xlink" xmlns:a="http://ns.adobe.com/AdobeSVGViewerExtensions/3.0/"
	 x="0px" y="0px" width="48px" height="48px" viewBox="0 0 48 48" style="enable-background:new 0 0 48 48;" xml:space="preserve">
<g>
	<path fill="#5F7597" d="M24,0C24,0,24,0,24,0C24,0,24,0,24,0C10.7,0,0,10.7,0,24s10.7,24,24,24c0,0,0,0,0,0s0,0,0,0
		c13.3,0,24-10.7,24-24S37.3,0,24,0z M16.3,29.1C12.5,25.1,11,22,9,17c-0.1-0.3,0-1,1-1c1,0,1.9,0,3,0c1,0,1.2-0.2,2,1c2,3,4,7,5,7
		c1,0,1-4,1-4s0-1,0-2c0-1.4-1.7-1-2-1c-0.2,0,1-1,1-1s1.4-1,3-1c1,0,3,0,3,0c1.5,0.4,1,2.7,1,6c0,1.1,0.1,3,1,3c0.9,0,1-1,2-3
		c0.6-1.3,1-2,3-5c0.6-0.9,5.7,0.1,6,0.7c0.2,0.6-1.1,2.9-3,5.3c-3,4-2,3,0,5c2.3,2.3,3,3.4,3,4c0,1.9-2,2-2,2s-2,0-3,0s-1,0-2-1
		c-1.3-1.3-3-3-4-3s-2,1-2,2c0,0.6,0,2-1,2s-0.5,0-1,0C22.1,32.9,19.7,32.7,16.3,29.1z"/>
</g>
</svg>