<!-- Generator: Adobe Illustrator 19.2.1, SVG Export Plug-In  -->
<svg version="1.1"
	 xmlns="http://www.w3.org/2000/svg" xmlns:xlink="http://www.w3.org/1999/xlink" xmlns:a="http://ns.adobe.com/AdobeSVGViewerExtensions/3.0/"
	 x="0px" y="0px" width="48px" height="48px" viewBox="0 0 48 48" style="enable-background:new 0 0 48 48;" xml:space="preserve">
<g>
	<path fill="#2CA7E0" d="M24,0C10.7,0,0,10.7,0,24s10.7,24,24,24s24-10.7,24-24S37.3,0,24,0z M36,18.5c0,0.3,0,0.7,0,1
		c0,8.1-5.7,17-17,17c-3.5,0-7.3-0.8-10-2.6C9.5,34,10,34,10.5,34c2.9,0,5.4-0.9,7.5-2.5c-2.7-0.1-5.2-1.6-6-4c0.4,0.1,4,1,5,0
		c-2.8-0.6-7-4-7-7c0.8,0.5,2,1,3,1c-1.7-1.1-3-2.9-3-5c0-1.1,0.5-2.1,1-3c3,3.7,7,5,13,5l0.1,0c-0.1-0.3-0.1-0.6-0.1-1
		c0-3.4,2.6-6,6-6c1.8,0,2.9,0.8,4,2l0.8,0.8c1.1-0.4,2.3-1.2,3.2-1.8c-0.5,1.4-1.7,3.2-3,4c1.2-0.1,2.9-0.8,4-1.3
		C38.2,16.4,37.2,17.6,36,18.5z"/>
</g>
</svg>
