<!-- Generator: Adobe Illustrator 19.2.1, SVG Export Plug-In  -->
<svg version="1.1"
	 xmlns="http://www.w3.org/2000/svg" xmlns:xlink="http://www.w3.org/1999/xlink" xmlns:a="http://ns.adobe.com/AdobeSVGViewerExtensions/3.0/"
	 x="0px" y="0px" width="48px" height="48px" viewBox="0 0 48 48" style="enable-background:new 0 0 48 48;" xml:space="preserve">
<g>
	<polygon fill="none" points="35,18 33,18 33,22 29,22 29,24 33,24 33,28 35,28 35,24 39,24 39,22 35,22 	"/>
	<path fill="none" d="M24,26c0,0-2-1.1-2-2c0,0-0.5-1.8,1-3c1.5-1.2,3-3,3-5c0-2.3-1-5-3-6h3l2.4-1c0,0-7.1,0-9.4,0
		c-4.2,0-8,3.3-8,7c0,3.7,2.8,6.6,7.1,6.6c0.3,0,0.6,0,0.9,0c-0.3,0.5-0.5,1.1-0.5,1.7c0,1,0.8,2,1.5,2.7c-0.5,0-1.4,0-2,0
		c-5.2,0-9,2.6-9,6c0,3.4,4.9,6,10,6c5.9,0,10-3,10-7C29,29.3,26.5,27.7,24,26z M14,16c-0.4-3.1,1.6-6.1,4-6c2.4,0.1,4.6,2.9,5,6.1
		c0.4,3.1-1,5.9-3,5.9C17.6,22,14.4,19.1,14,16z M19,37c-3.6,0-7-1.3-7-4c0-2.7,3.4-5,7-5c0.8,0,2,0,2,0c1,0,2.9,0.9,4,2
		c1,1,1,2.7,1,3C26,36,24,37,19,37z"/>
	<path fill="#E13719" d="M33.9,32.5L33.9,32.5c-0.1,0.5-0.3,1.2-0.4,1.6l-0.3,1.4h1.5l-0.4-1.5C34.2,33.6,34,33,33.9,32.5z"/>
	<path fill="#E13719" d="M24,0C24,0,24,0,24,0C24,0,24,0,24,0C10.7,0,0,10.7,0,24s10.7,24,24,24c0,0,0,0,0,0s0,0,0,0
		c13.3,0,24-10.7,24-24S37.3,0,24,0z M19,39c-5.2,0-10-2.6-10-6c0-3.4,3.8-6,9-6c0.6,0,1.5,0,2,0c-0.7-0.7-1.5-1.7-1.5-2.7
		c0-0.6,0.2-1.2,0.5-1.7c-0.3,0-0.6,0-0.9,0c-4.2,0-7.1-2.8-7.1-6.6c0-3.7,3.8-7,8-7c2.3,0,9.4,0,9.4,0L26,10h-3c2,1,3,3.7,3,6
		c0,2-1.5,3.8-3,5c-1.5,1.2-1,3-1,3c0,0.9,2,2,2,2c2.5,1.7,5,3.3,5,6C29,36,24.9,39,19,39z M35.5,39L35,37.1h-2.1L32.4,39h-2.2
		l2.4-8.1h2.9l2.4,8.1H35.5z M39,24h-4v4h-2v-4h-4v-2h4v-4h2v4h4V24z"/>
	<path fill="#E13719" d="M21,28c0,0-1.2,0-2,0c-3.6,0-7,2.3-7,5c0,2.7,3.4,4,7,4c5,0,7-1,7-4c0-0.3,0-2-1-3C23.9,28.9,22,28,21,28z"/>
	<path fill="#E13719" d="M23,16.1c-0.4-3.1-2.6-6-5-6.1c-2.4-0.1-4.4,2.9-4,6c0.4,3.1,3.6,6,6,6C22,22,23.4,19.2,23,16.1z"/>
</g>
</svg>
