<!-- Generator: Adobe Illustrator 19.2.1, SVG Export Plug-In  -->
<svg version="1.1"
	 xmlns="http://www.w3.org/2000/svg" xmlns:xlink="http://www.w3.org/1999/xlink" xmlns:a="http://ns.adobe.com/AdobeSVGViewerExtensions/3.0/"
	 x="0px" y="0px" width="36px" height="36px" viewBox="0 0 36 36" style="enable-background:new 0 0 36 36;" xml:space="preserve">
    <circle fill="#f1ca2f" cx="18" cy="18" r="18"/>
    <path d="M18.3,15.4c-1.8-0.4-3.4,1.2-3.1,3.1c0.2,1,1,1.9,2.1,2.1c1.8,0.4,3.4-1.2,3.1-3.1
                C20.1,16.5,19.3,15.6,18.3,15.4z M24.8,12.8h-2.1c-0.3,0-0.6-0.2-0.7-0.5l-0.5-1.6c-0.1-0.3-0.4-0.5-0.7-0.5h-6
                c-0.3,0-0.6,0.2-0.7,0.5l-0.5,1.6c-0.1,0.3-0.4,0.5-0.7,0.5h-2.1c-1,0-1.8,0.8-1.8,1.8v7.9c0,1,0.8,1.8,1.8,1.8h14
                c1,0,1.8-0.8,1.8-1.8v-7.9C26.5,13.5,25.7,12.8,24.8,12.8z M18.4,22.3c-3,0.5-5.5-2.1-5-5c0.3-1.8,1.8-3.3,3.6-3.6
                c3-0.5,5.5,2.1,5,5C21.8,20.5,20.3,22,18.4,22.3z M24.1,15.7c-0.3,0-0.6-0.3-0.6-0.6c0-0.3,0.3-0.6,0.6-0.6c0.3,0,0.6,0.3,0.6,0.6
                C24.8,15.4,24.5,15.7,24.1,15.7z"/>
</svg>
