<!-- Generator: Adobe Illustrator 19.2.1, SVG Export Plug-In  -->
<svg version="1.1"
	 xmlns="http://www.w3.org/2000/svg" xmlns:xlink="http://www.w3.org/1999/xlink" xmlns:a="http://ns.adobe.com/AdobeSVGViewerExtensions/3.0/"
	 x="0px" y="0px" width="36px" height="36px" viewBox="0 0 36 36" style="enable-background:new 0 0 36 36;" xml:space="preserve">
    <circle fill="#f1ca2f" cx="18" cy="18" r="18"/>
	<path d="M17.8,10L17.8,10c3.6,0,6.6,2.4,6.6,5.3s-2.9,5.3-6.6,5.3c-0.3,0-0.7,0-1-0.1c-1.4,1.4-3,1.7-4.7,1.7v-0.3
		c0.9-0.4,1.6-1.2,1.6-2.1c0-0.1,0-0.2,0-0.4c-1.5-1-2.4-2.5-2.4-4.1C11.3,12.4,14.2,10,17.8,10z M24.9,21.9c0,0.8,0.5,1.4,1.3,1.8
		V24c-1.4,0-2.7-0.2-3.9-1.5c-0.3,0-0.6,0.1-0.9,0.1c-1.3,0-2.5-0.4-3.5-0.9c2,0,3.8-0.6,5.3-1.8c0.7-0.6,1.3-1.3,1.7-2
		c0.4-0.8,0.6-1.7,0.6-2.5c0-0.1,0-0.3,0-0.4c1,0.8,1.6,1.9,1.6,3.2c0,1.4-0.8,2.7-2.1,3.5C24.9,21.7,24.9,21.8,24.9,21.9z"/>
</svg>
