<!-- Generator: Adobe Illustrator 19.2.1, SVG Export Plug-In  -->
<svg version="1.1"
	 xmlns="http://www.w3.org/2000/svg" xmlns:xlink="http://www.w3.org/1999/xlink" xmlns:a="http://ns.adobe.com/AdobeSVGViewerExtensions/3.0/"
	 x="0px" y="0px" width="36px" height="36px" viewBox="0 0 36 36" style="enable-background:new 0 0 36 36;" xml:space="preserve">
    <circle fill="#f1ca2f" cx="18" cy="18" r="18"/>
    <path d="M19.9,16.5c-0.5-0.3-1.1-0.5-1.7-0.8c-0.3-0.1-0.7-0.3-0.9-0.5c-0.6-0.4-0.5-1.2,0.2-1.5c0.2-0.1,0.4-0.1,0.6-0.1
            c0.8,0,1.5,0.1,2.2,0.4c0.3,0.2,0.5,0.1,0.6-0.2c0.1-0.4,0.2-0.8,0.3-1.1c0.1-0.3,0-0.4-0.3-0.5c-0.4-0.2-0.9-0.3-1.4-0.4
            c-0.6-0.1-0.6-0.1-0.6-0.7c0-0.9,0-0.9-0.9-0.9c-0.1,0-0.3,0-0.4,0c-0.4,0-0.5,0.1-0.5,0.5c0,0.2,0,0.4,0,0.6c0,0.5,0,0.5-0.5,0.7
            c-1.3,0.5-2.1,1.3-2.1,2.7c-0.1,1.2,0.6,2.1,1.6,2.7c0.6,0.4,1.3,0.6,2,0.9c0.3,0.1,0.5,0.2,0.7,0.4c0.6,0.5,0.5,1.4-0.2,1.7
            c-0.4,0.2-0.8,0.2-1.3,0.2c-0.7-0.1-1.3-0.3-1.9-0.6c-0.4-0.2-0.5-0.1-0.6,0.2c-0.1,0.3-0.2,0.7-0.3,1c-0.1,0.5-0.1,0.6,0.4,0.8
            c0.5,0.3,1.1,0.4,1.7,0.5C17,22.5,17,22.5,17,23c0,0.2,0,0.4,0,0.7c0,0.3,0.1,0.4,0.4,0.4c0.3,0,0.7,0,1,0c0.3,0,0.4-0.2,0.4-0.4
            c0-0.3,0-0.6,0-0.9c0-0.3,0.1-0.5,0.4-0.5c0.7-0.2,1.3-0.5,1.7-1.1C22.2,19.7,21.7,17.5,19.9,16.5z"/>
</svg>
