<?xml version="1.0" encoding="UTF-8"?><!DOCTYPE svg PUBLIC "-//W3C//DTD SVG 1.1//EN" "http://www.w3.org/Graphics/SVG/1.1/DTD/svg11.dtd"><svg xmlns="http://www.w3.org/2000/svg" xmlns:xlink="http://www.w3.org/1999/xlink" xmlns:a="http://ns.adobe.com/AdobeSVGViewerExtensions/3.0/"><defs>











</defs><symbol id="advantages_icon_1" viewBox="0 0 60.1 70">
<path d="M30,70C17.6,70,7.5,59.9,7.5,47.4v-0.3H7c-3.8,0-7-3.1-7-7V37c0-3.8,3.1-7,7-7h0.5V19.8c0-3.9,1.8-7.7,4.9-10.1
	c-0.1-0.5-0.2-1.1-0.2-1.6c0-1.4,0.8-2.9,2-3.9c0,0,0,0,0,0L15,3.5c0,0,0.1,0,0.1-0.1c0.1-0.1,0.3-0.1,0.4-0.2
	c0.7-0.4,1.8-1.1,3.7-1.7c2.5-0.8,5.2-1.3,8.1-1.5c11.2-0.6,21.2,2.7,24.3,8c0,0,0,0,0,0c0.4,0.6,0.7,1.1,0.9,1.7
	c2.5,5.4,0.5,11.1,0,12.2v8h0.5c3.8,0,7,3.1,7,7v3.2c0,3.8-3.1,7-7,7h-0.5v0.3C52.6,59.9,42.5,70,30,70z M9.1,46.3v1.2
	C9.1,59,18.5,68.3,30,68.3S50.9,59,50.9,47.4v-7h-1.5c-0.2,0-0.4-0.1-0.6-0.2c-0.2-0.2-0.2-0.4-0.2-0.6c0-0.1,0.1-9.6-0.6-12.6
	c-0.7-2.7-2.6-3.7-2.7-3.8c-0.2-0.1-0.3-0.3-0.4-0.5c-0.1-0.2,0-0.5,0.1-0.6c0,0,1.1-1.9,1.2-3.8c0-0.3-1.2-1-2.8-1.5
	c-1.8-0.4-3.1-0.3-3.1-0.3c0,0,0,0,0,0H23c-2.5,0-4.6-0.4-6.4-1.3c-0.3-0.1-0.6-0.3-0.8-0.5c-0.8,0.9-1.9,2.4-1.9,3.6
	c0,1.8,1.2,3.7,1.2,3.8c0.1,0.2,0.2,0.4,0.1,0.7c-0.1,0.2-0.2,0.4-0.4,0.5c-0.1,0-2,1.1-2.7,3.8c-0.7,3-0.6,12.5-0.6,12.6
	c0,0.2-0.1,0.4-0.2,0.6c-0.2,0.2-0.4,0.2-0.6,0.2H9.1L9.1,46.3L9.1,46.3z M52.6,45.5h0.5c2.9,0,5.3-2.4,5.3-5.3V37
	c0-2.9-2.4-5.3-5.3-5.3h-0.5V45.5z M7,31.7C4,31.7,1.7,34,1.7,37v3.2c0,2.9,2.4,5.3,5.3,5.3h0.5V31.7H7z M50.3,38.8h0.6V22.1
	c-0.7-1.6-1.8-2.7-3.1-3.5c-0.1,1.5-0.7,2.8-1,3.6c0.8,0.7,2.2,2,2.8,4.4C50.2,29.2,50.3,36.3,50.3,38.8z M9.1,38.8h0.6
	c0-2.5,0-9.5,0.7-12.2c0.6-2.3,1.9-3.7,2.8-4.4c-0.4-0.9-1-2.4-1-3.9c0-1.8,1.4-3.6,2.2-4.6c-0.6-0.7-1.2-1.4-1.5-2.3
	c-2.4,2.1-3.8,5.2-3.8,8.4V38.8z M40.4,14.8c1.1,0,7.8,0.2,11.2,5.1c0.1-0.4,0.2-1,0.3-1.5c-1-0.9-4.5-4-9.7-5
	c-3.7-0.7-8-0.4-12.1-0.2c-3.1,0.2-6.3,0.4-9.2,0.2c-2.8-0.2-4.7-0.9-6-1.7c0.6,0.9,1.4,1.7,2.4,2.1c1.5,0.7,3.4,1.1,5.6,1.1h17.2
	C40.2,14.8,40.3,14.8,40.4,14.8z M36.6,11.1c2,0,4,0.1,5.9,0.5c4.6,0.9,7.9,3.2,9.6,4.6c0-0.7,0-1.5-0.1-2.3
	c-2.3-2.3-6.4-3.9-11.9-4.7c-2.9-0.4-6.2,0.1-9.7,0.5c-3.5,0.5-7.2,1-10.4,0.5c-3.6-0.5-5.3-1.8-6.1-3c-0.1,0.2-0.1,0.4-0.1,0.6
	c0,0.1,0,0.2,0,0.2c0.3,0.5,1.8,2.9,7.1,3.4c2.7,0.2,5.7,0,8.9-0.2C32.1,11.3,34.4,11.1,36.6,11.1z M37.7,7.5c0.9,0,1.8,0,2.6,0.2
	c4.6,0.6,8.4,1.9,11,3.7c-0.1-0.3-0.2-0.5-0.3-0.8C50.8,10,50.6,9.6,50.2,9c0,0,0,0,0,0c-2.7-4.8-12.3-7.8-22.8-7.2
	c-2.8,0.2-5.3,0.6-7.7,1.4c0,0,0,0,0,0l0,0C18,3.6,17,4.2,16.4,4.6c-0.2,0.1-0.3,0.2-0.4,0.3l-0.7,0.5C15.1,5.5,15,5.5,15,5.6
	c0.1,0.7,0.8,2.5,5.2,3.1c3.1,0.4,6.6-0.1,10-0.5C32.7,7.8,35.3,7.5,37.7,7.5z M30,62.8c-3.8,0-7.5-1.8-10.3-4.5
	c-0.1-0.1-0.2-0.2-0.3-0.3c-2.9-3-4.8-7.2-4.9-11.6c0-0.3,0.2-0.6,0.5-0.8c0.3-0.1,0.6-0.1,0.9,0.1c3.2,2.7,7.9,4,14.1,4
	s10.9-1.4,14.1-4c0.3-0.2,0.6-0.3,0.9-0.1c0.3,0.1,0.5,0.4,0.5,0.8c-0.1,4.4-2,8.6-4.9,11.6c-0.1,0.1-0.2,0.2-0.3,0.3
	C37.5,61,33.8,62.8,30,62.8z M23.6,59.2c1.9,1.2,4.1,1.9,6.4,1.9s4.5-0.7,6.4-1.9c-1.7,0.3-3.9,0.5-6.4,0.5S25.3,59.5,23.6,59.2z
	 M20.6,56.8c0.8,0.3,4.3,1.3,9.4,1.3c5,0,8.6-1,9.4-1.3c1.3-1.4,2.4-3,3.1-4.8c-2.2,1-6.2,2.3-12.5,2.3c-6.3,0-10.4-1.3-12.5-2.4
	C18.3,53.8,19.3,55.5,20.6,56.8z M16.7,49.7c0.9,0.6,5,3,13.3,3c8.3,0,12.4-2.4,13.3-3c0.1-0.5,0.2-1,0.3-1.6
	c-3.4,2.2-8,3.3-13.6,3.3s-10.2-1.1-13.6-3.3C16.5,48.7,16.6,49.2,16.7,49.7z M12.6,46.8c-0.1,0-0.2,0-0.3-0.1
	c-0.4-0.2-0.6-0.7-0.5-1.1l0-0.1c0.8-1.9,2.5-3.1,4.3-2.8c0.5,0.1,0.8,0.5,0.7,0.9c-0.1,0.5-0.5,0.8-0.9,0.7c-1-0.1-2,0.6-2.5,1.8
	l0,0.1C13.2,46.6,12.9,46.8,12.6,46.8z M47.7,46.8c-0.3,0-0.6-0.2-0.8-0.5l0-0.1c-0.5-1.2-1.5-1.9-2.5-1.8c-0.5,0.1-0.9-0.2-0.9-0.7
	c-0.1-0.5,0.2-0.9,0.7-0.9c1.8-0.3,3.5,0.9,4.3,2.8l0,0.1c0.2,0.4,0,0.9-0.5,1.1C48,46.8,47.8,46.8,47.7,46.8z M41.8,38.4
	c-0.1,0-0.2,0-0.3-0.1l-7.4-3.2c-0.3-0.1-0.5-0.4-0.5-0.8s0.2-0.6,0.5-0.8l7.4-3.2c0.4-0.2,0.9,0,1.1,0.4c0.2,0.4,0,0.9-0.4,1.1
	l-5.6,2.5l5.6,2.5c0.4,0.2,0.6,0.7,0.4,1.1C42.4,38.2,42.1,38.4,41.8,38.4z M18.3,38.4c-0.3,0-0.6-0.2-0.8-0.5
	c-0.2-0.4,0-0.9,0.4-1.1l5.6-2.5l-5.6-2.5c-0.4-0.2-0.6-0.7-0.4-1.1c0.2-0.4,0.7-0.6,1.1-0.4l7.4,3.2c0.3,0.1,0.5,0.4,0.5,0.8
	s-0.2,0.6-0.5,0.8l-7.4,3.2C18.5,38.4,18.4,38.4,18.3,38.4z"/>
</symbol><symbol id="advantages_icon_2" viewBox="0 0 57.2 70">
<path d="M29.8,0.4C30,0.6,30.1,1,29.9,1.3c0,0.3,0,2.3,3,7.6c1.5,2.7,2.8,4.2,4.1,5.6c1.7,2,3.6,4,5.8,9.3c0.2,0.4,0,0.9-0.4,1.2
	c-1.7,1-3.6,2.1-5.6,3.3c0.2,0.3,0.4,0.7,0.6,1.1c0.4,0.8,0.7,1.6,1,2.2c0.3-0.1,0.4-0.2,0.6-0.2c0.9-0.3,1.7-0.1,2.4,0.5
	c0.7,0.7,1.1,1.9,0.8,3c-0.3,0.9-1,1.6-1.9,1.8c-1.9,0.4-2.3-0.8-2.8-2.3c0,0,0-0.1,0-0.1c-1.6,0.8-3.8,2-6.3,3.3
	c0.4,1.1,0.7,2.2,0.6,3.3c-0.1,2.4-1.7,4.2-4.1,4.7c-2.1,0.4-4.6-0.3-6.5-2.6c-1.6,0.9-3.2,1.7-4.6,2.5c2.3,4.4,3.7,5.8,5.2,7.3
	c1.2,1.2,2.4,2.4,4,5c2.8,4.4,4,8.1,4.5,9.9c3.1-1.5,12.2-5.9,16.6-8.4c4.3-2.4,7.4-4.5,8.5-5.3c0-1.5-0.5-6.8-4.1-12.9
	c-1.5-2.5-3.1-5.1-4.3-7.2c0.4,9.2-5.5,15.5-12.2,17.8c-8.9,3-14.5-2.6-14.7-2.9c-0.4-0.4-0.3-1,0-1.3c0.4-0.4,1-0.3,1.3,0l0,0
	c0.2,0.2,5,5.1,12.7,2.4c5.4-1.8,13.6-8.3,10.1-20.6c-0.1-0.5,0.1-0.9,0.5-1.1c0.4-0.2,0.9,0,1.2,0.4c0,0.1,3.5,5.9,6.8,11.5
	c4.6,7.7,4.4,14.1,4.4,14.4c0,0.3-0.2,0.5-0.4,0.7c-0.1,0.1-3.6,2.6-9.1,5.7c-5.4,3-17.6,8.9-17.7,8.9c-0.3,0.1-0.6,0.1-0.8,0
	c-0.3-0.1-0.4-0.4-0.5-0.7c0,0-0.9-4.6-4.5-10.4c-1.5-2.4-2.6-3.6-3.8-4.7c-1.6-1.6-3.3-3.3-6-8.6c-0.2-0.5-0.1-1,0.4-1.3
	c0.6-0.4,2.7-1.5,5.3-2.9c-0.1-0.2-0.2-0.5-0.4-0.8c-0.3-0.7-0.6-1.4-0.9-2.1c-0.7,0.3-1.2,0.5-1.4,0.5c-0.9,0-1.7-0.5-2-1.4
	c-0.4-1.1-0.2-2.7,0.9-3.5c0.2-0.2,0.8-0.6,1.6-0.4c0.7,0.2,1.1,0.7,1.9,2.3c1.7-0.9,4-2.2,6.6-3.7c-1-2.4-1.4-4.9,1-6.9
	c1.3-1.1,2.7-1.5,4.2-1.2c1.4,0.3,2.8,1.2,4,2.7c1.7-1,3.4-2,5-3c-2-4.5-3.6-6.2-5.2-8.1c-1.3-1.5-2.7-3-4.3-5.9
	c-2.1-3.7-2.8-6-3.1-7.3C25.4,3.9,18.9,7.2,15,9.3c-5,2.6-11.6,6.9-13.1,7.9c-0.1,1.1-0.1,4.6,3.5,9.1c1.9,2.3,3.6,5.2,5,7.6
	c-0.6-7.1,2.5-10.5,8.5-14.5c10.7-7,19.4,1.5,19.5,1.6c0.4,0.4,0.4,1,0,1.3c-0.4,0.4-1,0.4-1.3,0c-0.3-0.3-7.8-7.5-17.1-1.4
	c-7.2,4.7-9.3,8.1-6.7,18.2c0.1,0.5-0.1,0.9-0.6,1.1c-0.5,0.2-1,0-1.2-0.5c0-0.1-3.7-7.4-7.6-12.4C-1,21.3,0.1,16.6,0.1,16.4
	c0.1-0.2,0.2-0.4,0.4-0.6c0.1-0.1,7.9-5.2,13.6-8.2C19.2,5,28.6,0.1,28.6,0.1c0.4-0.2,0.9-0.2,1.2,0.1C29.8,0.3,29.8,0.3,29.8,0.4z
	 M39.6,34.7c0,0,0.1,0,0.2,0c0.3-0.1,0.4-0.2,0.5-0.4c0.1-0.4,0-0.8-0.2-1.1c-0.1-0.1-0.2-0.1-0.5-0.1c-0.1,0-0.3,0.1-0.5,0.2
	c0,0.1,0.1,0.2,0.1,0.3C39.3,34.1,39.5,34.6,39.6,34.7z M28.1,31.3c2-1.1,4-2.3,6-3.5c-0.9-1-1.8-1.6-2.8-1.8
	c-0.9-0.2-1.8,0.1-2.7,0.8C27.3,28,27.3,29.4,28.1,31.3z M36.7,32.4c-0.3-0.6-0.6-1.4-1-2.2c-0.2-0.3-0.3-0.7-0.5-1
	c-2.1,1.3-4.3,2.5-6.3,3.7c0.2,0.3,0.4,0.7,0.6,1c0.3,0.6,0.6,1.2,0.9,1.8C32.8,34.5,35.1,33.3,36.7,32.4z M28.7,36.7
	c-0.3-0.6-0.6-1.2-0.9-1.8c-0.2-0.3-0.4-0.7-0.5-1c-2.6,1.5-4.9,2.8-6.7,3.7c0.3,0.6,0.6,1.4,0.9,2.2c0.1,0.2,0.2,0.4,0.3,0.6
	C23.9,39.3,26.4,38,28.7,36.7z M22.8,42c1.3,1.4,3,1.9,4.4,1.6c1.2-0.2,2.6-1.1,2.6-2.9c0-0.8-0.2-1.5-0.4-2.3
	C27.3,39.6,25.1,40.8,22.8,42z M18.1,36.8c-0.3-0.6-0.5-1-0.7-1.2c-0.3,0.3-0.4,0.9-0.3,1.4c0.1,0.2,0.1,0.2,0.2,0.2
	C17.5,37.1,17.8,37,18.1,36.8z"/>
</symbol><symbol id="advantages_icon_3" viewBox="0 0 59 70">
	<path d="M50.4,19.6c-1.6-1.6-3.4-3-5.2-4.2l1.7-2.9l2.9,1.7c0.2,0.1,0.3,0.1,0.5,0.1c0.4,0,0.7-0.2,0.9-0.5
		c0.3-0.5,0.1-1.1-0.4-1.4l-7.6-4.4C42.7,7.8,42,8,41.8,8.5c-0.3,0.5-0.1,1.1,0.4,1.4l2.9,1.7l-1.7,2.9c-2.9-1.6-6.1-2.6-9.5-3.1
		c1.3-1.2,2.1-2.9,2.1-4.8C36,2.9,33.1,0,29.5,0S23,2.9,23,6.5c0,1.9,0.8,3.6,2.1,4.8c-3.3,0.5-6.5,1.6-9.5,3.1L14,11.5l2.9-1.7
		c0.5-0.3,0.7-0.9,0.4-1.4s-0.9-0.7-1.4-0.4l-7.6,4.4c-0.5,0.3-0.7,0.9-0.4,1.4c0.2,0.3,0.5,0.5,0.9,0.5c0.2,0,0.4,0,0.5-0.1
		l2.9-1.7l1.7,2.9c-1.9,1.2-3.6,2.6-5.2,4.2C3.1,25.2,0,32.6,0,40.5s3.1,15.3,8.6,20.9s13,8.6,20.9,8.6s15.3-3.1,20.9-8.6
		s8.6-13,8.6-20.9S56,25.2,50.4,19.6z M25.1,6.5c0-2.5,2-4.5,4.5-4.5s4.5,2,4.5,4.5S32,11,29.5,11S25.1,9,25.1,6.5z M29.5,67.9
		c-15.1,0-27.5-12.3-27.5-27.5S14.4,13,29.5,13S57,25.3,57,40.5S44.7,67.9,29.5,67.9z"/>
	<path d="M30.5,36.3V20.8c0-0.6-0.5-1-1-1s-1,0.5-1,1v15.5c-1.9,0.5-3.3,2.2-3.3,4.2c0,2,1.4,3.7,3.3,4.2v5.7c0,0.6,0.5,1,1,1
		s1-0.5,1-1v-5.7c1.9-0.5,3.3-2.2,3.3-4.2c0-1.1-0.4-2.1-1.1-2.9C32.2,36.9,31.4,36.5,30.5,36.3z M29.5,42.7c-1.2,0-2.3-1-2.3-2.3
		c0-1.2,1-2.3,2.3-2.3c0.6,0,1.3,0.3,1.7,0.8c0.4,0.4,0.6,0.9,0.6,1.5C31.8,41.7,30.8,42.7,29.5,42.7z"/>
	<path d="M29.5,15.3c-13.9,0-25.1,11.3-25.1,25.1s11.3,25.1,25.1,25.1s25.1-11.3,25.1-25.1S43.4,15.3,29.5,15.3z M29.5,63.6
		c-12.7,0-23.1-10.4-23.1-23.1s10.4-23.1,23.1-23.1s23.1,10.4,23.1,23.1S42.2,63.6,29.5,63.6z"/>
</symbol><symbol id="cart_child" viewBox="0 0 25.4 26">
<ellipse fill="#F07C51" cx="12.2" cy="3.8" rx="3.7" ry="3.8"/>
		<path fill="#F07C51" d="M4.2,11.9L0.6,15c-0.7,0.6-0.8,1.7-0.2,2.4c0.3,0.4,0.8,0.6,1.3,0.6c0.4,0,0.8-0.1,1.1-0.4l5.7-4.8
			C7.3,11.3,5.9,10.6,4.2,11.9z"/>
		<path fill="#F07C51" d="M3.2,18.2L3.2,18.2L3.2,18.2v1.5c-1.3,0.4-2.2,1.6-2.2,3C1,24.6,2.5,26,4.3,26s3.2-1.4,3.2-3.2
			c0-1.5-1-2.7-2.4-3.1v-0.8l1.9-1.6c1.9,0.8,3,1.9,6.7,1.6c0.7-0.1,1.3-0.3,1.8-0.6l2.2,2.5C17.3,21.2,17,22,17,22.8
			c0,1.8,1.4,3.2,3.2,3.2c1.8,0,3.2-1.4,3.2-3.2c0-1.8-1.4-3.2-3.2-3.2c-0.2,0-0.5,0-0.7,0.1l-2.6-2.9c1.5-2.5,1.8-6.5,1.3-9
			c0-0.1,0.1-0.2,0.1-0.2c0.7-0.7,1.4-1.5,2.1-2.3c0.5-0.5,0.9-0.8,1.5-1.1c0.6-0.3,1.1-0.1,1.6,0.3c0.1,0,0.1,0.1,0.1,0.1
			c0,0,0,0,0,0c0.8,0.9,0.2,1.9-0.5,2.6c-0.7,0.6,0.3,1.6,1,1c1.2-1.1,1.7-2.6,0.9-4c0-0.1-0.3-0.4-0.7-0.8
			c-0.5-0.4-1.1-0.7-1.9-0.7c-0.7,0-1.5,0.4-2.1,0.9c-1.3,1-2.3,2.4-3.4,3.5c0,0,0,0,0,0c0,0-0.1,0.1-0.1,0.1c0,0-6.8,5.6-10.8,8.9
			L3.2,18.2z"/>
</symbol><symbol id="cart_date" viewBox="0 0 25.4 26">
<path fill="#F07C51" d="M9.2,14.3c0-0.3-0.3-0.6-0.6-0.6H6.5c-0.3,0-0.6,0.3-0.6,0.6v2.1c0,0.3,0.3,0.6,0.6,0.6h2.1
			c0.3,0,0.6-0.3,0.6-0.6L9.2,14.3L9.2,14.3z"/>
<path fill="#F07C51" d="M14.3,14.3c0-0.3-0.3-0.6-0.6-0.6h-2.1c-0.3,0-0.6,0.3-0.6,0.6v2.1c0,0.3,0.3,0.6,0.6,0.6h2.1
	c0.3,0,0.6-0.3,0.6-0.6V14.3z"/>
<path fill="#F07C51" d="M19.5,14.3c0-0.3-0.3-0.6-0.6-0.6h-2.1c-0.3,0-0.6,0.3-0.6,0.6v2.1c0,0.3,0.3,0.6,0.6,0.6h2.1
	c0.3,0,0.6-0.3,0.6-0.6V14.3z"/>
<path fill="#F07C51" d="M9.2,19.5c0-0.3-0.3-0.6-0.6-0.6H6.5c-0.3,0-0.6,0.3-0.6,0.6v2.1c0,0.3,0.3,0.6,0.6,0.6h2.1
	c0.3,0,0.6-0.3,0.6-0.6L9.2,19.5L9.2,19.5z"/>
<path fill="#F07C51" d="M14.3,19.5c0-0.3-0.3-0.6-0.6-0.6h-2.1c-0.3,0-0.6,0.3-0.6,0.6v2.1c0,0.3,0.3,0.6,0.6,0.6h2.1
	c0.3,0,0.6-0.3,0.6-0.6V19.5z"/>
<path fill="#F07C51" d="M19.5,19.5c0-0.3-0.3-0.6-0.6-0.6h-2.1c-0.3,0-0.6,0.3-0.6,0.6v2.1c0,0.3,0.3,0.6,0.6,0.6h2.1
	c0.3,0,0.6-0.3,0.6-0.6L19.5,19.5L19.5,19.5z"/>
<path fill="#F07C51" d="M23.2,2.9V6c0,1.4-1.2,2.6-2.6,2.6H19c-1.4,0-2.6-1.1-2.6-2.6V2.9H9.1V6c0,1.4-1.2,2.6-2.6,2.6H4.8
	C3.4,8.6,2.3,7.5,2.3,6V2.9C1,2.9,0,4,0,5.2v18.4C0,24.9,1,26,2.3,26h20.8c1.3,0,2.3-1.1,2.3-2.3V5.2C25.4,4,24.4,2.9,23.2,2.9z
	 M22.4,22.5c0,0.6-0.5,1-1,1H4c-0.6,0-1-0.5-1-1V13c0-0.6,0.5-1,1-1h17.4c0.6,0,1,0.5,1,1L22.4,22.5L22.4,22.5z"/>
<path fill="#F07C51" d="M4.8,6.9h1.6c0.5,0,0.9-0.4,0.9-0.9V0.9C7.3,0.4,6.9,0,6.4,0H4.8C4.3,0,3.9,0.4,3.9,0.9V6
	C3.9,6.5,4.3,6.9,4.8,6.9z"/>
<path fill="#F07C51" d="M18.9,6.9h1.6c0.5,0,0.9-0.4,0.9-0.9V0.9C21.4,0.4,21,0,20.5,0h-1.6c-0.5,0-0.9,0.4-0.9,0.9V6
	C18.1,6.5,18.5,6.9,18.9,6.9z"/>
</symbol><symbol id="cart_icon" viewBox="0 0 45 41.1">
	<path fill="#FFFFFF" d="M44.8,4.5c-0.2-0.2-0.5-0.5-0.8-0.5H4.8L4.2,0.7c0-0.2-0.5-0.6-0.8-0.7C3.3,0,3.2,0,3,0H1C0.5,0,0,0.5,0,1
		s0.5,1,1,1h1.4L3,5.3c0,0,0,0,0,0.1l0.2,0.8l0.1,1c0,0,0,0.1,0.1,0.1l3.6,16.4c0.1,0.5,0.6,0.8,1,0.8h28.8c0.5,0,0.8-0.2,0.9-0.7
		l7.1-18.5C45,5.2,45,4.8,44.8,4.5L44.8,4.5z M36.1,22.5H8.9L5.3,6.2h37.3L36.1,22.5z"/>
	<path fill="#FFFFFF" d="M33,31.9c-2.6,0-4.6,2-4.6,4.6c0,2.6,2,4.6,4.6,4.6s4.6-2,4.6-4.6C37.7,33.9,35.6,31.9,33,31.9z M33,39.1
		c-1.5,0-2.6-1.1-2.6-2.6c0-1.5,1.1-2.6,2.6-2.6c1.5,0,2.6,1.1,2.6,2.6C35.7,37.9,34.5,39.1,33,39.1z"/>
	<path fill="#FFFFFF" d="M15.4,31.9c-2.6,0-4.6,2-4.6,4.6c0,2.6,2,4.6,4.6,4.6s4.6-2,4.6-4.6C20.2,33.9,18,31.9,15.4,31.9z
		 M15.4,39.1c-1.5,0-2.6-1.1-2.6-2.6c0-1.5,1.1-2.6,2.6-2.6c1.5,0,2.6,1.1,2.6,2.6C18.1,37.9,16.9,39.1,15.4,39.1z"/>
	<path fill="#FFFFFF" d="M37,28.7H6.8c-2.7,0-4.2,2-4.2,4.4s1.5,4.6,4.2,4.6c0.6,0,1-0.6,1-1.1c0-0.6-0.5-1-1-1
		c-1.7,0-2.1-1.4-2.1-2.4c0-1,0.5-2.4,2.1-2.4H37c0.6,0,1-0.5,1-1C38.1,29.2,37.6,28.7,37,28.7L37,28.7z"/>
</symbol><symbol id="cart_man" viewBox="0 0 26 26">
<path fill="#F07C51" d="M21.1,17.9h-1.6c-1.8,0-3.3-1.5-3.3-3.3v-1c0.7-0.9,1.2-1.9,1.6-2.9c0-0.2,0.2-0.3,0.3-0.4
		c0.6-0.6,0.7-1.7,0.3-2.4c-0.1-0.1-0.2-0.2-0.2-0.4c0-1,0-1.9,0-2.9c0-1.1-0.4-2.3-1.2-3.2c-0.7-0.7-1.5-1.1-2.5-1.3
		c-1.2-0.2-2.4-0.2-3.5,0.1c-1,0.3-1.9,0.8-2.5,1.7C8,2.7,7.8,3.6,7.8,4.5c0,1,0,1.9,0,2.9c0,0.2-0.1,0.3-0.2,0.5
		C7.1,8.7,7.3,9.8,8,10.4c0.2,0.1,0.2,0.3,0.3,0.5c0.3,1,0.8,1.8,1.5,2.6v1.1c0,1.8-1.5,3.3-3.3,3.3H4.9c0,0-2.9,0.8-4.9,4.9v1.6
		C0,25.3,0.7,26,1.6,26h22.8c0.9,0,1.6-0.7,1.6-1.6v-1.6C24.1,18.7,21.1,17.9,21.1,17.9z"/>
</symbol><symbol id="cart_time" viewBox="0 0 26 26">
<path fill="#F07C51" d="M13,0C5.8,0,0,5.8,0,13s5.8,13,13,13s13-5.8,13-13S20.2,0,13,0z M13,23.2C7.4,23.2,2.8,18.6,2.8,13
			S7.4,2.8,13,2.8S23.2,7.4,23.2,13S18.6,23.2,13,23.2z"/>
<path fill="#F07C51" d="M19.8,12.6h-5.8v-7c0-0.6-0.5-1.1-1.1-1.1c-0.6,0-1.1,0.5-1.1,1.1v8.1c0,0.6,0.5,1.1,1.1,1.1h6.9
	c0.6,0,1.1-0.5,1.1-1.1C20.8,13.1,20.4,12.6,19.8,12.6z"/>
</symbol><symbol id="close" viewBox="0 0 20 20">
<path fill="#F07C51" d="M17.1,2.9C15.2,1,12.7,0,10,0S4.8,1,2.9,2.9S0,7.3,0,10s1,5.2,2.9,7.1S7.3,20,10,20s5.2-1,7.1-2.9
			S20,12.7,20,10S19,4.8,17.1,2.9z M16.3,16.3c-1.7,1.7-3.9,2.6-6.3,2.6s-4.6-0.9-6.3-2.6c-3.5-3.5-3.5-9.1,0-12.5
			C5.4,2.1,7.6,1.1,10,1.1s4.6,0.9,6.3,2.6C19.7,7.2,19.7,12.8,16.3,16.3z"/>
<path fill="#F07C51" d="M14.4,5.6c-0.2-0.2-0.6-0.2-0.8,0L10,9.2L6.4,5.6c-0.2-0.2-0.6-0.2-0.8,0s-0.2,0.6,0,0.8L9.2,10l-3.6,3.6
	c-0.2,0.2-0.2,0.6,0,0.8c0.1,0.1,0.3,0.2,0.4,0.2s0.3-0.1,0.4-0.2l3.6-3.6l3.6,3.6c0.1,0.1,0.3,0.2,0.4,0.2c0.1,0,0.3-0.1,0.4-0.2
	c0.2-0.2,0.2-0.6,0-0.8L10.8,10l3.6-3.6C14.6,6.2,14.6,5.8,14.4,5.6z"/>
</symbol><symbol id="coast_bell" viewBox="0 0 48 48">
<circle fill="#F07C51" cx="24" cy="24" r="24"/>
<path fill="#FFFFFF" d="M22.7,19.1C22.6,19,22.5,19,22.3,19c0,0-0.7,0.1-1.5,0.6c-0.7,0.5-1.7,1.4-2.1,3c-0.1,0.2,0.1,0.5,0.3,0.6
		c0,0,0.1,0,0.1,0c0.2,0,0.4-0.1,0.4-0.3c0.3-1.1,0.9-1.9,1.7-2.4c0.6-0.4,1.2-0.5,1.2-0.5c0.2,0,0.4-0.3,0.4-0.5
		C22.8,19.3,22.8,19.2,22.7,19.1z"/>
<path fill="#FFFFFF" d="M32.1,27.6c-0.2-0.2-0.4-0.2-0.6-0.2h-0.2v-0.3c0-0.5-0.4-0.8-0.8-0.8H17.5c-0.5,0-0.8,0.4-0.8,0.8v0.3h-0.2
	c-0.5,0-0.8,0.4-0.8,0.8v1.1c0,0.5,0.4,0.8,0.8,0.8h15.1c0.5,0,0.8-0.4,0.8-0.8v-1.1C32.4,28,32.3,27.8,32.1,27.6z M30.9,28.3h0.5
	v0.9H16.6v-0.9h0.5c0.3,0,0.5-0.2,0.5-0.5v-0.6h12.9v0.6C30.4,28.1,30.6,28.3,30.9,28.3z"/>
<path fill="#FFFFFF" d="M17.1,26.1h13.7c0.5,0,0.8-0.4,0.8-0.8v-0.8c0-0.4-0.3-0.7-0.6-0.8c-0.1-1.7-0.9-3.3-2.1-4.5
	c-1-1-2.3-1.6-3.7-1.9v-1h0c0.7,0,1.3-0.6,1.3-1.3c0-0.7-0.6-1.3-1.3-1.3h-2.5c-0.7,0-1.3,0.6-1.3,1.3c0,0.7,0.6,1.3,1.3,1.3h0v1
	c-1.4,0.2-2.7,0.9-3.7,1.9c-1.2,1.2-2,2.8-2.1,4.5c-0.4,0.1-0.6,0.4-0.6,0.8v0.8C16.3,25.7,16.7,26.1,17.1,26.1z M25.3,15.5h-2.5
	c-0.2,0-0.3-0.2-0.3-0.3c0-0.2,0.2-0.3,0.3-0.3h2.5c0.2,0,0.3,0.2,0.3,0.3C25.6,15.3,25.5,15.5,25.3,15.5z M24.3,16.4v0.8h-0.6
	v-0.8H24.3z M17.9,23.7c0.3-3.1,2.9-5.5,6.1-5.5s5.8,2.4,6.1,5.5H17.9z M17.2,25.2v-0.6h13.5v0.6H17.2z"/>
</symbol><symbol id="coast_boat" viewBox="0 0 48 48">
<circle fill="#F07C51" cx="24" cy="24" r="24"/>
<path fill="#FFFFFF" d="M27.7,19.4c0-0.2-0.2-0.4-0.4-0.4h-6.4c-0.2,0-0.4,0.2-0.4,0.4c0,0.2,0.2,0.4,0.4,0.4h6.4
		C27.5,19.8,27.7,19.6,27.7,19.4z"/>
	<path fill="#FFFFFF" d="M17.6,29.3c0,0.2,0.2,0.4,0.4,0.4c0,0,0,0,0.1,0c0.1,0,0.2-0.1,0.3-0.2c0.1-0.1,0.1-0.2,0.1-0.3L17.7,24
		l5.8-2.5v7.8c0,0.2,0.2,0.4,0.4,0.4c0.2,0,0.4-0.2,0.4-0.4v-7.8l5.8,2.5l-0.7,5.1c0,0.1,0,0.2,0.1,0.3c0.1,0.1,0.2,0.2,0.3,0.2
		c0.1,0,0.2,0,0.3-0.1c0.1-0.1,0.2-0.2,0.2-0.3l0.8-5.5c0-0.2-0.1-0.4-0.3-0.5L29,22.5l-0.2-3.7c0-0.6-0.6-1.1-1.2-1.1H26v-2.2
		c0-0.2-0.1-0.3-0.2-0.4c0,0-0.7-0.4-1.7-0.4c-1,0-1.7,0.3-1.7,0.4c-0.1,0.1-0.2,0.2-0.2,0.4v2.2h-1.6c-0.6,0-1.1,0.5-1.2,1.1
		L19,22.5l-1.9,0.8c-0.2,0.1-0.3,0.3-0.3,0.5L17.6,29.3z M24,15.7c0.5,0,0.8,0.1,1.1,0.2v1.9h-2.1v-1.9C23.2,15.8,23.5,15.7,24,15.7
		z M23.8,20.4c0,0-0.4,0.2-3.9,1.7l0.2-3.2c0-0.2,0.2-0.3,0.3-0.3h7.2c0.2,0,0.3,0.1,0.3,0.3l0.2,3.2l-3.9-1.7c0,0,0,0,0,0l0,0
		c0,0-0.1,0-0.1,0c0,0-0.1,0-0.1,0C23.9,20.4,23.9,20.4,23.8,20.4L23.8,20.4C23.8,20.4,23.8,20.4,23.8,20.4L23.8,20.4z M28.5,23.1
		L28.5,23.1L28.5,23.1L28.5,23.1z"/>
	<path fill="#FFFFFF" d="M15.3,30.8c0.5,0,1-0.2,1.4-0.5c0.4,0.3,0.9,0.5,1.4,0.5c0.5,0,1-0.2,1.5-0.5c0.4,0.3,0.9,0.5,1.4,0.5
		c0.5,0,1-0.2,1.5-0.5c0.4,0.3,0.9,0.5,1.4,0.5c0.5,0,1-0.2,1.4-0.5c0.4,0.3,0.9,0.5,1.4,0.5c0.5,0,1-0.2,1.4-0.5
		c0.4,0.3,0.9,0.5,1.4,0.5c0.5,0,1-0.2,1.4-0.5c0.4,0.3,0.9,0.5,1.4,0.5c0.2,0,0.4-0.2,0.4-0.4c0-0.2-0.2-0.4-0.4-0.4
		c-0.4,0-0.8-0.2-1.1-0.6c-0.1-0.1-0.2-0.2-0.4-0.2c-0.1,0-0.3,0.1-0.4,0.2c-0.3,0.3-0.7,0.6-1.1,0.6c-0.4,0-0.8-0.2-1.1-0.6
		c-0.1-0.1-0.2-0.2-0.4-0.2s-0.3,0.1-0.4,0.2c-0.3,0.3-0.7,0.6-1.1,0.6c-0.4,0-0.8-0.2-1.1-0.6c-0.1-0.1-0.2-0.2-0.4-0.2
		c-0.1,0-0.3,0.1-0.4,0.2C24.8,29.8,24.4,30,24,30c-0.4,0-0.8-0.2-1.1-0.6c-0.1-0.1-0.2-0.2-0.4-0.2c-0.1,0-0.3,0.1-0.4,0.2
		c-0.3,0.4-0.7,0.6-1.1,0.6c-0.4,0-0.8-0.2-1.1-0.6c-0.1-0.1-0.2-0.2-0.4-0.2c-0.1,0-0.3,0.1-0.4,0.2C19,29.8,18.6,30,18.2,30
		c-0.4,0-0.8-0.2-1.1-0.6c-0.1-0.1-0.2-0.2-0.4-0.2c-0.1,0-0.3,0.1-0.4,0.2c-0.3,0.4-0.7,0.6-1.1,0.6c-0.2,0-0.4,0.2-0.4,0.4
		C14.9,30.6,15.1,30.8,15.3,30.8z"/>
	<path fill="#FFFFFF" d="M32.7,32.3c-0.4,0-0.8-0.2-1.1-0.6c-0.1-0.1-0.2-0.2-0.4-0.2c-0.1,0-0.3,0.1-0.4,0.2c-0.3,0.3-0.7,0.6-1.1,0.6
		c-0.4,0-0.8-0.2-1.1-0.6c-0.1-0.1-0.2-0.2-0.4-0.2s-0.3,0.1-0.4,0.2c-0.3,0.3-0.7,0.6-1.1,0.6c-0.4,0-0.8-0.2-1.1-0.6
		c-0.1-0.1-0.2-0.2-0.4-0.2c-0.1,0-0.3,0.1-0.4,0.2c-0.3,0.3-0.7,0.6-1.1,0.6c-0.4,0-0.8-0.2-1.1-0.6c-0.1-0.1-0.2-0.2-0.4-0.2
		c-0.1,0-0.3,0.1-0.4,0.2c-0.3,0.4-0.7,0.6-1.1,0.6c-0.4,0-0.8-0.2-1.1-0.6c-0.1-0.1-0.2-0.2-0.4-0.2c-0.1,0-0.3,0.1-0.4,0.2
		c-0.3,0.3-0.7,0.6-1.1,0.6c-0.4,0-0.8-0.2-1.1-0.6c-0.1-0.1-0.2-0.2-0.4-0.2c-0.1,0-0.3,0.1-0.4,0.2c-0.3,0.4-0.7,0.6-1.1,0.6
		c-0.2,0-0.4,0.2-0.4,0.4s0.2,0.4,0.4,0.4c0.5,0,1-0.2,1.4-0.5c0.4,0.3,0.9,0.5,1.4,0.5c0.5,0,1-0.2,1.5-0.5
		c0.4,0.3,0.9,0.5,1.4,0.5c0.5,0,1-0.2,1.5-0.5c0.4,0.3,0.9,0.5,1.4,0.5c0.5,0,1-0.2,1.4-0.5c0.4,0.3,0.9,0.5,1.4,0.5
		c0.5,0,1-0.2,1.4-0.5c0.4,0.3,0.9,0.5,1.4,0.5c0.5,0,1-0.2,1.4-0.5c0.4,0.3,0.9,0.5,1.4,0.5c0.2,0,0.4-0.2,0.4-0.4
		S32.9,32.3,32.7,32.3z"/>
</symbol><symbol id="coast_bus" viewBox="0 0 48 48">
<circle fill="#F07C51" cx="24" cy="24" r="24"/>
<g>
	<path fill="#FFFFFF" d="M16.8,29.8c-0.2,0-0.3,0.1-0.3,0.3c0,0.2,0.1,0.3,0.3,0.3c0.2,0,0.3-0.1,0.3-0.3C17.1,30,16.9,29.8,16.8,29.8z
		 M16.8,30.2C16.7,30.2,16.7,30.2,16.8,30.2c-0.1-0.1,0-0.2,0-0.2S16.8,30.1,16.8,30.2C16.8,30.2,16.8,30.2,16.8,30.2z"/>
	<path fill="#FFFFFF" d="M31.2,29.9c-0.2,0-0.3,0.1-0.3,0.3c0,0.2,0.1,0.3,0.3,0.3s0.3-0.1,0.3-0.3C31.5,30,31.4,29.9,31.2,29.9z
		 M31.2,30.2C31.2,30.2,31.2,30.2,31.2,30.2c-0.1-0.1,0-0.2,0-0.2S31.3,30.1,31.2,30.2C31.3,30.2,31.3,30.2,31.2,30.2z"/>
	<path fill="#FFFFFF" d="M37.3,27.7v-4.8v-5.2c0-1.6-1.3-2.9-2.9-2.9H15.3c-2.5,0-4.6,2-4.6,4.6v8.4c-0.4,0.3-0.6,0.8-0.6,1.3v0.1
		c0,0.9,0.7,1.6,1.6,1.6h2.1c0.2,1.4,1.5,2.5,3,2.5c1.5,0,2.8-1.1,3-2.5h8.5c0.2,1.4,1.5,2.5,3,2.5c1.5,0,2.8-1.1,3-2.5h2.1
		c0.9,0,1.6-0.7,1.6-1.6V29C37.9,28.5,37.7,28,37.3,27.7z M36.3,22.4h-1.4c-0.1,0-0.1-0.1-0.1-0.1v-3.9c0-0.1,0.1-0.1,0.1-0.1h1.4
		V22.4z M11.1,29.1L11.1,29.1c0-0.4,0.3-0.7,0.6-0.7h2.6c-0.3,0.4-0.4,0.8-0.5,1.3h-2.1C11.3,29.7,11.1,29.4,11.1,29.1z M16.8,32.2
		c-1.1,0-2-0.9-2-2c0-1.1,0.9-2,2-2s2,0.9,2,2C18.8,31.3,17.9,32.2,16.8,32.2z M28.2,29.7h-8.5c-0.2-1.4-1.5-2.5-3-2.5
		c-0.5,0-0.9,0.1-1.3,0.3h-3.8v-8c0-2,1.6-3.5,3.5-3.5h19.1c0.9,0,1.6,0.6,1.9,1.4h-1.3c-0.6,0-1.1,0.5-1.1,1.1v3.9
		c0,0.6,0.5,1.1,1.1,1.1h1.4v3.9h-3.8c-0.4-0.2-0.8-0.3-1.3-0.3C29.7,27.1,28.5,28.2,28.2,29.7z M31.2,32.2c-1.1,0-2-0.9-2-2
		c0-1.1,0.9-2,2-2c1.1,0,2,0.9,2,2C33.3,31.3,32.4,32.2,31.2,32.2z M36.9,29.1c0,0.3-0.3,0.6-0.6,0.6h-2.1c-0.1-0.5-0.3-0.9-0.5-1.3
		h2.6C36.7,28.4,36.9,28.7,36.9,29.1L36.9,29.1z"/>
	<path fill="#FFFFFF" d="M32.2,22.3v-3.9c0-0.6-0.5-1.1-1.1-1.1H15.4c-1.4,0-2.5,1.1-2.5,2.5v2.6c0,0.6,0.5,1.1,1.1,1.1h17
		C31.7,23.4,32.2,22.9,32.2,22.3z M23.1,18.2h4v4.2h-4V18.2z M22.1,22.4h-4v-4.2h4V22.4z M14,22.3v-2.6c0-0.8,0.6-1.4,1.4-1.4H17
		v4.2h-3C14,22.4,14,22.4,14,22.3z M31.2,22.3c0,0.1-0.1,0.1-0.1,0.1h-3v-4.2h3c0.1,0,0.1,0.1,0.1,0.1V22.3z"/>
	<path fill="#FFFFFF" d="M35.2,26.6c0.3,0,0.5-0.2,0.5-0.5v-0.5c0-0.3-0.2-0.5-0.5-0.5s-0.5,0.2-0.5,0.5v0.5
		C34.6,26.4,34.9,26.6,35.2,26.6z"/>
</g>
</symbol><symbol id="coast_car" viewBox="0 0 48 48">
<g>
	<circle fill="#F07C51" cx="24" cy="24" r="24"/>
	<g>
		<path fill="#FFFFFF" d="M18.6,22.9H15c-0.3,0-0.5-0.2-0.5-0.5c0-0.3,0.2-0.5,0.5-0.5h3.5c0.3,0,0.5,0.2,0.5,0.5
			C19.1,22.7,18.9,22.9,18.6,22.9z M17.1,25h2c0.3,0,0.5-0.2,0.5-0.5S19.4,24,19.1,24h-2c-0.3,0-0.5,0.2-0.5,0.5S16.8,25,17.1,25z
			 M14.5,24.5c0-0.3-0.2-0.5-0.5-0.5h-1.2c-0.3,0-0.5,0.2-0.5,0.5s0.2,0.5,0.5,0.5H14C14.3,25,14.5,24.7,14.5,24.5z M21.2,20.3
			c0-0.3-0.2-0.5-0.5-0.5h-8.4c-0.3,0-0.5,0.2-0.5,0.5c0,0.3,0.2,0.5,0.5,0.5h8.4C20.9,20.9,21.2,20.6,21.2,20.3z M36.2,26.6l0,0.5
			c0,0.3,0,0.6,0,1.1c0,0.8-0.6,1.5-1.5,1.7c-0.2,1.6-1.6,2.8-3.2,2.8c-1.8,0-3.2-1.5-3.2-3.2c0-1.8,1.5-3.2,3.2-3.2
			c1.6,0,2.9,1.1,3.2,2.6c0.3-0.1,0.5-0.4,0.5-0.7c0-0.4,0-0.8,0-1.1l0-0.5c0-0.6,0-1.4,0-1.8c0-0.1,0-0.2,0-0.3H22.7
			c-1.4,0-1.9-1.2-2-1.6c-0.1-0.3,0-0.6,0.3-0.7c0.3-0.1,0.6,0,0.7,0.3c0.3,0.7,0.6,1,1.1,1H35c-0.2-0.5-0.7-0.9-1.7-1.8
			c-0.2-0.2-0.4-0.4-0.7-0.6c-0.2-0.2-0.4-0.3-0.5-0.5c-0.3-0.2-0.5-0.5-0.8-0.7c-0.2-0.2-0.5-0.4-0.7-0.6c-2.7-2.3-3.5-3-5.9-3
			h-9.3c-0.6,0-1.1,0.4-1.1,0.8v1.2c0,0.3-0.2,0.5-0.5,0.5s-0.5-0.2-0.5-0.5v-1.2c0-1,0.9-1.8,2.1-1.8h9.3c2.7,0,3.8,0.9,6.6,3.2
			c0.2,0.2,0.4,0.4,0.7,0.6c0.3,0.3,0.6,0.5,0.8,0.8c0.2,0.2,0.3,0.3,0.5,0.5c0.2,0.2,0.5,0.4,0.7,0.6c1.7,1.5,2.2,1.9,2.2,3.9
			C36.2,25.2,36.2,26,36.2,26.6z M33.7,29.5C33.7,29.5,33.7,29.4,33.7,29.5c0-1.2-1-2.2-2.2-2.2c-1.2,0-2.2,1-2.2,2.2
			c0,1.2,1,2.2,2.2,2.2C32.7,31.7,33.7,30.7,33.7,29.5z M18.1,28.9L18.1,28.9c-0.3,0-0.5,0.2-0.5,0.5c0,0.3,0.2,0.5,0.5,0.5
			c0.3,0,0.5-0.2,0.5-0.5C18.6,29.2,18.4,28.9,18.1,28.9z M31.5,28.9L31.5,28.9c-0.3,0-0.5,0.2-0.5,0.5c0,0.3,0.2,0.5,0.5,0.5
			c0.3,0,0.5-0.2,0.5-0.5C32,29.2,31.8,28.9,31.5,28.9z M27.2,29.5c0,0.3-0.2,0.5-0.5,0.5h-5.4c-0.2,1.5-1.6,2.7-3.2,2.7
			c-1.6,0-3-1.2-3.2-2.8c-0.6-0.1-1.1-0.5-1.3-1c-0.1-0.2-0.2-0.5-0.2-0.7v-1.5c0-0.3,0.2-0.5,0.5-0.5c0.3,0,0.5,0.2,0.5,0.5v1.5
			c0,0.1,0,0.2,0.1,0.3c0.1,0.2,0.3,0.3,0.5,0.4c0.3-1.5,1.6-2.6,3.2-2.6c1.6,0,3,1.2,3.2,2.7h5.4C27,28.9,27.2,29.2,27.2,29.5z
			 M20.3,29.5c0-1.2-1-2.2-2.2-2.2c-1.2,0-2.2,1-2.2,2.2c0,0,0,0,0,0c0,1.2,1,2.2,2.2,2.2C19.3,31.7,20.3,30.7,20.3,29.5z"/>
	</g>
</g>
</symbol><symbol id="coast_clock" viewBox="0 0 48 48">
<g>
	<circle fill="#F07C51" cx="24" cy="24" r="24"/>
	<g>
		<path fill="#FFFFFF" d="M28.4,23.4h-3.8v-5c0-0.3-0.3-0.6-0.6-0.6c-0.3,0-0.6,0.3-0.6,0.6v5.7l0,0.1l0.1,0.1c0.1,0.2,0.3,0.3,0.5,0.3
			h4.4c0.3,0,0.6-0.3,0.6-0.6C29,23.7,28.7,23.4,28.4,23.4z"/>
		<path fill="#FFFFFF" d="M30.2,17.8c-1.7-1.7-3.9-2.6-6.2-2.6c-2.3,0-4.6,0.9-6.2,2.6c-1.7,1.7-2.6,3.9-2.6,6.2c0,2.4,0.9,4.6,2.6,6.2
			c1.7,1.7,3.9,2.6,6.2,2.6c2.3,0,4.6-0.9,6.2-2.6c1.7-1.7,2.6-3.9,2.6-6.2C32.8,21.7,31.9,19.4,30.2,17.8z M31.6,24
			c0,2-0.8,3.9-2.2,5.4c-1.4,1.4-3.3,2.2-5.4,2.2c-2,0-3.9-0.8-5.4-2.2c-1.4-1.4-2.2-3.3-2.2-5.4c0-2,0.8-3.9,2.2-5.4
			c1.4-1.4,3.3-2.2,5.4-2.2c2,0,3.9,0.8,5.4,2.2l0,0C30.8,20.1,31.6,22,31.6,24z"/>
	</g>
</g>
</symbol><symbol id="coast_food" viewBox="0 0 48 48">
<circle fill="#F07C51" cx="24" cy="24" r="24"/>
<g>
	<path fill="#FFFFFF" d="M24.4,18c-2.2,0-3.9,1.8-3.9,3.9s1.8,3.9,3.9,3.9s3.9-1.8,3.9-3.9S26.6,18,24.4,18z M24.4,24.7
		c-1.6,0-2.8-1.3-2.8-2.8c0-1.6,1.3-2.8,2.8-2.8c1.6,0,2.8,1.3,2.8,2.8C27.2,23.5,26,24.7,24.4,24.7z M30,26.9
		c0.2,0.2,0.2,0.6,0,0.8c-0.1,0.1-0.3,0.2-0.4,0.2c-0.1,0-0.3-0.1-0.4-0.2c0,0,0,0-0.1-0.1c-0.2-0.2-0.3-0.5-0.1-0.8
		c0.2-0.2,0.5-0.3,0.8-0.1C29.9,26.8,30,26.8,30,26.9z M24.4,20c-1,0-1.9,0.8-1.9,1.9c0,1,0.8,1.9,1.9,1.9c1,0,1.9-0.8,1.9-1.9
		S25.5,20,24.4,20z M24.4,22.7c-0.4,0-0.8-0.4-0.8-0.8c0-0.4,0.4-0.8,0.8-0.8c0.4,0,0.8,0.4,0.8,0.8C25.2,22.4,24.9,22.7,24.4,22.7z
		 M18.5,21.9c0-3.3,2.7-5.9,5.9-5.9c1.5,0,2.9,0.6,4,1.6c0.2,0.2,0.2,0.6,0,0.8c-0.2,0.2-0.6,0.2-0.8,0c-0.9-0.8-2.1-1.3-3.3-1.3
		c-2.7,0-4.8,2.2-4.8,4.8s2.2,4.8,4.8,4.8s4.8-2.2,4.8-4.8V21c0-0.8,0.6-1.4,1.4-1.4h2.7c0.2,0,0.3-0.2,0.3-0.3
		c0-0.2-0.2-0.3-0.3-0.3h-2.6c-0.8,0-1.4-0.6-1.4-1.4c0-0.8,0.6-1.4,1.4-1.4h1c0.2,0,0.3-0.2,0.3-0.3c0-0.3,0.2-0.6,0.6-0.6
		c0.3,0,0.6,0.2,0.6,0.6c0,0.8-0.6,1.4-1.4,1.4h-1c-0.2,0-0.3,0.2-0.3,0.3c0,0.2,0.2,0.3,0.3,0.3h2.6c0.8,0,1.4,0.6,1.4,1.4
		c0,0.8-0.6,1.4-1.4,1.4h-2.7c-0.2,0-0.3,0.2-0.3,0.3v0.9c0,3.3-2.7,5.9-5.9,5.9S18.5,25.2,18.5,21.9L18.5,21.9z M30.2,25.8
		c-0.3-0.2-0.3-0.5-0.2-0.8c0.2-0.3,0.5-0.3,0.8-0.2c0.8,0.5,1.4,1.3,1.7,2.2c0.1,0.3-0.1,0.6-0.4,0.7c-0.1,0-0.1,0-0.2,0
		c-0.2,0-0.5-0.2-0.5-0.4C31.2,26.8,30.8,26.2,30.2,25.8L30.2,25.8z M16.1,21.5l0.3,0.8c0.1,0.2,0.3,0.4,0.5,0.4c0.1,0,0.1,0,0.2,0
		c0.3-0.1,0.4-0.4,0.3-0.7l-0.3-0.8c0.9-0.8,1.2-2.2,0.7-3.5c-0.5-1.5-1.9-2.5-3.2-2.3c-0.1,0-0.2,0-0.2,0.1
		c-1.2,0.7-1.6,2.3-1.1,3.8C13.8,20.5,14.9,21.4,16.1,21.5z M14.9,16.3c0.8,0,1.6,0.6,1.9,1.6c0.2,0.7,0.2,1.4-0.1,2l-0.6-1.8
		c-0.1-0.3-0.4-0.4-0.7-0.3c-0.3,0.1-0.4,0.4-0.3,0.7l0.6,1.8c-0.6-0.2-1.1-0.8-1.3-1.5C14.1,17.8,14.3,16.8,14.9,16.3L14.9,16.3z
		 M15.4,27.4c0,0.3-0.3,0.5-0.5,0.5c0,0-0.1,0-0.1,0c-0.3-0.1-0.5-0.3-0.4-0.6c0.3-1.7,1.4-3.2,2.9-4.1c0.3-0.1,0.6-0.1,0.8,0.2
		c0.1,0.3,0.1,0.6-0.2,0.8C16.5,24.7,15.6,25.9,15.4,27.4L15.4,27.4z M34.7,28.6H13.3c-0.3,0-0.6,0.2-0.6,0.6s0.2,0.6,0.6,0.6h4.2
		l1.7,2.8c0.1,0.2,0.3,0.3,0.5,0.3h8.6c0.2,0,0.4-0.1,0.5-0.3l1.7-2.8h4.2c0.3,0,0.6-0.2,0.6-0.6S35,28.6,34.7,28.6z M28,31.8h-8
		l-1.2-2h10.4L28,31.8z M19.9,26.8c0.2,0.3,0.1,0.6-0.2,0.8c-0.1,0-0.1,0.1-0.1,0.1c-0.1,0.1-0.2,0.2-0.4,0.2
		c-0.1,0-0.3-0.1-0.4-0.2c-0.2-0.2-0.2-0.6,0-0.8c0.1-0.1,0.2-0.2,0.3-0.3C19.4,26.4,19.7,26.5,19.9,26.8z M18,24.9
		c0.3-0.2,0.6-0.1,0.8,0.2c0.2,0.3,0.1,0.6-0.2,0.8c-0.6,0.4-1,0.9-1.2,1.6c-0.1,0.2-0.3,0.4-0.5,0.4c-0.1,0-0.1,0-0.2,0
		c-0.3-0.1-0.5-0.4-0.4-0.7C16.6,26.2,17.2,25.4,18,24.9L18,24.9z M33.4,27.4c-0.2-1.3-1.1-2.5-2.2-3.2C31,24,30.9,23.6,31,23.4
		c0.2-0.3,0.5-0.3,0.8-0.2c1.4,0.9,2.4,2.3,2.7,4c0.1,0.3-0.1,0.6-0.4,0.6c0,0-0.1,0-0.1,0C33.7,27.8,33.5,27.6,33.4,27.4L33.4,27.4
		z"/>
</g>
</symbol><symbol id="coast_ghost" viewBox="0 0 48 48">
<circle fill="#F07C51" cx="24" cy="24" r="24"/>
<g>
	<path fill="#FFFFFF" d="M30.6,31.5l-1.9-12.6c-0.2-1.1-0.7-2.2-1.6-2.9c-0.9-0.8-2-1.2-3.1-1.2c-1.1,0-2.3,0.4-3.1,1.2
		c-0.9,0.8-1.4,1.8-1.6,2.9l-1.9,12.6c-0.1,0.5,0.2,1,0.7,1.2c0.2,0,0.3,0.1,0.4,0.2c0.3,0.2,0.6,0.4,1.3,0.4c0.6,0,1-0.2,1.3-0.4
		c0.2-0.1,0.4-0.3,0.8-0.3c0.4,0,0.6,0.1,0.8,0.3c0.3,0.2,0.6,0.4,1.3,0.4c0.6,0,1-0.2,1.3-0.4c0.2-0.1,0.4-0.3,0.8-0.3
		c0.4,0,0.6,0.1,0.8,0.3c0.3,0.2,0.6,0.4,1.3,0.4c0.6,0,1-0.2,1.3-0.4c0.1-0.1,0.3-0.2,0.4-0.2C30.4,32.5,30.7,32,30.6,31.5z
		 M24,32.4c-0.4,0-0.6-0.1-0.8-0.3c-0.3-0.2-0.6-0.4-1.3-0.4c-0.6,0-1,0.2-1.3,0.4c-0.2,0.1-0.4,0.3-0.8,0.3c-0.4,0-0.6-0.1-0.8-0.3
		c-0.2-0.1-0.3-0.2-0.6-0.3c-0.1,0-0.2-0.1-0.2-0.2L20.1,19c0.1-0.9,0.6-1.8,1.3-2.4c0.7-0.6,1.6-1,2.6-1s1.9,0.3,2.6,1
		c0.7,0.6,1.2,1.5,1.3,2.4l1.9,12.6c0,0.1-0.1,0.2-0.2,0.2c-0.2,0.1-0.4,0.2-0.6,0.3c-0.2,0.1-0.4,0.3-0.8,0.3
		c-0.4,0-0.6-0.1-0.8-0.3c-0.3-0.2-0.6-0.4-1.3-0.4c-0.6,0-1,0.2-1.3,0.4C24.6,32.3,24.4,32.4,24,32.4z"/>
	<path fill="#FFFFFF" d="M22.8,18.8c-0.6,0-1,0.5-1,1v1.3c0,0.6,0.5,1,1,1c0.6,0,1-0.5,1-1v-1.3C23.8,19.3,23.3,18.8,22.8,18.8z
		 M22.6,19.9c0-0.1,0.1-0.2,0.2-0.2s0.2,0.1,0.2,0.2v1.3c0,0.1-0.1,0.2-0.2,0.2s-0.2-0.1-0.2-0.2V19.9z"/>
	<path fill="#FFFFFF" d="M26.3,19.9c0-0.6-0.5-1-1-1s-1,0.5-1,1v1.3c0,0.6,0.5,1,1,1s1-0.5,1-1V19.9z M25.1,19.9c0-0.1,0.1-0.2,0.2-0.2
		s0.2,0.1,0.2,0.2v1.3c0,0.1-0.1,0.2-0.2,0.2s-0.2-0.1-0.2-0.2V19.9z"/>
	<path fill="#FFFFFF" d="M19.8,27c-0.1,0-0.2,0-0.3,0.1c-0.1,0.1-0.1,0.2-0.2,0.3l-0.6,3.8c0,0.2,0.1,0.4,0.3,0.5c0,0,0,0,0.1,0
		c0.2,0,0.4-0.2,0.4-0.4l0.6-3.8C20.1,27.3,20,27.1,19.8,27z"/>
	<path fill="#FFFFFF" d="M24.8,17c0.2,0.1,0.4,0.1,0.5,0.2c0.1,0,0.1,0.1,0.2,0.1c0.1,0,0.3-0.1,0.4-0.2c0.1-0.2,0.1-0.4-0.1-0.6
		c-0.2-0.1-0.5-0.2-0.7-0.3c-0.2-0.1-0.4,0-0.5,0.3c0,0.1,0,0.2,0,0.3C24.7,16.9,24.7,16.9,24.8,17z"/>
	<path fill="#FFFFFF" d="M20,25.1c-0.1,0-0.2,0-0.3,0.1c-0.1,0.1-0.1,0.2-0.2,0.3l-0.1,0.6c0,0.1,0,0.2,0.1,0.3
		c0.1,0.1,0.2,0.1,0.3,0.2c0,0,0,0,0.1,0c0.2,0,0.4-0.2,0.4-0.4l0.1-0.6C20.4,25.4,20.3,25.2,20,25.1z"/>
	<path fill="#FFFFFF" d="M26.7,19.1l0.4,2.7c0,0.2,0.2,0.4,0.4,0.4c0,0,0,0,0.1,0c0.1,0,0.2-0.1,0.3-0.2c0.1-0.1,0.1-0.2,0.1-0.3
		L27.5,19v0c-0.1-0.6-0.3-1.1-0.7-1.6c-0.1-0.2-0.4-0.2-0.6-0.1c-0.1,0.1-0.1,0.2-0.2,0.3c0,0.1,0,0.2,0.1,0.3
		C26.5,18.3,26.6,18.7,26.7,19.1z"/>
</g>
</symbol><symbol id="coast_guide" viewBox="0 0 48 48">
<circle fill="#F07C51" cx="24" cy="24" r="24"/>
<g>
	<path fill="#FFFFFF" d="M30.3,27.7L27.5,27c-0.1-0.3-0.2-0.5-0.4-0.6l-0.3-0.2c1-1,1.5-2.4,1.5-4c0-0.2,0-0.5-0.1-0.8
		c0-0.2,0.4-2.8,0.4-5.2c0-0.2-0.1-0.4-0.3-0.4c-0.1,0-1.9-0.6-4.3-0.6c-0.5,0-1.9,0.1-2.9,0.9h0c-0.5,0-1.1,0.2-1.4,0.6
		c-0.4,0.4-0.5,0.9-0.5,1.4c0.1,1,0.2,2.6,0.5,3.8c0,0.1,0,0.2,0,0.2c0,1.5,0.5,3,1.5,4l-0.3,0.2c-0.2,0.1-0.4,0.4-0.4,0.6l-2.8,0.7
		c-1.1,0.3-1.9,1.3-1.9,2.5v1.7c0,0.6,0.5,1,1,1h14.4c0.6,0,1-0.5,1-1v-1.7C32.2,29,31.4,28,30.3,27.7z M29.1,30.8
		c-0.2,0-0.4,0.2-0.4,0.4V32h-9.3v-0.8c0-0.2-0.2-0.4-0.4-0.4s-0.4,0.2-0.4,0.4V32h-1.7c-0.1,0-0.2-0.1-0.2-0.2v-1.7
		c0-0.8,0.5-1.4,1.3-1.6l2.7-0.7c0.2,0.4,0.5,1,0.7,1.4l0.4,0.9c0.1,0.1,0.1,0.3,0.4,0.3c0,0,0,0,0.1,0c0.1,0,0.2,0,0.3-0.1
		c0.4-0.4,0.8-0.7,1.1-0.8v1.7c0,0.2,0.2,0.4,0.4,0.4c0.2,0,0.4-0.2,0.4-0.4v-1.7c0.3,0.2,0.7,0.4,1.1,0.8c0.1,0.1,0.2,0.1,0.3,0.1
		c0,0,0,0,0.1,0c0.2,0,0.3-0.2,0.4-0.3l1.1-2.3l2.7,0.7c0.7,0.2,1.3,0.9,1.3,1.6l0,1.7c0,0.1-0.1,0.2-0.2,0.2h-1.7v-0.8
		C29.5,31,29.3,30.8,29.1,30.8z M24.7,28.7l1.7-1.7l0.2,0.1c0.1,0,0.1,0.1,0.1,0.2c-0.4,0.9-0.8,1.6-1,2C25.3,29,25,28.8,24.7,28.7z
		 M24.9,27.3L24,28.2l-0.9-0.9C23.7,27.5,24.3,27.5,24.9,27.3z M22.3,29.3c-0.2-0.4-0.5-1-1-2c0-0.1,0-0.2,0.1-0.2l0.2-0.1l1.7,1.7
		C23,28.8,22.7,29,22.3,29.3z M24,16c1.7,0,3.1,0.3,3.8,0.5c0,1-0.1,2.1-0.2,3c-0.1-0.1-0.2-0.1-0.3-0.1l-0.4,0
		c-2.1,0-4.1,0-5.8-0.6c-0.2-0.1-0.4,0-0.5,0.2c-0.2,0.2-0.3,0.5-0.4,0.8c-0.1-0.6-0.1-1.1-0.2-1.7c0-0.3,0.1-0.6,0.3-0.8
		c0.2-0.2,0.5-0.3,0.8-0.3h0.2c0.1,0,0.2,0,0.3-0.1C22.3,16.1,23.5,16,24,16z M21.2,19.7c1.8,0.5,3.7,0.5,5.8,0.5l0.1,0
		c0.2,0.5,0.4,1.2,0.5,1.8h-0.6v-0.2c0-0.2-0.2-0.4-0.4-0.4h-1.8c-0.2,0-0.4,0.1-0.4,0.3c-0.1,0-0.2,0-0.4,0
		c-0.1-0.2-0.2-0.3-0.4-0.3h-1.8c-0.2,0-0.4,0.2-0.4,0.4v0.2h-0.6C20.6,21.2,20.8,20.4,21.2,19.7z M21.2,22.9
		c0.1,0.2,0.2,0.3,0.4,0.3c0.2,0,0.4-0.2,0.4-0.4v-0.5h0v0.2c0,0.2,0.2,0.4,0.4,0.4s0.4-0.2,0.4-0.4v-0.2h0v0.5
		c0,0.2,0.2,0.4,0.4,0.4c0.2,0,0.4-0.2,0.4-0.4c0-0.1,0.1-0.2,0.2-0.2s0.2,0.1,0.2,0.2c0,0.2,0.2,0.4,0.4,0.4S25,23,25,22.8v-0.5h0
		v0.2c0,0.2,0.2,0.4,0.4,0.4s0.4-0.2,0.4-0.4v-0.2h0v0.5c0,0.2,0.2,0.4,0.4,0.4c0.2,0,0.4-0.1,0.4-0.3h0.6c-0.3,2.1-1.7,3.6-3.4,3.6
		c-1.7,0-3.1-1.6-3.4-3.6H21.2z"/>
	<path fill="#FFFFFF" d="M22.6,25.2L22.6,25.2c0.4,0.2,0.9,0.4,1.4,0.4c0.6,0,1.1-0.1,1.4-0.4c0.1-0.1,0.2-0.2,0.2-0.3
		c0-0.1,0-0.2-0.1-0.3c-0.1-0.2-0.4-0.2-0.6-0.1c-0.2,0.1-0.6,0.2-1,0.2c-0.4,0-0.7-0.1-1-0.2c-0.2-0.1-0.5-0.1-0.6,0.1
		C22.3,24.8,22.4,25.1,22.6,25.2z"/>
</g>
</symbol><symbol id="coast_optic" viewBox="0 0 48 48">
<g>
	<circle fill="#F07C51" cx="24" cy="24" r="24"/>
	<g>
		<path fill="#FFFFFF" d="M36.7,22.9C36.6,22.9,36.6,22.9,36.7,22.9L36.7,22.9c-0.2-0.2-0.3-0.3-0.4-0.4L31,16.8c0,0,0,0,0,0
			c-0.5-0.5-1.2-0.8-1.9-0.9c-0.3-0.5-0.9-0.9-1.6-0.9c-1,0-1.8,0.8-1.8,1.8v3.9h-3.4v-3.9c0-1-0.8-1.8-1.8-1.8
			c-0.6,0-1.2,0.3-1.6,0.9c-0.7,0.1-1.4,0.4-1.9,0.9c0,0,0,0,0,0l-5.3,5.7c-0.1,0.1-0.2,0.2-0.3,0.3l0,0c0,0,0,0,0,0.1
			c-0.9,1.1-1.4,2.5-1.4,3.9c0,3.4,2.8,6.2,6.2,6.2s6.2-2.8,6.2-6.2c0-0.1,0-0.3,0-0.4h3.4c0,0.1,0,0.3,0,0.4c0,3.4,2.8,6.2,6.2,6.2
			s6.2-2.8,6.2-6.2C38.1,25.4,37.6,24,36.7,22.9z M26.7,16.7c0-0.4,0.4-0.7,0.8-0.7c0.1,0,0.2,0,0.3,0.1
			C27.4,16.2,27,16.4,26.7,16.7z M27.9,21.5c0.1-0.1,0.2-0.4,0.1-0.5c-0.1-0.2-0.3-0.3-0.5-0.3c0,0,0,0,0,0l-0.9,0V19
			c0-1.2,1-2.1,2.1-2.1c0.5,0,1.1,0.2,1.5,0.6l3.2,3.4c-0.5-0.1-1-0.2-1.6-0.2c-1.1,0-2.1,0.3-3.1,0.8c-0.8,0.4-1.4,1-1.9,1.8
			C27.1,22.6,27.4,22,27.9,21.5z M31.9,32c-2.9,0-5.2-2.3-5.2-5.2s2.3-5.2,5.2-5.2c1.4,0,2.7,0.5,3.7,1.5l0.3,0.3
			c0.8,0.9,1.2,2.1,1.2,3.4C37.1,29.7,34.7,32,31.9,32z M25.7,24.4v1h-3.4v-1c0-1-0.3-2-0.8-2.8h5.1C26,22.5,25.7,23.4,25.7,24.4z
			 M20.5,16c0.2,0,0.4,0.1,0.6,0.2c0.1,0.1,0.2,0.3,0.2,0.5c-0.3-0.3-0.7-0.5-1.1-0.7C20.3,16,20.4,16,20.5,16z M16.1,20.7
			c-0.5,0-1.1,0.1-1.6,0.2l3.2-3.4l0,0c0.4-0.4,0.9-0.6,1.5-0.6c1.2,0,2.1,1,2.1,2.1v1.7h-0.8c0,0,0,0,0,0c-0.1,0-0.3,0-0.4,0.1
			c-0.1,0.1-0.1,0.2-0.1,0.3c0,0.1,0.1,0.3,0.1,0.3c0.5,0.5,0.9,1.1,1.1,1.7c-0.5-0.7-1.2-1.3-1.9-1.8
			C18.3,20.9,17.2,20.7,16.1,20.7z M21.3,26.8c0,2.9-2.3,5.2-5.2,5.2s-5.2-2.3-5.2-5.2c0-1.2,0.4-2.4,1.2-3.3l0.3-0.3
			c1-1,2.3-1.5,3.7-1.5C19,21.6,21.3,24,21.3,26.8z"/>
		<path fill="#FFFFFF" d="M16.1,22.9c-2.2,0-3.9,1.8-3.9,3.9s1.8,3.9,3.9,3.9s3.9-1.8,3.9-3.9S18.3,22.9,16.1,22.9z M16.1,29.9
			c-1.7,0-3-1.4-3-3s1.4-3,3-3s3,1.4,3,3S17.8,29.9,16.1,29.9z"/>
		<path fill="#FFFFFF" d="M31.9,22.9c-2.2,0-3.9,1.7-3.9,3.9s1.7,3.9,3.9,3.9s3.9-1.7,3.9-3.9S34,22.9,31.9,22.9z M31.9,29.9
			c-1.7,0-3-1.4-3-3c0-1.7,1.4-3,3-3s3,1.4,3,3C34.9,28.5,33.5,29.9,31.9,29.9z"/>
		<path fill="#FFFFFF" d="M32.2,24.6c-0.2,0-0.4,0.2-0.4,0.4s0.2,0.4,0.4,0.4c0.7,0,1.2,0.5,1.2,1.2c0,0.2,0.2,0.4,0.4,0.4
			s0.4-0.2,0.4-0.4C34.1,25.5,33.3,24.6,32.2,24.6z"/>
		<path fill="#FFFFFF" d="M16.4,24.5c-0.2,0-0.4,0.2-0.4,0.4s0.2,0.4,0.4,0.4c0.7,0,1.2,0.6,1.2,1.2c0,0.2,0.2,0.4,0.4,0.4
			s0.4-0.2,0.4-0.4C18.4,25.5,17.5,24.5,16.4,24.5z"/>
	</g>
</g>
</symbol><symbol id="coast_shoes" viewBox="0 0 48 48">
<circle fill="#F07C51" cx="24" cy="24" r="24"/>
<g>
	<path fill="#FFFFFF" d="M37.5,26.4c0-0.1,0-0.2,0-0.2c-0.1-2.4-1.7-2.7-3.7-3c-0.5-0.1-1-0.2-1.5-0.3
		c-3.8-0.8-7.1-2.7-9.9-5.6c-0.1-0.1-0.3-0.2-0.4-0.2h-2c-0.2,0-0.5,0.1-0.5,0.4c-0.5,1.3-1.8,2.1-3.1,2.1c-1.3,0-2.5-0.8-3.1-2.1
		c-0.1-0.2-0.3-0.4-0.5-0.4h-1.3c-0.3,0-0.6,0.3-0.6,0.6c0,0.9-0.1,1.8-0.2,2.7c-0.2,2.3-0.5,4.5,0.6,5.9c-0.4,0.4-0.6,1-0.6,1.6
		v0.6c0,1.2,0.9,2.3,1.9,2.3h15.9c4.2,0,7.2-0.9,8.5-2.4C37.5,27.9,37.6,27.2,37.5,26.4z M11.8,20.5c0.1-0.7,0.1-1.4,0.2-2.2h0.4
		c0.8,1.5,2.3,2.4,4,2.4s3.2-0.9,4-2.4h1.4c0.2,0.2,0.4,0.4,0.6,0.6l-0.4,0.6c-0.2,0.3-0.2,0.6,0.1,0.8c0.3,0.2,0.6,0.2,0.8-0.1
		l0.4-0.5c0.2,0.2,0.5,0.4,0.7,0.6l-0.4,0.5c-0.2,0.3-0.2,0.6,0.1,0.8c0.3,0.2,0.6,0.2,0.8-0.1l0.4-0.5c0.2,0.2,0.5,0.3,0.8,0.5
		L25.3,22c-0.2,0.3-0.2,0.6,0.1,0.8c0.3,0.2,0.6,0.2,0.8-0.1l0.5-0.6c0.3,0.1,0.5,0.3,0.8,0.4L27.2,23c-0.2,0.3-0.2,0.6,0.1,0.8
		c0.3,0.2,0.6,0.2,0.8-0.1l0.5-0.6c0.5,0.2,1.1,0.4,1.7,0.6c-0.8,1.1-2.3,1.6-3.7,1.1c0,0-0.1,0-0.1,0c-2-0.9-3.9-2.1-5.8-3.6
		c0,0-0.2-0.1-0.3-0.1c-0.1,0-0.4,0-0.5,0.1c0,0-0.2,0.2-0.2,0.2c-0.5,1.2-2,2-3.5,2c-0.7,0-2.5-0.2-3.3-2c-0.1-0.2-0.3-0.4-0.5-0.4
		h-0.7C11.8,20.8,11.8,20.7,11.8,20.5z M28.5,29.7H12.6c-0.4,0-0.8-0.5-0.8-1.1V28c0-0.3,0.1-0.6,0.3-0.8c0.8,0.5,1.8,0.8,3.1,0.8
		h20.7C34.8,29,32.1,29.7,28.5,29.7z M36.3,26.3c0,0.1-0.1,0.2-0.1,0.2c-0.1,0.1-0.2,0.1-0.3,0.1H15.2c-1.2,0-2.1-0.2-2.7-0.7
		c0,0-0.1-0.1-0.2-0.2c-0.7-0.8-0.8-2.1-0.7-3.6h0.4c0.8,1.5,2.3,2.4,4.2,2.4c1.8,0,3.4-0.8,4.3-2.1c1.8,1.3,3.6,2.4,5.4,3.3
		c0,0,0.1,0,0.1,0.1c2,0.9,4.4,0.1,5.5-1.8c0.2,0,0.4,0.1,0.6,0.1c0.6,0.1,1.1,0.2,1.6,0.3c2,0.3,2.6,0.5,2.6,1.8
		C36.3,26.3,36.3,26.3,36.3,26.3z"/>
</g>
</symbol><symbol id="coast_ticket" viewBox="0 0 48 48">
<g>
	<circle fill="#F07C51" cx="24" cy="24" r="24"/>
	<g>
		<path fill="#FFFFFF" d="M33.7,22.4c0.2,0,0.5-0.2,0.5-0.5v-2.1c0-0.6-0.5-1.1-1.1-1.1H15c-0.6,0-1.1,0.5-1.1,1.1v2.1
			c0,0.2,0.2,0.5,0.5,0.5c0.9,0,1.6,0.7,1.6,1.6s-0.7,1.6-1.6,1.6c-0.2,0-0.5,0.2-0.5,0.5v2.1c0,0.6,0.5,1.1,1.1,1.1h18
			c0.6,0,1.1-0.5,1.1-1.1v-2.1c0-0.2-0.2-0.5-0.5-0.5c-0.9,0-1.6-0.7-1.6-1.6S32.8,22.4,33.7,22.4z M31.1,24c0,1.2,0.9,2.3,2.1,2.5
			v1.7c0,0.1-0.1,0.2-0.2,0.2h-3.3v-0.6c0-0.2-0.2-0.5-0.5-0.5c-0.2,0-0.5,0.2-0.5,0.5v0.6H15c-0.1,0-0.2-0.1-0.2-0.2v-1.7
			c1.2-0.2,2.1-1.3,2.1-2.5c0-1.2-0.9-2.3-2.1-2.5v-1.7c0-0.1,0.1-0.2,0.2-0.2h13.7v0.6c0,0.2,0.2,0.5,0.5,0.5
			c0.2,0,0.5-0.2,0.5-0.5v-0.6H33c0.1,0,0.2,0.1,0.2,0.2v1.7C32,21.7,31.1,22.8,31.1,24z"/>
		<path fill="#FFFFFF" d="M29.2,23.2c-0.2,0-0.5,0.2-0.5,0.5v0.7c0,0.2,0.2,0.5,0.5,0.5c0.2,0,0.5-0.2,0.5-0.5v-0.7
			C29.6,23.4,29.4,23.2,29.2,23.2z"/>
		<path fill="#FFFFFF" d="M29.2,21.1c-0.2,0-0.5,0.2-0.5,0.5v0.7c0,0.2,0.2,0.5,0.5,0.5c0.2,0,0.5-0.2,0.5-0.5v-0.7
			C29.6,21.3,29.4,21.1,29.2,21.1z"/>
		<path fill="#FFFFFF" d="M29.2,25.3c-0.2,0-0.5,0.2-0.5,0.5v0.7c0,0.2,0.2,0.5,0.5,0.5c0.2,0,0.5-0.2,0.5-0.5v-0.7
			C29.6,25.5,29.4,25.3,29.2,25.3z"/>
		<path fill="#FFFFFF" d="M26.8,20.8h-7.9c-0.4,0-0.8,0.4-0.8,0.8v4.8c0,0.4,0.4,0.8,0.8,0.8h7.9c0.4,0,0.8-0.4,0.8-0.8v-4.8
			C27.6,21.1,27.2,20.8,26.8,20.8z M26.7,21.7v4.6h-7.7v-4.6H26.7z"/>
		<path fill="#FFFFFF" d="M20.2,23.8h5.2c0.2,0,0.5-0.2,0.5-0.5s-0.2-0.5-0.5-0.5h-5.2c-0.2,0-0.5,0.2-0.5,0.5S20,23.8,20.2,23.8z"/>
		<path fill="#FFFFFF" d="M20.2,25.1h1c0.2,0,0.5-0.2,0.5-0.5s-0.2-0.5-0.5-0.5h-1c-0.2,0-0.5,0.2-0.5,0.5S20,25.1,20.2,25.1z"/>
		<path fill="#FFFFFF" d="M25.4,24.2h-2.8c-0.2,0-0.5,0.2-0.5,0.5s0.2,0.5,0.5,0.5h2.8c0.2,0,0.5-0.2,0.5-0.5S25.6,24.2,25.4,24.2z"/>
	</g>
</g>
</symbol><symbol id="date_icon" viewBox="0 0 15.6 16">
<g>
	<g>
		<path fill="#a0a0a0" d="M5.7,8.8c0-0.2-0.2-0.4-0.4-0.4H4c-0.2,0-0.4,0.2-0.4,0.4v1.3c0,0.2,0.2,0.4,0.4,0.4h1.3c0.2,0,0.4-0.2,0.4-0.4L5.7,8.8
			L5.7,8.8z"/>
		<path fill="#a0a0a0" d="M8.8,8.8c0-0.2-0.2-0.4-0.4-0.4H7.2C7,8.5,6.8,8.6,6.8,8.8v1.3c0,0.2,0.2,0.4,0.4,0.4h1.3c0.2,0,0.4-0.2,0.4-0.4V8.8z"/>
		<path fill="#a0a0a0" d="M12,8.8c0-0.2-0.2-0.4-0.4-0.4h-1.3c-0.2,0-0.4,0.2-0.4,0.4v1.3c0,0.2,0.2,0.4,0.4,0.4h1.3c0.2,0,0.4-0.2,0.4-0.4V8.8z"/>
		<path fill="#a0a0a0" d="M5.7,12c0-0.2-0.2-0.4-0.4-0.4H4c-0.2,0-0.4,0.2-0.4,0.4v1.3c0,0.2,0.2,0.4,0.4,0.4h1.3c0.2,0,0.4-0.2,0.4-0.4L5.7,12
			L5.7,12z"/>
		<path fill="#a0a0a0" d="M8.8,12c0-0.2-0.2-0.4-0.4-0.4H7.2c-0.2,0-0.4,0.2-0.4,0.4v1.3c0,0.2,0.2,0.4,0.4,0.4h1.3c0.2,0,0.4-0.2,0.4-0.4V12z"/>
		<path fill="#a0a0a0" d="M12,12c0-0.2-0.2-0.4-0.4-0.4h-1.3c-0.2,0-0.4,0.2-0.4,0.4v1.3c0,0.2,0.2,0.4,0.4,0.4h1.3c0.2,0,0.4-0.2,0.4-0.4L12,12
			L12,12z"/>
		<path fill="#a0a0a0" d="M14.3,1.8v1.9c0,0.9-0.7,1.6-1.6,1.6h-1c-0.9,0-1.6-0.7-1.6-1.6V1.8H5.6v1.9c0,0.9-0.7,1.6-1.6,1.6H3
			c-0.9,0-1.6-0.7-1.6-1.6V1.8C0.6,1.8,0,2.4,0,3.2v11.3C0,15.3,0.6,16,1.4,16h12.8c0.8,0,1.4-0.7,1.4-1.4V3.2
			C15.6,2.4,15,1.8,14.3,1.8z M13.8,13.9c0,0.3-0.3,0.6-0.6,0.6H2.4c-0.3,0-0.6-0.3-0.6-0.6V8c0-0.3,0.3-0.6,0.6-0.6h10.7
			c0.3,0,0.6,0.3,0.6,0.6L13.8,13.9L13.8,13.9z"/>
		<path fill="#a0a0a0" d="M3,4.3h1c0.3,0,0.5-0.2,0.5-0.5V0.5C4.5,0.2,4.3,0,4,0H3C2.7,0,2.4,0.2,2.4,0.5v3.2C2.4,4,2.7,4.3,3,4.3z"/>
		<path fill="#a0a0a0" d="M11.7,4.3h1c0.3,0,0.5-0.2,0.5-0.5V0.5c0-0.3-0.2-0.5-0.5-0.5h-1c-0.3,0-0.5,0.2-0.5,0.5v3.2C11.1,4,11.4,4.3,11.7,4.3z"/>
	</g>
</g>
</symbol><symbol id="dropdown_arrow" viewBox="0 0 10 7.1">
<path fill="#B2C858" d="M10,0.3c0,0.1,0,0.1,0,0.3s0,0.1,0,0.3L5.4,7C5.3,7.1,5.1,7.1,5,7.1S4.7,7.1,4.6,7L0,0.7c0-0.1,0-0.3,0-0.4
			C0.1,0.1,0.3,0,0.6,0h9C9.7,0,9.9,0.1,10,0.3z"/>
</symbol><symbol id="filter_next" viewBox="0 0 28 24.9">
<path fill="#f1ca2f" d="M27.3,10.7l-10-10C16.9,0.3,16.2,0,15.6,0c-0.7,0-1.3,0.3-1.8,0.7c-1,1-1,2.5,0,3.5l5.7,5.7h-17C1.1,10,0,11.1,0,12.4
	s1.1,2.5,2.5,2.5h17l-5.7,5.7c-1,1-1,2.5,0,3.5c0.5,0.5,1.1,0.7,1.8,0.7c0.7,0,1.3-0.3,1.8-0.7l10-10C28.2,13.2,28.2,11.7,27.3,10.7
	z"/>
</symbol><symbol id="filter_prev" viewBox="0 0 28 24.9">
<path fill="#f1ca2f" d="M0.7,14.2l10,10c0.5,0.5,1.1,0.7,1.8,0.7c0.7,0,1.3-0.3,1.8-0.7c1-1,1-2.5,0-3.5l-5.7-5.7h17c1.4,0,2.5-1.1,2.5-2.5
	S26.9,10,25.5,10h-17l5.7-5.7c1-1,1-2.5,0-3.5C13.7,0.3,13.1,0,12.4,0c-0.7,0-1.3,0.3-1.8,0.7l-10,10C-0.2,11.7-0.2,13.2,0.7,14.2z"/>
</symbol><symbol id="header_icon_1" viewBox="0 0 48 48">

<g>
	<path d="M41,7c-4.5-4.5-10.6-7-17-7S11.6,2.5,7,7c-4.5,4.5-7,10.6-7,17s2.5,12.4,7,17c4.5,4.5,10.6,7,17,7s12.4-2.5,17-7
		c4.5-4.5,7-10.6,7-17S45.5,11.6,41,7z M24,46.5C11.6,46.5,1.5,36.4,1.5,24S11.6,1.5,24,1.5S46.5,11.6,46.5,24S36.4,46.5,24,46.5z"/>
	<circle cx="24" cy="10" r="0.8"/>
	<path d="M44.7,24.8c-0.1-0.2-0.3-0.2-0.6-0.2h-2.7v-2.3c0-0.4-0.3-0.8-0.8-0.8s-0.8,0.3-0.8,0.8v2.3H38v-5.4c0-0.3-0.1-0.5-0.4-0.6
		l-7.8-4.9V10c0-0.4-0.3-0.8-0.8-0.8h-1.4c-0.4-1.7-1.9-3.1-3.8-3.1s-3.4,1.3-3.8,3.1h-1.4c-0.4,0-0.8,0.3-0.8,0.8v3.3h-2.6V11
		c0-0.4-0.3-0.8-0.8-0.8S14,10.6,14,11v2.3h-3.3c-0.4,0-0.8,0.3-0.8,0.8v10.5l-6.1,0c-0.2,0-0.4,0.1-0.6,0.2
		c-0.1,0.2-0.2,0.4-0.2,0.6c0.4,5.7,3,10.8,7.1,14.4c0,0,0.1,0.1,0.1,0.1c2.4,2.1,5.2,3.6,8.4,4.5c0,0,0.1,0,0.1,0
		c1.7,0.4,3.4,0.7,5.3,0.7c1.8,0,3.5-0.2,5.2-0.7c0,0,0.1,0,0.1,0c1.8-0.5,3.5-1.2,5.2-2.1c3.1-1.8,5.7-4.4,7.5-7.5
		c0.2-0.4,0.1-0.8-0.3-1c-0.4-0.2-0.8-0.1-1,0.3c-0.8,1.3-1.7,2.4-2.7,3.5V26h5.3c-0.2,1.8-0.6,3.5-1.3,5.2c-0.2,0.4,0,0.8,0.4,1
		c0.4,0.2,0.8,0,1-0.4c0.8-2.1,1.3-4.2,1.5-6.5C44.9,25.1,44.8,24.9,44.7,24.8z M19.7,17.9h8.7v22h-8.7V17.9z M19.7,10.7h1.3
		c0.4,0,0.8-0.3,0.8-0.8c0-1.3,1-2.3,2.3-2.3s2.3,1,2.3,2.3c0,0.4,0.3,0.8,0.8,0.8h1.3v5.6h-8.7V10.7z M4.7,26l5.3,0v5.4
		c0,0.4,0.3,0.8,0.8,0.8s0.8-0.3,0.8-0.8V14.8h6.6v25h-0.3c-0.4,0-0.8,0.3-0.8,0.8s0.3,0.8,0.8,0.8h0.3v1.1c-2.5-0.8-4.7-2-6.6-3.7
		v-4.3c0-0.4-0.3-0.8-0.8-0.8S10,34,10,34.5v2.9C7.1,34.4,5.2,30.4,4.7,26z M19.7,42.9v-1.6h8.7v1.5c-1.4,0.3-2.9,0.5-4.3,0.5
		C22.5,43.4,21.1,43.2,19.7,42.9z M29.9,42.5v-1.1h0.3c0.4,0,0.8-0.3,0.8-0.8s-0.3-0.8-0.8-0.8h-0.3V15.4l6.6,4.1v19.2
		C34.6,40.4,32.3,41.7,29.9,42.5z"/>
	<path d="M33.2,32.7c-0.4,0-0.8,0.3-0.8,0.8v1c0,0.4,0.3,0.8,0.8,0.8s0.8-0.3,0.8-0.8v-1C34,33,33.6,32.7,33.2,32.7z"/>
	<path d="M33.2,28.6c-0.4,0-0.8,0.3-0.8,0.8v1c0,0.4,0.3,0.8,0.8,0.8s0.8-0.3,0.8-0.8v-1C34,28.9,33.6,28.6,33.2,28.6z"/>
	<path d="M33.2,24.5c-0.4,0-0.8,0.3-0.8,0.8v1c0,0.4,0.3,0.8,0.8,0.8s0.8-0.3,0.8-0.8v-1C34,24.9,33.6,24.5,33.2,24.5z"/>
	<path d="M33.2,20.4c-0.4,0-0.8,0.3-0.8,0.8v1c0,0.4,0.3,0.8,0.8,0.8s0.8-0.3,0.8-0.8v-1C34,20.8,33.6,20.4,33.2,20.4z"/>
	<path d="M14.8,35.2c0.4,0,0.8-0.3,0.8-0.8v-1c0-0.4-0.3-0.8-0.8-0.8S14,33,14,33.4v1C14,34.9,14.4,35.2,14.8,35.2z"/>
	<path d="M14.8,31.1c0.4,0,0.8-0.3,0.8-0.8v-1c0-0.4-0.3-0.8-0.8-0.8S14,28.9,14,29.4v1C14,30.8,14.4,31.1,14.8,31.1z"/>
	<path d="M14.8,27.1c0.4,0,0.8-0.3,0.8-0.8v-1c0-0.4-0.3-0.8-0.8-0.8S14,24.9,14,25.3v1C14,26.7,14.4,27.1,14.8,27.1z"/>
	<path d="M14.8,18.9c0.4,0,0.8-0.3,0.8-0.8v-1c0-0.4-0.3-0.8-0.8-0.8S14,16.7,14,17.1v1C14,18.6,14.4,18.9,14.8,18.9z"/>
	<path d="M14.8,23c0.4,0,0.8-0.3,0.8-0.8v-1c0-0.4-0.3-0.8-0.8-0.8S14,20.8,14,21.2v1C14,22.6,14.4,23,14.8,23z"/>
	<path d="M24,35.7c-0.4,0-0.8,0.3-0.8,0.8v1c0,0.4,0.3,0.8,0.8,0.8s0.8-0.3,0.8-0.8v-1C24.8,36.1,24.4,35.7,24,35.7z"/>
	<path d="M24,31.7c-0.4,0-0.8,0.3-0.8,0.8v1c0,0.4,0.3,0.8,0.8,0.8s0.8-0.3,0.8-0.8v-1C24.8,32,24.4,31.7,24,31.7z"/>
	<path d="M24,27.6c-0.4,0-0.8,0.3-0.8,0.8v1c0,0.4,0.3,0.8,0.8,0.8s0.8-0.3,0.8-0.8v-1C24.8,27.9,24.4,27.6,24,27.6z"/>
	<path d="M24,23.5c-0.4,0-0.8,0.3-0.8,0.8v1c0,0.4,0.3,0.8,0.8,0.8s0.8-0.3,0.8-0.8v-1C24.8,23.8,24.4,23.5,24,23.5z"/>
	<path d="M24,19.4c-0.4,0-0.8,0.3-0.8,0.8v1c0,0.4,0.3,0.8,0.8,0.8s0.8-0.3,0.8-0.8v-1C24.8,19.7,24.4,19.4,24,19.4z"/>
	<path d="M22,14.8H26c0.4,0,0.8-0.3,0.8-0.8s-0.3-0.8-0.8-0.8H22c-0.4,0-0.8,0.3-0.8,0.8S21.5,14.8,22,14.8z"/>
</g>
</symbol><symbol id="header_icon_2" viewBox="0 0 48 48">

<g>
	<path d="M41,7c-4.5-4.5-10.6-7-17-7S11.6,2.5,7,7c-4.5,4.5-7,10.6-7,17s2.5,12.4,7,17c4.5,4.5,10.6,7,17,7s12.4-2.5,17-7
		c4.5-4.5,7-10.6,7-17S45.5,11.6,41,7z M24,46.5C11.6,46.5,1.5,36.4,1.5,24S11.6,1.5,24,1.5S46.5,11.6,46.5,24S36.4,46.5,24,46.5z"/>
	<circle cx="24" cy="10" r="0.8"/>
	<path d="M44.7,24.8c-0.1-0.2-0.3-0.2-0.6-0.2h-2.7v-2.3c0-0.4-0.3-0.8-0.8-0.8s-0.8,0.3-0.8,0.8v2.3H38v-5.4c0-0.3-0.1-0.5-0.4-0.6
		l-7.8-4.9V10c0-0.4-0.3-0.8-0.8-0.8h-1.4c-0.4-1.7-1.9-3.1-3.8-3.1s-3.4,1.3-3.8,3.1h-1.4c-0.4,0-0.8,0.3-0.8,0.8v3.3h-2.6V11
		c0-0.4-0.3-0.8-0.8-0.8S14,10.6,14,11v2.3h-3.3c-0.4,0-0.8,0.3-0.8,0.8v10.5l-6.1,0c-0.2,0-0.4,0.1-0.6,0.2
		c-0.1,0.2-0.2,0.4-0.2,0.6c0.4,5.7,3,10.8,7.1,14.4c0,0,0.1,0.1,0.1,0.1c2.4,2.1,5.2,3.6,8.4,4.5c0,0,0.1,0,0.1,0
		c1.7,0.4,3.4,0.7,5.3,0.7c1.8,0,3.5-0.2,5.2-0.7c0,0,0.1,0,0.1,0c1.8-0.5,3.5-1.2,5.2-2.1c3.1-1.8,5.7-4.4,7.5-7.5
		c0.2-0.4,0.1-0.8-0.3-1c-0.4-0.2-0.8-0.1-1,0.3c-0.8,1.3-1.7,2.4-2.7,3.5V26h5.3c-0.2,1.8-0.6,3.5-1.3,5.2c-0.2,0.4,0,0.8,0.4,1
		c0.4,0.2,0.8,0,1-0.4c0.8-2.1,1.3-4.2,1.5-6.5C44.9,25.1,44.8,24.9,44.7,24.8z M19.7,17.9h8.7v22h-8.7V17.9z M19.7,10.7h1.3
		c0.4,0,0.8-0.3,0.8-0.8c0-1.3,1-2.3,2.3-2.3s2.3,1,2.3,2.3c0,0.4,0.3,0.8,0.8,0.8h1.3v5.6h-8.7V10.7z M4.7,26l5.3,0v5.4
		c0,0.4,0.3,0.8,0.8,0.8s0.8-0.3,0.8-0.8V14.8h6.6v25h-0.3c-0.4,0-0.8,0.3-0.8,0.8s0.3,0.8,0.8,0.8h0.3v1.1c-2.5-0.8-4.7-2-6.6-3.7
		v-4.3c0-0.4-0.3-0.8-0.8-0.8S10,34,10,34.5v2.9C7.1,34.4,5.2,30.4,4.7,26z M19.7,42.9v-1.6h8.7v1.5c-1.4,0.3-2.9,0.5-4.3,0.5
		C22.5,43.4,21.1,43.2,19.7,42.9z M29.9,42.5v-1.1h0.3c0.4,0,0.8-0.3,0.8-0.8s-0.3-0.8-0.8-0.8h-0.3V15.4l6.6,4.1v19.2
		C34.6,40.4,32.3,41.7,29.9,42.5z"/>
	<path d="M33.2,32.7c-0.4,0-0.8,0.3-0.8,0.8v1c0,0.4,0.3,0.8,0.8,0.8s0.8-0.3,0.8-0.8v-1C34,33,33.6,32.7,33.2,32.7z"/>
	<path d="M33.2,28.6c-0.4,0-0.8,0.3-0.8,0.8v1c0,0.4,0.3,0.8,0.8,0.8s0.8-0.3,0.8-0.8v-1C34,28.9,33.6,28.6,33.2,28.6z"/>
	<path d="M33.2,24.5c-0.4,0-0.8,0.3-0.8,0.8v1c0,0.4,0.3,0.8,0.8,0.8s0.8-0.3,0.8-0.8v-1C34,24.9,33.6,24.5,33.2,24.5z"/>
	<path d="M33.2,20.4c-0.4,0-0.8,0.3-0.8,0.8v1c0,0.4,0.3,0.8,0.8,0.8s0.8-0.3,0.8-0.8v-1C34,20.8,33.6,20.4,33.2,20.4z"/>
	<path d="M14.8,35.2c0.4,0,0.8-0.3,0.8-0.8v-1c0-0.4-0.3-0.8-0.8-0.8S14,33,14,33.4v1C14,34.9,14.4,35.2,14.8,35.2z"/>
	<path d="M14.8,31.1c0.4,0,0.8-0.3,0.8-0.8v-1c0-0.4-0.3-0.8-0.8-0.8S14,28.9,14,29.4v1C14,30.8,14.4,31.1,14.8,31.1z"/>
	<path d="M14.8,27.1c0.4,0,0.8-0.3,0.8-0.8v-1c0-0.4-0.3-0.8-0.8-0.8S14,24.9,14,25.3v1C14,26.7,14.4,27.1,14.8,27.1z"/>
	<path d="M14.8,18.9c0.4,0,0.8-0.3,0.8-0.8v-1c0-0.4-0.3-0.8-0.8-0.8S14,16.7,14,17.1v1C14,18.6,14.4,18.9,14.8,18.9z"/>
	<path d="M14.8,23c0.4,0,0.8-0.3,0.8-0.8v-1c0-0.4-0.3-0.8-0.8-0.8S14,20.8,14,21.2v1C14,22.6,14.4,23,14.8,23z"/>
	<path d="M24,35.7c-0.4,0-0.8,0.3-0.8,0.8v1c0,0.4,0.3,0.8,0.8,0.8s0.8-0.3,0.8-0.8v-1C24.8,36.1,24.4,35.7,24,35.7z"/>
	<path d="M24,31.7c-0.4,0-0.8,0.3-0.8,0.8v1c0,0.4,0.3,0.8,0.8,0.8s0.8-0.3,0.8-0.8v-1C24.8,32,24.4,31.7,24,31.7z"/>
	<path d="M24,27.6c-0.4,0-0.8,0.3-0.8,0.8v1c0,0.4,0.3,0.8,0.8,0.8s0.8-0.3,0.8-0.8v-1C24.8,27.9,24.4,27.6,24,27.6z"/>
	<path d="M24,23.5c-0.4,0-0.8,0.3-0.8,0.8v1c0,0.4,0.3,0.8,0.8,0.8s0.8-0.3,0.8-0.8v-1C24.8,23.8,24.4,23.5,24,23.5z"/>
	<path d="M24,19.4c-0.4,0-0.8,0.3-0.8,0.8v1c0,0.4,0.3,0.8,0.8,0.8s0.8-0.3,0.8-0.8v-1C24.8,19.7,24.4,19.4,24,19.4z"/>
	<path d="M22,14.8H26c0.4,0,0.8-0.3,0.8-0.8s-0.3-0.8-0.8-0.8H22c-0.4,0-0.8,0.3-0.8,0.8S21.5,14.8,22,14.8z"/>
</g>
</symbol><symbol id="header_icon_3" viewBox="0 0 48 48">

<g>
	<path d="M41,7c-4.5-4.5-10.6-7-17-7S11.6,2.5,7,7c-4.5,4.5-7,10.6-7,17s2.5,12.4,7,17c4.5,4.5,10.6,7,17,7s12.4-2.5,17-7
		c4.5-4.5,7-10.6,7-17S45.5,11.6,41,7z M24,46.5C11.6,46.5,1.5,36.4,1.5,24S11.6,1.5,24,1.5S46.5,11.6,46.5,24S36.4,46.5,24,46.5z"/>
	<circle cx="24" cy="10" r="0.8"/>
	<path d="M44.7,24.8c-0.1-0.2-0.3-0.2-0.6-0.2h-2.7v-2.3c0-0.4-0.3-0.8-0.8-0.8s-0.8,0.3-0.8,0.8v2.3H38v-5.4c0-0.3-0.1-0.5-0.4-0.6
		l-7.8-4.9V10c0-0.4-0.3-0.8-0.8-0.8h-1.4c-0.4-1.7-1.9-3.1-3.8-3.1s-3.4,1.3-3.8,3.1h-1.4c-0.4,0-0.8,0.3-0.8,0.8v3.3h-2.6V11
		c0-0.4-0.3-0.8-0.8-0.8S14,10.6,14,11v2.3h-3.3c-0.4,0-0.8,0.3-0.8,0.8v10.5l-6.1,0c-0.2,0-0.4,0.1-0.6,0.2
		c-0.1,0.2-0.2,0.4-0.2,0.6c0.4,5.7,3,10.8,7.1,14.4c0,0,0.1,0.1,0.1,0.1c2.4,2.1,5.2,3.6,8.4,4.5c0,0,0.1,0,0.1,0
		c1.7,0.4,3.4,0.7,5.3,0.7c1.8,0,3.5-0.2,5.2-0.7c0,0,0.1,0,0.1,0c1.8-0.5,3.5-1.2,5.2-2.1c3.1-1.8,5.7-4.4,7.5-7.5
		c0.2-0.4,0.1-0.8-0.3-1c-0.4-0.2-0.8-0.1-1,0.3c-0.8,1.3-1.7,2.4-2.7,3.5V26h5.3c-0.2,1.8-0.6,3.5-1.3,5.2c-0.2,0.4,0,0.8,0.4,1
		c0.4,0.2,0.8,0,1-0.4c0.8-2.1,1.3-4.2,1.5-6.5C44.9,25.1,44.8,24.9,44.7,24.8z M19.7,17.9h8.7v22h-8.7V17.9z M19.7,10.7h1.3
		c0.4,0,0.8-0.3,0.8-0.8c0-1.3,1-2.3,2.3-2.3s2.3,1,2.3,2.3c0,0.4,0.3,0.8,0.8,0.8h1.3v5.6h-8.7V10.7z M4.7,26l5.3,0v5.4
		c0,0.4,0.3,0.8,0.8,0.8s0.8-0.3,0.8-0.8V14.8h6.6v25h-0.3c-0.4,0-0.8,0.3-0.8,0.8s0.3,0.8,0.8,0.8h0.3v1.1c-2.5-0.8-4.7-2-6.6-3.7
		v-4.3c0-0.4-0.3-0.8-0.8-0.8S10,34,10,34.5v2.9C7.1,34.4,5.2,30.4,4.7,26z M19.7,42.9v-1.6h8.7v1.5c-1.4,0.3-2.9,0.5-4.3,0.5
		C22.5,43.4,21.1,43.2,19.7,42.9z M29.9,42.5v-1.1h0.3c0.4,0,0.8-0.3,0.8-0.8s-0.3-0.8-0.8-0.8h-0.3V15.4l6.6,4.1v19.2
		C34.6,40.4,32.3,41.7,29.9,42.5z"/>
	<path d="M33.2,32.7c-0.4,0-0.8,0.3-0.8,0.8v1c0,0.4,0.3,0.8,0.8,0.8s0.8-0.3,0.8-0.8v-1C34,33,33.6,32.7,33.2,32.7z"/>
	<path d="M33.2,28.6c-0.4,0-0.8,0.3-0.8,0.8v1c0,0.4,0.3,0.8,0.8,0.8s0.8-0.3,0.8-0.8v-1C34,28.9,33.6,28.6,33.2,28.6z"/>
	<path d="M33.2,24.5c-0.4,0-0.8,0.3-0.8,0.8v1c0,0.4,0.3,0.8,0.8,0.8s0.8-0.3,0.8-0.8v-1C34,24.9,33.6,24.5,33.2,24.5z"/>
	<path d="M33.2,20.4c-0.4,0-0.8,0.3-0.8,0.8v1c0,0.4,0.3,0.8,0.8,0.8s0.8-0.3,0.8-0.8v-1C34,20.8,33.6,20.4,33.2,20.4z"/>
	<path d="M14.8,35.2c0.4,0,0.8-0.3,0.8-0.8v-1c0-0.4-0.3-0.8-0.8-0.8S14,33,14,33.4v1C14,34.9,14.4,35.2,14.8,35.2z"/>
	<path d="M14.8,31.1c0.4,0,0.8-0.3,0.8-0.8v-1c0-0.4-0.3-0.8-0.8-0.8S14,28.9,14,29.4v1C14,30.8,14.4,31.1,14.8,31.1z"/>
	<path d="M14.8,27.1c0.4,0,0.8-0.3,0.8-0.8v-1c0-0.4-0.3-0.8-0.8-0.8S14,24.9,14,25.3v1C14,26.7,14.4,27.1,14.8,27.1z"/>
	<path d="M14.8,18.9c0.4,0,0.8-0.3,0.8-0.8v-1c0-0.4-0.3-0.8-0.8-0.8S14,16.7,14,17.1v1C14,18.6,14.4,18.9,14.8,18.9z"/>
	<path d="M14.8,23c0.4,0,0.8-0.3,0.8-0.8v-1c0-0.4-0.3-0.8-0.8-0.8S14,20.8,14,21.2v1C14,22.6,14.4,23,14.8,23z"/>
	<path d="M24,35.7c-0.4,0-0.8,0.3-0.8,0.8v1c0,0.4,0.3,0.8,0.8,0.8s0.8-0.3,0.8-0.8v-1C24.8,36.1,24.4,35.7,24,35.7z"/>
	<path d="M24,31.7c-0.4,0-0.8,0.3-0.8,0.8v1c0,0.4,0.3,0.8,0.8,0.8s0.8-0.3,0.8-0.8v-1C24.8,32,24.4,31.7,24,31.7z"/>
	<path d="M24,27.6c-0.4,0-0.8,0.3-0.8,0.8v1c0,0.4,0.3,0.8,0.8,0.8s0.8-0.3,0.8-0.8v-1C24.8,27.9,24.4,27.6,24,27.6z"/>
	<path d="M24,23.5c-0.4,0-0.8,0.3-0.8,0.8v1c0,0.4,0.3,0.8,0.8,0.8s0.8-0.3,0.8-0.8v-1C24.8,23.8,24.4,23.5,24,23.5z"/>
	<path d="M24,19.4c-0.4,0-0.8,0.3-0.8,0.8v1c0,0.4,0.3,0.8,0.8,0.8s0.8-0.3,0.8-0.8v-1C24.8,19.7,24.4,19.4,24,19.4z"/>
	<path d="M22,14.8H26c0.4,0,0.8-0.3,0.8-0.8s-0.3-0.8-0.8-0.8H22c-0.4,0-0.8,0.3-0.8,0.8S21.5,14.8,22,14.8z"/>
</g>
</symbol><symbol id="header_icon_4" viewBox="0 0 48 48">

<g>
	<path d="M41,7c-4.5-4.5-10.6-7-17-7S11.6,2.5,7,7c-4.5,4.5-7,10.6-7,17s2.5,12.4,7,17c4.5,4.5,10.6,7,17,7s12.4-2.5,17-7
		c4.5-4.5,7-10.6,7-17S45.5,11.6,41,7z M24,46.5C11.6,46.5,1.5,36.4,1.5,24S11.6,1.5,24,1.5S46.5,11.6,46.5,24S36.4,46.5,24,46.5z"/>
	<path d="M24,15.4c-0.4,0-0.8,0.3-0.8,0.8v3.1c0,0.4,0.3,0.8,0.8,0.8s0.8-0.3,0.8-0.8v-3.1C24.8,15.8,24.4,15.4,24,15.4z"/>
	<path d="M38.8,33.4c0.4,0,0.8-0.3,0.8-0.8c0-0.4-0.3-0.8-0.8-0.8h-2c-0.4,0-0.8,0.3-0.8,0.8c0,0.4,0.3,0.8,0.8,0.8H38.8z"/>
	<path d="M34.4,32.6c0-0.4-0.3-0.8-0.8-0.8H24c-0.4,0-0.8,0.3-0.8,0.8c0,0.4,0.3,0.8,0.8,0.8h9.7C34.1,33.4,34.4,33,34.4,32.6z"/>
	<path d="M44.8,26.6C44.8,26.6,44.8,26.5,44.8,26.6c0.1-0.9,0.2-1.7,0.2-2.6c0-0.2,0-0.3,0-0.5c0,0,0-0.1,0-0.1c0-0.1,0-0.1,0-0.1
		c-0.2-5.2-2.3-10-5.9-13.8c-0.3-0.3-0.7-0.3-1-0.1c-0.7,0.6-1.2,1.3-1.6,2.2c-0.1,0-0.3,0-0.4,0c-2.5,0-4.6,2.1-4.6,4.6
		c0,0.4,0.3,0.8,0.8,0.8s0.8-0.3,0.8-0.8c0-1.7,1.4-3.1,3.1-3.1c0.3,0,0.5,0,0.7,0.1c0.4,0.1,0.8-0.1,0.9-0.6
		c0.1-0.6,0.4-1.1,0.8-1.5c2.9,3.2,4.6,7.3,4.9,11.5h-4.9c-0.4,0-0.8,0.3-0.8,0.8c0,0.4,0.3,0.8,0.8,0.8h5c0,0.5,0,1-0.1,1.5h-7.2
		v-6.5c0-0.2-0.1-0.4-0.2-0.5c-0.1-0.1-0.3-0.2-0.5-0.2h-5.5v-7.4c0-0.4-0.3-0.8-0.8-0.8c-0.4,0-0.8,0.3-0.8,0.8v1.3h-1.9v-1.3
		c0-0.4-0.3-0.8-0.8-0.8s-0.8,0.3-0.8,0.8v1.3h-1.9v-1.3c0-0.4-0.3-0.8-0.8-0.8c-0.4,0-0.8,0.3-0.8,0.8v1.3h-1.9v-1.3
		c0-0.4-0.3-0.8-0.8-0.8c-0.4,0-0.8,0.3-0.8,0.8v14.6h-2.3c-1.8,0-3.4,1.3-3.8,3.1h-1.4c-0.4,0-0.8,0.3-0.8,0.8
		c0,0.4,0.3,0.8,0.8,0.8h5.1c0.4,0,0.8-0.3,0.8-0.8c0-0.4-0.3-0.8-0.8-0.8h-2.2c0.3-0.9,1.2-1.5,2.2-1.5h27.3
		c-0.1,0.5-0.2,1-0.3,1.5H18.9c-0.4,0-0.8,0.3-0.8,0.8c0,0.4,0.3,0.8,0.8,0.8h23.5c-2.6,7.6-9.9,13.1-18.4,13.1
		c-4.4,0-8.4-1.5-11.7-3.9H26c0.4,0,0.8-0.3,0.8-0.8c0-0.4-0.3-0.8-0.8-0.8h-1.4c-0.4-1.7-1.9-3.1-3.8-3.1h-13
		c-2.1-3.1-3.3-6.8-3.4-10.7l11.2,0c0.4,0,0.8-0.3,0.8-0.8c0-0.4-0.3-0.8-0.8-0.8l-8.1,0c0.3-1.3,1.6-2.3,3-2.3c0.3,0,0.5,0,0.7,0.1
		c0.4,0.1,0.8-0.1,0.9-0.6c0.4-1.6,1.8-2.8,3.5-2.9c0.4,0,0.7-0.4,0.7-0.8c0-0.4-0.4-0.7-0.8-0.7c-2.1,0.2-3.9,1.5-4.6,3.4
		c-0.1,0-0.3,0-0.4,0c-2.3,0-4.2,1.7-4.6,3.9H3.8c-0.4,0-0.8,0.3-0.8,0.7c0,0.1,0,0.3,0,0.4c0,0.1,0,0.1,0,0.2
		c0,4.5,1.4,8.7,3.8,12.1c0,0,0,0,0,0c3.8,5.3,10,8.8,17.1,8.8c9.5,0,17.6-6.4,20.1-15.2c0,0,0,0,0,0C44.4,28.7,44.6,27.7,44.8,26.6
		z M34.6,20v5.7h-4.7V20H34.6z M19.7,13.9h8.7v11.8h-8.7V13.9z M9.1,36.4h11.8c1,0,1.8,0.6,2.2,1.5H10.5C10,37.5,9.6,37,9.1,36.4z"/>
	<path d="M7.1,25.7c-0.4,0-0.8,0.3-0.8,0.8c0,0.4,0.3,0.8,0.8,0.8h3.5c0.4,0,0.8-0.3,0.8-0.8c0-0.4-0.3-0.8-0.8-0.8H7.1z"/>
	<path d="M29.1,38c-0.4,0-0.8,0.3-0.8,0.8c0,0.4,0.3,0.8,0.8,0.8h3.6c0.4,0,0.8-0.3,0.8-0.8c0-0.4-0.3-0.8-0.8-0.8H29.1z"/>
</g>
</symbol><symbol id="header_icon_5" viewBox="0 0 48 48">

<g>
	<path d="M44.9,25.5c0-0.5,0.1-1,0.1-1.5c0-1.1-0.1-2.1-0.2-3.2c-0.1-0.4-0.4-0.7-0.8-0.7c-1.4,0-2.7,0.1-4.1,0.2v-2.5
		c0.1,0,0.2,0,0.3,0c0.3,0,0.6-0.2,0.7-0.4c0.2-0.4,0-0.8-0.3-1l-4.1-2c-0.2-0.1-0.5-0.1-0.7,0l-4.1,2c-0.4,0.2-0.5,0.6-0.3,1
		c0.2,0.3,0.6,0.5,0.9,0.4v3.8C23.2,24.1,15.1,29,8.8,36.1c-0.5-0.6-0.9-1.3-1.4-1.9c0.2,0,0.4,0,0.5,0.1c0,0,0.1,0,0.1,0
		c0.4,0,0.7-0.3,0.8-0.7c0.1-0.4-0.2-0.8-0.7-0.9c-0.5-0.1-1.1-0.1-1.6-0.2c-0.4-0.8-0.8-1.7-1.1-2.6c2.1,0.1,4.1,0.3,6.1,0.8
		c0.1,0,0.1,0,0.2,0c0.4,0,0.7-0.2,0.7-0.6c0.1-0.4-0.2-0.8-0.6-0.9c-2.2-0.5-4.5-0.7-6.8-0.8c-0.2-0.8-0.3-1.7-0.4-2.6
		c3.7,0.1,7.4,0.6,11,1.7c0.1,0,0.1,0,0.2,0c0.3,0,0.6-0.2,0.7-0.5c0.1-0.4-0.1-0.8-0.5-1c-3.7-1.1-7.6-1.7-11.5-1.8
		c0-0.1,0-0.2,0-0.3c0-0.8,0-1.5,0.1-2.3c5.3,0.1,10.5,1.1,15.4,3c0.4,0.2,0.8,0,1-0.4c0.2-0.4,0-0.8-0.4-1c-5.3-2-10.9-3-16.6-3.1
		c-0.4,0-0.7,0.3-0.8,0.7c-0.2,1-0.2,2.1-0.2,3.2c0,1.8,0.2,3.6,0.7,5.3c1.3,4.7,4.1,8.8,8,11.6c0,0,0,0,0,0c3.4,2.5,7.7,4,12.2,4
		c3,0,5.9-0.6,8.6-1.9c0.4-0.2,0.6-0.6,0.4-1c-0.2-0.4-0.6-0.6-1-0.4c-2.5,1.1-5.2,1.7-8,1.7c-0.3,0-0.6,0-0.8,0
		c4.6-4,10.2-6.6,16.2-7.5c-1.3,1.7-2.9,3.2-4.8,4.4c-0.4,0.2-0.5,0.7-0.2,1.1c0.1,0.2,0.4,0.3,0.6,0.3c0.1,0,0.3,0,0.4-0.1
		c5.5-3.6,9-9.4,9.5-15.9C44.9,25.6,44.9,25.6,44.9,25.5z M33.7,17.2L36,16l2.3,1.1v3.4c-0.5,0.1-1,0.1-1.5,0.2v-1.5
		c0-0.4-0.3-0.8-0.8-0.8s-0.8,0.3-0.8,0.8V21c-0.5,0.1-1,0.2-1.5,0.3V17.2z M9.8,37.2c8.5-9.7,20.6-15.3,33.4-15.5
		c0.1,0.8,0.1,1.5,0.1,2.3c0,0.3,0,0.5,0,0.8c-5.5,0.1-10.8,1.2-15.8,3.3c-0.4,0.2-0.6,0.6-0.4,1c0.1,0.3,0.4,0.5,0.7,0.5
		c0.1,0,0.2,0,0.3-0.1c4.8-2,9.8-3.1,15-3.2c-0.1,1.1-0.3,2.1-0.6,3.1c-5.1,0.2-10.1,1.4-14.7,3.6c-4.5,2.1-8.4,5.1-11.8,8.7
		c-1-0.4-1.9-0.9-2.8-1.5c3.4-3.9,7.5-7.1,12.1-9.4c0.4-0.2,0.5-0.7,0.3-1c-0.2-0.4-0.7-0.5-1-0.3c-4.8,2.5-9.1,5.8-12.7,9.9
		C11.3,38.7,10.5,38,9.8,37.2z M21.1,43.2c-1.2-0.2-2.4-0.5-3.5-0.9C24,35.6,32.8,31.5,42.1,31c-0.4,1.1-1,2.2-1.6,3.2
		C33.3,34.9,26.4,38.1,21.1,43.2z"/>
	<path d="M41,7c-4.5-4.5-10.6-7-17-7S11.6,2.5,7,7c-4.5,4.5-7,10.6-7,17s2.5,12.4,7,17c4.5,4.5,10.6,7,17,7s12.4-2.5,17-7
		c4.5-4.5,7-10.6,7-17S45.5,11.6,41,7z M24,46.5C11.6,46.5,1.5,36.4,1.5,24S11.6,1.5,24,1.5S46.5,11.6,46.5,24S36.4,46.5,24,46.5z"/>
	<path d="M24,12.8c2.7,0,4.9-2.2,4.9-4.9S26.7,3.1,24,3.1s-4.9,2.2-4.9,4.9S21.3,12.8,24,12.8z M24,4.6c1.8,0,3.3,1.5,3.3,3.3
		s-1.5,3.3-3.3,3.3s-3.3-1.5-3.3-3.3S22.2,4.6,24,4.6z"/>
</g>
</symbol><symbol id="header_icon_6" viewBox="0 0 48 48">

<g>
	<path d="M41,7c-4.5-4.5-10.6-7-17-7S11.6,2.5,7,7c-4.5,4.5-7,10.6-7,17s2.5,12.4,7,17c4.5,4.5,10.6,7,17,7s12.4-2.5,17-7
		c4.5-4.5,7-10.6,7-17S45.5,11.6,41,7z M24,46.5C11.6,46.5,1.5,36.4,1.5,24S11.6,1.5,24,1.5S46.5,11.6,46.5,24S36.4,46.5,24,46.5z"/>
	<circle cx="24" cy="10" r="0.8"/>
	<path d="M44.7,24.8c-0.1-0.2-0.3-0.2-0.6-0.2h-2.7v-2.3c0-0.4-0.3-0.8-0.8-0.8s-0.8,0.3-0.8,0.8v2.3H38v-5.4c0-0.3-0.1-0.5-0.4-0.6
		l-7.8-4.9V10c0-0.4-0.3-0.8-0.8-0.8h-1.4c-0.4-1.7-1.9-3.1-3.8-3.1s-3.4,1.3-3.8,3.1h-1.4c-0.4,0-0.8,0.3-0.8,0.8v3.3h-2.6V11
		c0-0.4-0.3-0.8-0.8-0.8S14,10.6,14,11v2.3h-3.3c-0.4,0-0.8,0.3-0.8,0.8v10.5l-6.1,0c-0.2,0-0.4,0.1-0.6,0.2
		c-0.1,0.2-0.2,0.4-0.2,0.6c0.4,5.7,3,10.8,7.1,14.4c0,0,0.1,0.1,0.1,0.1c2.4,2.1,5.2,3.6,8.4,4.5c0,0,0.1,0,0.1,0
		c1.7,0.4,3.4,0.7,5.3,0.7c1.8,0,3.5-0.2,5.2-0.7c0,0,0.1,0,0.1,0c1.8-0.5,3.5-1.2,5.2-2.1c3.1-1.8,5.7-4.4,7.5-7.5
		c0.2-0.4,0.1-0.8-0.3-1c-0.4-0.2-0.8-0.1-1,0.3c-0.8,1.3-1.7,2.4-2.7,3.5V26h5.3c-0.2,1.8-0.6,3.5-1.3,5.2c-0.2,0.4,0,0.8,0.4,1
		c0.4,0.2,0.8,0,1-0.4c0.8-2.1,1.3-4.2,1.5-6.5C44.9,25.1,44.8,24.9,44.7,24.8z M19.7,17.9h8.7v22h-8.7V17.9z M19.7,10.7h1.3
		c0.4,0,0.8-0.3,0.8-0.8c0-1.3,1-2.3,2.3-2.3s2.3,1,2.3,2.3c0,0.4,0.3,0.8,0.8,0.8h1.3v5.6h-8.7V10.7z M4.7,26l5.3,0v5.4
		c0,0.4,0.3,0.8,0.8,0.8s0.8-0.3,0.8-0.8V14.8h6.6v25h-0.3c-0.4,0-0.8,0.3-0.8,0.8s0.3,0.8,0.8,0.8h0.3v1.1c-2.5-0.8-4.7-2-6.6-3.7
		v-4.3c0-0.4-0.3-0.8-0.8-0.8S10,34,10,34.5v2.9C7.1,34.4,5.2,30.4,4.7,26z M19.7,42.9v-1.6h8.7v1.5c-1.4,0.3-2.9,0.5-4.3,0.5
		C22.5,43.4,21.1,43.2,19.7,42.9z M29.9,42.5v-1.1h0.3c0.4,0,0.8-0.3,0.8-0.8s-0.3-0.8-0.8-0.8h-0.3V15.4l6.6,4.1v19.2
		C34.6,40.4,32.3,41.7,29.9,42.5z"/>
	<path d="M33.2,32.7c-0.4,0-0.8,0.3-0.8,0.8v1c0,0.4,0.3,0.8,0.8,0.8s0.8-0.3,0.8-0.8v-1C34,33,33.6,32.7,33.2,32.7z"/>
	<path d="M33.2,28.6c-0.4,0-0.8,0.3-0.8,0.8v1c0,0.4,0.3,0.8,0.8,0.8s0.8-0.3,0.8-0.8v-1C34,28.9,33.6,28.6,33.2,28.6z"/>
	<path d="M33.2,24.5c-0.4,0-0.8,0.3-0.8,0.8v1c0,0.4,0.3,0.8,0.8,0.8s0.8-0.3,0.8-0.8v-1C34,24.9,33.6,24.5,33.2,24.5z"/>
	<path d="M33.2,20.4c-0.4,0-0.8,0.3-0.8,0.8v1c0,0.4,0.3,0.8,0.8,0.8s0.8-0.3,0.8-0.8v-1C34,20.8,33.6,20.4,33.2,20.4z"/>
	<path d="M14.8,35.2c0.4,0,0.8-0.3,0.8-0.8v-1c0-0.4-0.3-0.8-0.8-0.8S14,33,14,33.4v1C14,34.9,14.4,35.2,14.8,35.2z"/>
	<path d="M14.8,31.1c0.4,0,0.8-0.3,0.8-0.8v-1c0-0.4-0.3-0.8-0.8-0.8S14,28.9,14,29.4v1C14,30.8,14.4,31.1,14.8,31.1z"/>
	<path d="M14.8,27.1c0.4,0,0.8-0.3,0.8-0.8v-1c0-0.4-0.3-0.8-0.8-0.8S14,24.9,14,25.3v1C14,26.7,14.4,27.1,14.8,27.1z"/>
	<path d="M14.8,18.9c0.4,0,0.8-0.3,0.8-0.8v-1c0-0.4-0.3-0.8-0.8-0.8S14,16.7,14,17.1v1C14,18.6,14.4,18.9,14.8,18.9z"/>
	<path d="M14.8,23c0.4,0,0.8-0.3,0.8-0.8v-1c0-0.4-0.3-0.8-0.8-0.8S14,20.8,14,21.2v1C14,22.6,14.4,23,14.8,23z"/>
	<path d="M24,35.7c-0.4,0-0.8,0.3-0.8,0.8v1c0,0.4,0.3,0.8,0.8,0.8s0.8-0.3,0.8-0.8v-1C24.8,36.1,24.4,35.7,24,35.7z"/>
	<path d="M24,31.7c-0.4,0-0.8,0.3-0.8,0.8v1c0,0.4,0.3,0.8,0.8,0.8s0.8-0.3,0.8-0.8v-1C24.8,32,24.4,31.7,24,31.7z"/>
	<path d="M24,27.6c-0.4,0-0.8,0.3-0.8,0.8v1c0,0.4,0.3,0.8,0.8,0.8s0.8-0.3,0.8-0.8v-1C24.8,27.9,24.4,27.6,24,27.6z"/>
	<path d="M24,23.5c-0.4,0-0.8,0.3-0.8,0.8v1c0,0.4,0.3,0.8,0.8,0.8s0.8-0.3,0.8-0.8v-1C24.8,23.8,24.4,23.5,24,23.5z"/>
	<path d="M24,19.4c-0.4,0-0.8,0.3-0.8,0.8v1c0,0.4,0.3,0.8,0.8,0.8s0.8-0.3,0.8-0.8v-1C24.8,19.7,24.4,19.4,24,19.4z"/>
	<path d="M22,14.8H26c0.4,0,0.8-0.3,0.8-0.8s-0.3-0.8-0.8-0.8H22c-0.4,0-0.8,0.3-0.8,0.8S21.5,14.8,22,14.8z"/>
</g>
</symbol><symbol id="lang_ru" viewBox="0 0 14 14">
<g>
	<path fill="#FFFFFF" d="M7,0C3.9,0,1.3,2,0.4,4.7h13.2C12.7,2,10.1,0,7,0z"/>
	<path fill="#346DA6" d="M0.4,9.3h13.2C13.9,8.6,14,7.8,14,7s-0.1-1.6-0.4-2.3H0.4C0.1,5.4,0,6.2,0,7S0.1,8.6,0.4,9.3z"/>
	<path fill="#CA4738" d="M7,14c3.1,0,5.7-2,6.6-4.7H0.4C1.3,12,3.9,14,7,14z"/>
</g>
</symbol><symbol id="menu_icon" viewBox="0 0 46.5 32">
<style type="text/css">
	.st0{fill:#FFFFFF;}
</style>

<g>
	<g id="menu_1_">
		<g>
			<path class="st0" d="M0,0v2.9h46.5V0H0z M0,17.5h46.5v-2.9H0V17.5z M0,32h46.5v-2.9H0V32z"/>
		</g>
	</g>
</g>
</symbol><symbol id="modal_close" viewBox="0 0 21 21">

<path fill="#FFF" d="M20.8,2.5c0.3,0.3,0.3,0.8,0,1.1l-6.3,6.3c-0.3,0.3-0.3,0.8,0,1.1l6.3,6.3c0.3,0.3,0.3,0.8,0,1.1l-2.3,2.3
	c-0.3,0.3-0.8,0.3-1.1,0l-6.3-6.3c-0.3-0.3-0.8-0.3-1.1,0l-6.3,6.3c-0.3,0.3-0.8,0.3-1.1,0l-2.3-2.3c-0.3-0.3-0.3-0.8,0-1.1l6.3-6.3
	c0.3-0.3,0.3-0.8,0-1.1L0.2,3.7c-0.3-0.3-0.3-0.8,0-1.1l2.3-2.3c0.3-0.3,0.8-0.3,1.1,0l6.3,6.3c0.3,0.3,0.8,0.3,1.1,0l6.3-6.3
	c0.3-0.3,0.8-0.3,1.1,0L20.8,2.5z"/>
</symbol><symbol id="pay_1" viewBox="0 0 41.8 25">
<g>
	<path fill="#FFF" d="M19.6,11.6c-0.7,0-0.9,0.8-0.9,0.9h1.5C20.2,12.4,20.3,11.6,19.6,11.6z"/>
	<path fill="#FFF" d="M40.4,15.3C40.4,15.2,40.4,15.2,40.4,15.3C40.4,15.2,40.4,15.2,40.4,15.3c0-0.1,0-0.1,0-0.1c0,0,0,0-0.1,0
		h-0.1v0.1L40.4,15.3C40.4,15.3,40.4,15.3,40.4,15.3z"/>
	<path fill="#FFF" d="M40,15.1c0,0.1,0,0.1,0,0.2c0,0.1,0,0.1,0,0.2c0,0.1,0.1,0.1,0.1,0.1c0.1,0,0.1,0,0.2,0c0.1,0,0.1,0,0.2,0
		c0.1,0,0.1-0.1,0.1-0.1c0-0.1,0-0.1,0-0.2c0-0.1,0-0.1,0-0.2c0-0.1-0.1-0.1-0.1-0.1c-0.1,0-0.1,0-0.2,0c-0.1,0-0.1,0-0.2,0
		C40.1,15,40.1,15.1,40,15.1z M40.4,15.1C40.4,15.1,40.5,15.1,40.4,15.1c0.1,0.1,0.1,0.1,0.1,0.1c0,0,0,0.1,0,0.1c0,0-0.1,0-0.1,0
		c0,0,0,0,0,0c0,0,0,0,0.1,0.1l0.1,0.1h-0.1l0-0.1c0-0.1-0.1-0.1-0.1-0.1c0,0,0,0-0.1,0h0v0.2h-0.1v-0.4h0.2
		C40.4,15.1,40.4,15.1,40.4,15.1z"/>
	<path fill="#FFF" d="M8.3,14.2c0,0.2,0.1,0.5,0.5,0.5c0.8,0,1-1,0.9-1.3c0,0-0.1,0-0.3,0C8.5,13.4,8.3,13.8,8.3,14.2z"/>
	<path fill="#FFF" d="M29.9,14.2c0,0.2,0.1,0.5,0.5,0.5c0.8,0,1-1,0.9-1.3c0,0-0.1,0-0.3,0C30.1,13.4,29.9,13.8,29.9,14.2z"/>
	<path fill="#FFF" d="M29.3,0c-3.2,0-6.2,1.2-8.4,3.2c-2.2-2-5.2-3.2-8.4-3.2c0,0-0.1,0-0.1,0C5.6,0,0,5.6,0,12.5
		C0,19.4,5.6,25,12.5,25c3.2,0,6.2-1.2,8.4-3.2c2.2,2,5.2,3.2,8.4,3.2c6.9,0,12.5-5.6,12.5-12.5c0,0,0,0,0,0C41.8,5.6,36.2,0,29.3,0
		z M19.7,4.5h2.4c0.4,0.4,0.7,0.9,1,1.3h-4.2C19.1,5.4,19.4,5,19.7,4.5z M18.1,7.2h5.7c0.2,0.4,0.4,0.9,0.5,1.3h-6.9
		C17.5,8.4,17.7,7.9,18.1,7.2z M5.1,15.7l0.8-4.8l-1.7,4.8H3.2l-0.1-4.8l-0.8,4.8H1l1.1-6.3H4l0.1,3.9l1.3-3.9h2.1l-1,6.3H5.1z
		 M9.6,15.7l0-0.5c0,0-0.4,0.6-1.4,0.6c-0.5,0-1.3-0.3-1.3-1.4c0-1.5,1.2-2,2.4-2c0.2,0,0.6,0,0.6,0s0-0.1,0-0.3
		c0-0.4-0.4-0.5-0.9-0.5c-0.9,0-1.5,0.2-1.5,0.2l0.2-1.1c0,0,0.7-0.3,1.6-0.3c0.5,0,1.8,0.1,1.8,1.6l-0.5,3.7H9.6z M14.6,14.1
		c0,1.8-1.7,1.7-2,1.7c-1.1,0-1.5-0.2-1.5-0.2l0.2-1.2c0,0,0.6,0.2,1.2,0.2c0.4,0,0.8,0,0.8-0.5c0-0.6-1.7-0.5-1.7-2
		c0-1.3,1-1.7,2-1.7c0.8,0,1.2,0.1,1.2,0.1l-0.2,1.2c0,0-0.7-0.1-0.9-0.1c-0.5,0-0.7,0.1-0.7,0.4C13,12.7,14.6,12.4,14.6,14.1z
		 M16.6,14.5c0.1,0,0.3,0,0.3,0l-0.2,1.1c-0.1,0-0.5,0.2-1,0.2c-0.6,0-1.1-0.3-1.1-1.1c0-0.5,0.8-4.9,0.8-4.9h1.3l-0.1,0.8h0.7
		l-0.2,1.3h-0.7l-0.4,2.3C16.1,14.3,16.2,14.5,16.6,14.5z M19.6,10.4c1.5,0,1.9,1.1,1.9,1.9c0,0.4-0.2,1.2-0.2,1.2h-2.7
		c0,0-0.2,1.1,1.2,1.1c0.7,0,1.4-0.3,1.4-0.3l-0.2,1.3c0,0-0.4,0.2-1.4,0.2c-1.1,0-2.3-0.4-2.3-2.3C17.2,11.8,18.2,10.4,19.6,10.4z
		 M20.9,21.7L20.9,21.7C20.9,21.7,20.9,21.7,20.9,21.7C20.9,21.7,20.9,21.8,20.9,21.7c-0.5-0.4-0.9-0.9-1.3-1.3h2.6
		C21.8,20.9,21.4,21.3,20.9,21.7z M23.1,19.1h-4.4c-0.3-0.4-0.5-0.9-0.7-1.3h5.9C23.6,18.2,23.4,18.7,23.1,19.1z M22.8,15.7h-1.4
		l0.8-5.2h1.2l-0.1,0.7c0,0,0.4-0.8,1-0.8c0.2,0,0.3,0,0.3,0c-0.2,0.4-0.3,0.7-0.5,1.5C23.3,11.7,23.2,13.5,22.8,15.7z M28,15.6
		c0,0-0.7,0.2-1.2,0.2c-1.6,0-2.4-1.1-2.4-2.8c0-2.5,1.5-3.8,3-3.8c0.7,0,1.5,0.3,1.5,0.3l-0.2,1.4c0,0-0.5-0.4-1.2-0.4
		c-0.9,0-1.7,0.9-1.7,2.4c0,0.8,0.4,1.5,1.3,1.5c0.4,0,1.1-0.3,1.1-0.3L28,15.6z M31.2,15.7l0-0.5c0,0-0.4,0.6-1.4,0.6
		c-0.5,0-1.3-0.3-1.3-1.4c0-1.5,1.2-2,2.4-2c0.2,0,0.6,0,0.6,0s0-0.1,0-0.3c0-0.4-0.4-0.5-0.9-0.5c-0.9,0-1.5,0.2-1.5,0.2l0.2-1.1
		c0,0,0.7-0.3,1.6-0.3c0.5,0,1.8,0.1,1.8,1.6l-0.5,3.7H31.2z M34,15.7h-1.4l0.8-5.2h1.2l-0.1,0.7c0,0,0.4-0.8,1-0.8
		c0.2,0,0.3,0,0.3,0c-0.2,0.4-0.3,0.7-0.5,1.5C34.4,11.7,34.4,13.5,34,15.7z M40.7,15.1c0,0.1,0.1,0.1,0.1,0.2c0,0.1,0,0.1-0.1,0.2
		c0,0.1-0.1,0.1-0.1,0.2c-0.1,0-0.1,0.1-0.2,0.1c-0.1,0-0.1,0-0.2-0.1c-0.1,0-0.1-0.1-0.1-0.2c0-0.1-0.1-0.1-0.1-0.2
		c0-0.1,0-0.1,0.1-0.2c0-0.1,0.1-0.1,0.2-0.1c0.1,0,0.1-0.1,0.2-0.1c0.1,0,0.1,0,0.2,0.1C40.6,15,40.6,15,40.7,15.1z M38.7,11.1
		L39,9.4l1.3,0l-1,6.3h-1.3l0.1-0.5c0,0-0.4,0.6-1.2,0.6c-1.1,0-1.6-1.1-1.6-2.2c0-1.7,1-3.2,2.2-3.2C38.2,10.4,38.7,11.1,38.7,11.1
		z"/>
	<path fill="#FFF" d="M36.6,13.4c0,0.6,0.2,1,0.7,1c0.7,0,1.1-0.9,1.1-1.6c0-0.8-0.2-1.1-0.7-1.1C37.1,11.7,36.6,12.4,36.6,13.4z"/>
</g>
</symbol><symbol id="pay_2" viewBox="0 0 45.3 25">
<g>
	<path fill="#FFF" d="M3.3,25c9.2-4,22.2-7.6,39.4-4l0.2-4.4c-18.1-2-31.1,3.8-39.6,7.9L3.3,25L3.3,25z"/>
	<polygon fill="#FFF" points="13,13.5 17,0.3 20.5,0.3 16.5,13.5 	"/>
	<path fill="#FFF" d="M11.4,0.3L8.1,5.9C7.3,7.4,6.8,8.1,6.6,9h0c0.1-1.2-0.1-2.6-0.1-3.4L6.1,0.3h-6L0,0.6c1.5,0,2.5,0.8,2.7,2.4
		l1.2,10.5h3.7l7.5-13.2H11.4L11.4,0.3z"/>
	<path fill="#FFF" d="M39.2,13.5l-0.1-2l-4.5,0l-0.9,2h-3.9l7-13.2h4.8l1.2,13.2L39.2,13.5L39.2,13.5z M38.8,5.7c0-1-0.1-2.3,0-3.1
		h-0.1c-0.2,0.7-1.2,2.6-1.6,3.6l-1.3,2.9h3.1L38.8,5.7L38.8,5.7z"/>
	<path fill="#FFF" d="M24.3,13.9c-2.5,0-4.2-0.8-5.4-1.5l1.7-2.6c1.1,0.6,1.9,1.3,3.9,1.3c0.6,0,1.2-0.2,1.6-0.8
		c0.5-0.9-0.1-1.3-1.5-2.1l-0.7-0.4c-2.1-1.4-3-2.8-2-5.1c0.6-1.5,2.3-2.6,5-2.6c1.9,0,3.6,0.8,4.6,1.6l-2,2.3
		c-1-0.8-1.8-1.2-2.8-1.2c-0.8,0-1.3,0.3-1.5,0.7c-0.4,0.7,0.1,1.2,1.2,1.9l0.8,0.5c2.5,1.6,3.1,3.2,2.5,4.8
		C28.6,13.3,26.5,13.9,24.3,13.9L24.3,13.9z"/>
	<path fill="#FFF" d="M43.8,2.3h-0.2V0.9h0.5c0.3,0,0.5,0.1,0.5,0.4c0,0.3-0.2,0.4-0.4,0.4l0.4,0.6h-0.3L44,1.7h-0.2L43.8,2.3
		L43.8,2.3z M44,1.5c0.2,0,0.3,0,0.3-0.2c0-0.2-0.2-0.2-0.3-0.2h-0.3v0.4H44L44,1.5z M44,2.9c-0.7,0-1.3-0.6-1.3-1.3
		c0-0.8,0.6-1.3,1.3-1.3c0.7,0,1.3,0.5,1.3,1.3C45.3,2.4,44.7,2.9,44,2.9L44,2.9z M44,0.5c-0.6,0-1,0.4-1,1.1c0,0.6,0.4,1.1,1,1.1
		c0.6,0,1-0.4,1-1.1C45,1,44.6,0.5,44,0.5L44,0.5z"/>
</g>
</symbol><symbol id="pay_3" viewBox="0 0 100 25">
<g>
	<g>
		<path fill-rule="evenodd" clip-rule="evenodd" fill="#FFFFFF" d="M87.4,0c2,0,3.8,0.5,5.5,1.3c0.3,0.1,0.5,0.3,0.8,0.4l-1.2,1l-1.7-1.8l-2.9,2.6l-1.7-1.9l-5.4,4.9l3.5,3.8
			l-1.4,1.2l3.4,3.8l-1.4,1.2l4.9,5.5l2.9-2.7l2.5,2.9c-0.5,0.4-1,0.8-1.6,1.1c-1.8,1-3.9,1.6-6.2,1.6c-6.9,0-12.5-5.6-12.5-12.5
			C74.9,5.6,80.5,0,87.4,0L87.4,0z"/>
		<polygon fill-rule="evenodd" clip-rule="evenodd" fill="#FFFFFF" points="85.1,11.7 88.1,9 90.8,12 87.8,14.7 85.1,11.7 		"/>
		<polygon fill-rule="evenodd" clip-rule="evenodd" fill="#FFFFFF" points="87.2,16.8 90.2,14.2 92.9,17.1 89.9,19.8 87.2,16.8 		"/>
		<polygon fill-rule="evenodd" clip-rule="evenodd" fill="#FFFFFF" points="83,6.6 86,4 88.6,6.9 85.7,9.6 83,6.6 		"/>
		<polygon fill-rule="evenodd" clip-rule="evenodd" fill="#FFFFFF" points="88.4,5.2 90.7,3.2 92.7,5.4 90.4,7.4 88.4,5.2 		"/>
		<polygon fill-rule="evenodd" clip-rule="evenodd" fill="#FFFFFF" points="92.4,14.4 94.6,12.4 96.6,14.6 94.4,16.6 92.4,14.4 		"/>
		<polygon fill-rule="evenodd" clip-rule="evenodd" fill="#FFFFFF" points="94.4,18.9 96.6,16.9 98.6,19.1 96.4,21.1 94.4,18.9 		"/>
		<polygon fill-rule="evenodd" clip-rule="evenodd" fill="#FFFFFF" points="95.3,8.6 96.7,7.2 98.1,8.7 96.6,10.1 95.3,8.6 		"/>
		<polygon fill-rule="evenodd" clip-rule="evenodd" fill="#FFFFFF" points="93.4,4.2 94.8,2.8 96.2,4.3 94.7,5.6 93.4,4.2 		"/>
		<polygon fill-rule="evenodd" clip-rule="evenodd" fill="#FFFFFF" points="97.2,13 98.6,11.6 100,13.1 98.5,14.5 97.2,13 		"/>
		<polygon fill-rule="evenodd" clip-rule="evenodd" fill="#FFFFFF" points="90.5,9.7 92.7,7.7 94.7,9.9 92.5,11.9 90.5,9.7 		"/>
	</g>
	<g>
		<path fill="#FFFFFF" d="M5.8,10.3L5.8,10.3l-2,7.1H2.3L0,7.4h1.6l1.6,7.5h0.1l1.9-7.5h1.3l2,7.5h0.1L10,7.4h1.7L9.3,17.5H7.8
			L5.8,10.3z"/>
		<path fill="#FFFFFF" d="M17.9,15.9V17c-0.6,0.4-1.5,0.7-2.5,0.7c-2.4,0-3.4-1.5-3.4-3.7c0-2.2,1.1-3.7,3.2-3.7c1.8,0,2.9,1.2,2.9,3.5
			v0.5h-4.6c0,1.7,0.7,2.5,2.2,2.5C16.4,16.6,17.2,16.4,17.9,15.9z M13.5,13.2h3.3c-0.1-1.5-0.8-2.1-1.6-2.1
			C14.4,11.1,13.7,11.8,13.5,13.2z"/>
		<path fill="#FFFFFF" d="M20.9,10.7c0.4-0.2,1.2-0.5,1.9-0.5c1.8,0,2.7,1.2,2.7,3.5c0,2.7-1.3,4-3.4,4c-0.8,0-1.9-0.2-2.8-0.7V7
			l1.5-0.4V10.7z M20.9,16.4c0.5,0.2,1,0.2,1.3,0.2c1.1,0,1.9-0.7,1.9-3c0-1.8-0.7-2.4-1.6-2.4c-0.6,0-1,0.2-1.6,0.5V16.4z"/>
		<path fill="#FFFFFF" d="M32.1,15.3L32.1,15.3l3.1-8H37v10.1h-1.5v-7.3h-0.1l-2.9,7.3h-0.9l-2.9-7.2h-0.1v7.2h-1.3V7.4h1.7L32.1,15.3z
			"/>
		<path fill="#FFFFFF" d="M38.5,13.9c0-2.5,1.4-3.7,3.3-3.7c1.9,0,3.3,1.2,3.3,3.7c0,2.4-1.3,3.7-3.3,3.7
			C39.8,17.6,38.5,16.3,38.5,13.9z M43.5,13.9c0-1.9-0.8-2.7-1.8-2.7c-0.9,0-1.8,0.8-1.8,2.7c0,2,0.7,2.7,1.8,2.7
			C42.8,16.6,43.5,15.9,43.5,13.9z"/>
		<path fill="#FFFFFF" d="M46.4,11.2c0.6-0.4,2-1.1,3.6-1.1c1.7,0,2.4,0.7,2.4,2.1v5.2h-1.5v-4.8c0-1.1-0.6-1.3-1.3-1.3
			c-0.6,0-1.3,0.3-1.7,0.5v5.6h-1.5V11.2z"/>
		<path fill="#FFFFFF" d="M59.6,15.9V17c-0.6,0.4-1.5,0.7-2.5,0.7c-2.4,0-3.4-1.5-3.4-3.7c0-2.2,1.1-3.7,3.2-3.7c1.8,0,2.9,1.2,2.9,3.5
			v0.5h-4.6c0,1.7,0.7,2.5,2.2,2.5C58.1,16.6,58.8,16.4,59.6,15.9z M55.2,13.2h3.3c-0.1-1.5-0.8-2.1-1.6-2.1
			C56,11.1,55.4,11.8,55.2,13.2z"/>
		<path fill="#FFFFFF" d="M65.4,10.4h1.5l-2.6,7.1c-0.7,2-1.6,3-3.2,3v-1.2c1,0,1.6-0.8,1.9-1.8l-2.7-7.1h1.6l1.8,5.2h0.1L65.4,10.4z"/>
	</g>
</g>
</symbol><symbol id="pay_4" viewBox="0 0 95.2 25">
<g>
	<path fill="#FFFFFF" d="M72.8,6.6h-5.4c-0.4,0-0.7,0.3-0.7,0.6L64.5,21c0,0.3,0.2,0.5,0.4,0.5h2.8c0.3,0,0.5-0.2,0.5-0.4l0.6-3.9
		c0.1-0.4,0.4-0.6,0.7-0.6h1.7c3.5,0,5.6-1.7,6.1-5.1c0.3-1.5,0-2.6-0.7-3.5C75.9,7.1,74.6,6.6,72.8,6.6 M73.4,11.6
		c-0.3,1.9-1.8,1.9-3.2,1.9h-0.8L70,10c0-0.2,0.2-0.4,0.4-0.4h0.4c1,0,1.9,0,2.3,0.5C73.4,10.5,73.5,11,73.4,11.6 M34.5,6.6h-5.4
		c-0.4,0-0.7,0.3-0.7,0.6L26.3,21c0,0.3,0.2,0.5,0.5,0.5h2.6c0.4,0,0.7-0.3,0.7-0.6l0.6-3.7c0.1-0.4,0.4-0.6,0.7-0.6H33
		c3.5,0,5.6-1.7,6.1-5.1c0.2-1.5,0-2.6-0.7-3.5C37.7,7.1,36.3,6.6,34.5,6.6 M35.1,11.6c-0.3,1.9-1.8,1.9-3.2,1.9h-0.8l0.6-3.6
		c0-0.2,0.2-0.4,0.5-0.4h0.4c1,0,1.9,0,2.3,0.5C35.2,10.5,35.2,11,35.1,11.6 M50.6,11.6H48c-0.2,0-0.4,0.2-0.4,0.4l-0.1,0.7
		l-0.2-0.3c-0.6-0.8-1.8-1.1-3-1.1c-2.8,0-5.3,2.2-5.7,5.2c-0.3,1.5,0.1,2.9,0.9,3.9c0.8,0.9,1.9,1.3,3.3,1.3c2.3,0,3.5-1.5,3.5-1.5
		L46.1,21c0,0.3,0.2,0.5,0.4,0.5h2.3c0.4,0,0.7-0.3,0.7-0.6l1.4-8.8C51.1,11.8,50.8,11.6,50.6,11.6 M47,16.6
		c-0.3,1.5-1.4,2.5-2.9,2.5c-0.8,0-1.4-0.2-1.7-0.7c-0.4-0.4-0.5-1.1-0.4-1.8c0.2-1.5,1.4-2.5,2.9-2.5c0.7,0,1.3,0.2,1.7,0.7
		C46.9,15.2,47.1,15.9,47,16.6 M88.8,11.6h-2.6c-0.2,0-0.4,0.2-0.4,0.4l-0.1,0.7l-0.2-0.3c-0.6-0.8-1.8-1.1-3-1.1
		c-2.9,0-5.3,2.2-5.7,5.2c-0.3,1.5,0.1,2.9,0.9,3.9c0.8,0.9,1.9,1.3,3.2,1.3c2.3,0,3.6-1.5,3.6-1.5L84.4,21
		c-0.1,0.3,0.2,0.5,0.4,0.5h2.3c0.4,0,0.7-0.3,0.8-0.6l1.4-8.8C89.3,11.8,89.1,11.6,88.8,11.6 M85.3,16.6C85,18.1,83.8,19,82.3,19
		c-0.7,0-1.3-0.2-1.7-0.7c-0.4-0.4-0.5-1.1-0.4-1.8c0.2-1.5,1.4-2.5,2.9-2.5c0.7,0,1.3,0.2,1.7,0.7C85.2,15.2,85.4,15.9,85.3,16.6
		 M64.2,11.6h-2.6c-0.2,0-0.5,0.1-0.6,0.3l-3.6,5.2l-1.5-5c-0.1-0.3-0.4-0.5-0.7-0.5h-2.5c-0.3,0-0.5,0.3-0.4,0.6l2.9,8.3l-2.7,3.8
		c-0.2,0.3,0,0.7,0.4,0.7h2.6c0.2,0,0.5-0.1,0.6-0.3l8.6-12.4C64.8,12,64.6,11.6,64.2,11.6 M91.9,7l-2.2,14c0,0.3,0.2,0.5,0.4,0.5
		h2.2c0.4,0,0.7-0.3,0.7-0.6l2.2-13.8c0-0.3-0.2-0.5-0.4-0.5h-2.5C92.1,6.6,91.9,6.8,91.9,7"/>
	<path fill="#FFFFFF" d="M19,6.8c-1,5.3-4.5,7.1-9,7.1H7.7c-0.5,0-1,0.4-1.1,0.9l-1.5,9.5C5.1,24.7,5.4,25,5.7,25h4
		c0.5,0,0.9-0.3,1-0.8l0-0.2l0.8-4.8l0-0.3c0.1-0.5,0.5-0.8,1-0.8h0.6c3.9,0,7-1.6,7.9-6.2c0.4-1.9,0.2-3.5-0.8-4.7
		c-0.3-0.3-0.7-0.6-1.1-0.9C19.1,6.5,19,6.7,19,6.8L19,6.8z"/>
	<path fill="#FFFFFF" d="M8,6.4C8,6.1,8.2,5.8,8.5,5.7c0.1-0.1,0.3-0.1,0.4-0.1H15c0.7,0,1.4,0,2,0.1c0.2,0,0.3,0.1,0.5,0.1
		c0.2,0,0.3,0.1,0.5,0.1c0.1,0,0.2,0,0.2,0.1c0.3,0.1,0.6,0.2,0.8,0.4c-0.1,0-0.1,0-0.1,0s0,0,0.1,0c0,0,0,0,0,0
		c0.3-1.9,0-3.3-1.1-4.5C16.9,0.6,14.8,0,12.1,0H4.3c-0.5,0-1,0.4-1.1,0.9L0,21.5c-0.1,0.4,0.2,0.8,0.7,0.8h4.8l1.2-7.6l0,0.2
		c0,0,0,0,0,0l0-0.2L8,6.4z"/>
	<path fill="#FFFFFF" d="M19.1,6.4c0,0.1,0,0.3-0.1,0.5c-1,5.3-4.5,7.1-9,7.1h0c4.5,0,8-1.8,9-7.1C19,6.7,19.1,6.5,19.1,6.4
		C19.1,6.4,19.1,6.4,19.1,6.4C19.1,6.4,19.1,6.4,19.1,6.4z"/>
	<path fill="#FFFFFF" d="M6.6,14.8L6.6,14.8C6.7,14.4,7,14.1,7.3,14C7,14.1,6.7,14.4,6.6,14.8z"/>
	<path fill="#FFFFFF" opacity="0.5" d="M19,6.8c0-0.2,0.1-0.3,0.1-0.5c0,0,0,0,0,0c-0.3-0.1-0.5-0.3-0.8-0.4c-0.1,0-0.2,0-0.2-0.1
		c-0.2,0-0.3-0.1-0.5-0.1c-0.2,0-0.3-0.1-0.5-0.1c-0.6-0.1-1.3-0.1-2-0.1H8.9c-0.2,0-0.3,0-0.4,0.1C8.2,5.8,8,6.1,8,6.4l-1.3,8.2
		l0,0.2C6.7,14.4,7,14.1,7.3,14c0.1,0,0.3-0.1,0.4-0.1H10C14.5,13.9,18,12.1,19,6.8z"/>
	<polygon fill="#FFFFFF" points="19.1,6.4 19.1,6.4 19.1,6.3 	"/>
</g>
</symbol><symbol id="program_building" viewBox="0 0 70 70">
<g>
	<circle fill="#F07C51" cx="35" cy="35" r="35"/>
	<g>
		<path fill="#FFFFFF" d="M44,48V27h0.6v-3.4H25.4V27H26v21h-1.1v2.1h20.3V48H44z M33.4,28.1h3.2v3.2h-3.2V28.1z M33.4,33.4h3.2v3.2
			h-3.2V33.4z M28.2,28.1h3.2v3.2h-3.2V28.1z M28.2,33.4h3.2v3.2h-3.2V33.4z M38.1,41.7V48h-6.2v-6.2H31c0-2.2,1.8-4,4-4s4,1.8,4,4
			H38.1z M41.8,36.6h-3.2v-3.2h3.2V36.6z M41.8,31.3h-3.2v-3.2h3.2V31.3z"/>
		<path fill="#FFFFFF" d="M31.4,23.1h7.2c0.9,0,1.6-0.7,1.6-1.6c0-0.9-0.7-1.6-1.6-1.6h-7.2c-0.9,0-1.6,0.7-1.6,1.6
			C29.8,22.4,30.5,23.1,31.4,23.1z M37.5,20.7h0.4V22h0.7v0.3h-1L37.5,20.7L37.5,20.7z M36.2,20.7h1V21h-0.7v0.3h0.6v0.3h-0.6V22
			h0.7v0.3h-1.1V20.7z M34.7,20.7H36V21h-0.5v1.4h-0.4V21h-0.4L34.7,20.7L34.7,20.7z M33.9,20.6c0.5,0,0.8,0.4,0.8,0.8
			c0,0.5-0.3,0.9-0.8,0.9c-0.5,0-0.8-0.4-0.8-0.8C33.1,21,33.4,20.6,33.9,20.6z M31.4,20.7h0.4v0.6h0.6v-0.6h0.4v1.7h-0.4v-0.7h-0.6
			v0.7h-0.4V20.7z"/>
		<path fill="#FFFFFF" d="M33.9,22.1c0.3,0,0.4-0.2,0.4-0.6c0-0.3-0.1-0.6-0.4-0.6c-0.3,0-0.4,0.2-0.4,0.6
			C33.5,21.8,33.6,22.1,33.9,22.1z"/>
	</g>
</g>
</symbol><symbol id="program_icon_1" viewBox="0 0 278 200.2">
<g>
	<path fill="#F07C51" d="M278,52.6c0-6.1-2.6-11.6-6.7-15.5c4.1-3.9,6.7-9.4,6.7-15.5C278,9.7,268.3,0,256.5,0H155.8c-10.7,0-19.6,7.9-21.3,18.2
		C104.2,19.8,78.2,38,65.4,63.9H21.5C9.7,63.9,0,73.6,0,85.4c0,6.1,2.6,11.6,6.7,15.5c-4.1,3.9-6.7,9.4-6.7,15.5s2.6,11.6,6.7,15.5
		C2.6,136,0,141.5,0,147.6c0,6.1,2.6,11.6,6.7,15.5c-4.1,3.9-6.7,9.4-6.7,15.5c0,11.9,9.7,21.5,21.5,21.5h100.6
		c10.7,0,19.6-7.9,21.3-18.2c30.4-1.6,56.4-19.8,69.2-45.7h43.8c11.9,0,21.5-9.7,21.5-21.5c0-6.1-2.6-11.6-6.7-15.5
		c4.1-3.9,6.7-9.4,6.7-15.5c0-6.1-2.6-11.6-6.7-15.5C275.4,64.2,278,58.7,278,52.6L278,52.6z M266,52.6c0,5.3-4.3,9.5-9.5,9.5h-44.7
		c-3.7-7-8.3-13.4-13.8-19.1h58.5C261.7,43.1,266,47.4,266,52.6z M266,83.7c0,5.3-4.3,9.5-9.5,9.5h-35.7c-0.6-6.6-1.9-13-3.9-19.1
		h39.6C261.7,74.2,266,78.5,266,83.7z M266,114.8c0,5.3-4.3,9.5-9.5,9.5h-39c1.9-6.1,3.1-12.5,3.5-19.1h35.6
		C261.7,105.3,266,109.5,266,114.8z M122.2,188.2H21.5c-5.3,0-9.5-4.3-9.5-9.5c0-5.3,4.3-9.5,9.5-9.5h73.1
		c10.7,6.9,23.1,11.4,36.5,12.7C129.9,185.6,126.3,188.2,122.2,188.2L122.2,188.2z M12,147.6c0-5.3,4.3-9.5,9.5-9.5h44.7
		c3.7,7,8.3,13.4,13.8,19.1H21.5C16.3,157.2,12,152.9,12,147.6z M12,116.5c0-5.3,4.3-9.5,9.5-9.5h35.7c0.6,6.6,1.9,13,3.9,19.1H21.5
		C16.3,126.1,12,121.8,12,116.5z M12,85.4c0-5.3,4.3-9.5,9.5-9.5h39C58.7,82,57.5,88.4,57.1,95H21.5C16.3,95,12,90.7,12,85.4z
		 M139,170.2c-38.6,0-70.1-31.4-70.1-70.1S100.4,30,139,30s70.1,31.4,70.1,70.1S177.6,170.2,139,170.2z M155.8,12h100.6
		c5.3,0,9.5,4.3,9.5,9.5s-4.3,9.5-9.5,9.5h-73.1c-10.7-6.9-23.1-11.4-36.5-12.7C148.1,14.7,151.7,12,155.8,12z"/>
	<path fill="#F07C51" d="M198.8,100.1c0-33-26.8-59.8-59.8-59.8s-59.8,26.8-59.8,59.8s26.8,59.8,59.8,59.8S198.8,133.1,198.8,100.1z M139,147.9
		c-26.4,0-47.8-21.4-47.8-47.8s21.4-47.8,47.8-47.8s47.8,21.4,47.8,47.8S165.4,147.9,139,147.9z"/>
	<path fill="#F07C51" d="M145,132.1v-1.9c9.6-2.1,16.5-9.1,16.5-17.7s-6.9-15.6-16.5-17.7V82.6c2.8,1.2,4.5,3.3,4.5,5.2c0,3.3,2.7,6,6,6s6-2.7,6-6
		c0-8.6-6.9-15.6-16.5-17.7v-1.9c0-3.3-2.7-6-6-6s-6,2.7-6,6V70c-9.6,2.1-16.5,9.1-16.5,17.7s6.9,15.6,16.5,17.7v12.1
		c-2.8-1.2-4.5-3.3-4.5-5.2c0-3.3-2.7-6-6-6s-6,2.7-6,6c0,8.6,6.9,15.6,16.5,17.7v1.9c0,3.3,2.7,6,6,6S145,135.4,145,132.1z
		 M128.5,87.8c0-1.9,1.7-3.9,4.5-5.2v10.3C130.2,91.7,128.5,89.6,128.5,87.8z M149.5,112.5c0,1.9-1.7,3.9-4.5,5.2v-10.3
		C147.8,108.6,149.5,110.6,149.5,112.5z"/>
</g>
</symbol><symbol id="program_icon_2" viewBox="0 0 612 600.8">

<g>
	<path fill="#F07C51" d="M257.9,330.5c0,17.4-14.1,31.4-31.4,31.4c-17.4,0-31.4-14.1-31.4-31.4c0-17.4,14.1-31.4,31.4-31.4
		C243.9,299.1,257.9,313.1,257.9,330.5z M385.5,299.1c-17.4,0-31.4,14.1-31.4,31.4c0,17.4,14.1,31.4,31.4,31.4s31.4-14.1,31.4-31.4
		C416.9,313.1,402.8,299.1,385.5,299.1z M612,313v59.7c0,30-24.3,54.3-54.3,54.3h-39.4c-39,108.4-138.7,173.8-212.3,173.8
		S132.7,535.4,93.7,427H54.3C24.3,427,0,402.7,0,372.7V313c0-20.6,11.5-38.6,28.5-47.8c0.6-84.8,25.3-151,73.6-196.8
		C149.9,23,218.5,0,306,0s156.1,23,204,68.4c48.3,45.8,73,112,73.6,196.8C600.5,274.4,612,292.3,612,313z M497.1,330.7
		c0-14-0.7-27.1-1.8-39.8c-24.1-22-67.8-38.8-123-45c7.2,8.1,13.5,18.9,17.3,33c-33.8-26.6-100.2-20.3-150.4-79.9
		c-2.9-3.3-5.4-6.5-7.5-9.4c0,0-0.1-0.1-0.1-0.1l0,0c-8.9-12.1-12-19.3-12.1-11.3c-1.5,68.5-50,121.9-104,129.5
		c-0.3,7.5-0.6,15.1-0.6,23.1c0,29,4.7,55.4,12.8,79.1c30.3,36.5,80.3,46.9,124.6,49.6c8.2-13.1,26.7-22.2,48.1-22.2
		c29.1,0,52.7,16.8,52.7,37.4c0,20.7-23.6,37.4-52.7,37.4c-22.4,0-41.5-9.9-49.1-23.9c-30.9-1.8-65-7.1-95.3-21.4
		c42.6,62.8,108.7,96.1,150,96.1C370.9,562.8,497.1,480.9,497.1,330.7z M550.9,258.7C547.4,110.7,463,32.6,306,32.6
		S64.6,110.7,61.1,258.7H82c7.6-49.9,23.8-90.9,48.3-122.4C169.4,86,228.5,60.5,306,60.5S442.6,86,481.7,136.3
		c24.5,31.5,40.6,72.5,48.3,122.4L550.9,258.7L550.9,258.7z"/>
</g>
</symbol><symbol id="program_icon_3" viewBox="0 0 485.69 485.69">
    <path fill="#F07C51" d="M410.428,34.738h-76.405l5.155,23.852c0.634,2.961,0.603,5.934,0.271,8.859h54.621V452.98H91.588V67.449h54.637
        c-0.332-2.941-0.348-5.914,0.285-8.891l5.156-23.82H75.248c-9.031,0-16.34,7.324-16.34,16.354v418.243
        c0,9.016,7.309,16.354,16.34,16.354h335.18c9.031,0,16.354-7.341,16.354-16.354V51.093
        C426.783,42.062,419.459,34.738,410.428,34.738z"/>
    <path fill="#F07C51" d="M355.568,152.949h-111.71c-9.047,0-16.355,7.324-16.355,16.34c0,9.035,7.309,16.355,16.355,16.355h111.71
        c9.047,0,16.354-7.32,16.354-16.355C371.924,160.273,364.615,152.949,355.568,152.949z"/>
    <path fill="#F07C51" d="M355.568,253.254h-111.71c-9.047,0-16.355,7.323-16.355,16.354c0,9.021,7.309,16.357,16.355,16.357h111.71
        c9.047,0,16.354-7.34,16.354-16.357C371.924,260.577,364.615,253.254,355.568,253.254z"/>
    <path fill="#F07C51" d="M119.556,156.792c-6.898,5.82-7.786,16.137-1.965,23.047l23.855,28.27c3.117,3.699,7.688,5.805,12.496,5.805
        c0.398,0,0.792-0.016,1.203-0.047c5.219-0.379,9.949-3.258,12.703-7.719l42.914-69.477c4.746-7.688,2.375-17.75-5.312-22.492
        c-7.688-4.777-17.75-2.375-22.497,5.313l-31.066,50.273l-9.301-11.012C136.763,151.843,126.467,150.956,119.556,156.792z"/>
    <path fill="#F07C51" d="M158.72,245.094c-13.554,0-24.535,10.978-24.535,24.517c0,13.543,10.98,24.52,24.535,24.52
        c13.543,0,24.52-10.977,24.52-24.52C183.24,256.07,172.263,245.094,158.72,245.094z"/>
    <path fill="#F07C51" d="M355.568,351.359h-111.71c-9.047,0-16.355,7.309-16.355,16.358c0,9.017,7.309,16.34,16.355,16.34h111.71
        c9.047,0,16.354-7.323,16.354-16.34C371.924,358.667,364.615,351.359,355.568,351.359z"/>
    <path fill="#F07C51" d="M158.72,343.199c-13.554,0-24.535,10.977-24.535,24.52c0,13.539,10.98,24.521,24.535,24.521
        c13.543,0,24.52-10.979,24.52-24.521C183.24,354.176,172.263,343.199,158.72,343.199z"/>
    <path fill="#F07C51" d="M173.463,75.613h138.73c3.401,0,6.613-1.521,8.746-4.176c2.137-2.629,2.961-6.105,2.229-9.43L311.686,8.859
        C310.564,3.687,305.994,0,300.708,0H184.963c-5.281,0-9.852,3.688-10.977,8.859l-11.5,53.148
        c-0.695,3.324,0.125,6.801,2.247,9.43C166.868,74.093,170.08,75.613,173.463,75.613z"/>
</symbol><symbol id="program_icon_4" viewBox="0 0 512 512">
    <path fill="#F07C51" d="m146.2,86.1c68.3-43.8 155.5-41.9 221.2,1.1l-20.3,2.5c-11.2,1.4-19.1,11.6-17.8,22.8 1.3,10.3 10.1,17.9 20.2,17.9 0.8,0 72.4-8.8 72.4-8.8 5.4-0.7 10.3-3.4 13.6-7.7 3.3-4.3 4.8-9.7 4.1-15.1l-8.7-69.9c-1.4-11.2-11.7-19.2-22.8-17.7-11.2,1.4-19.1,11.6-17.7,22.8l2.7,21.3c-79.3-53.9-185.8-57-268.9-3.6-97.1,62.3-137.5,185.5-96.1,293 3.1,8.1 13.2,16.2 26.4,11.7 10.7-3.7 15.8-15.9 11.7-26.4-34.4-89.5-0.8-192 80-243.9z"/>
    <path fill="#F07C51" d="m484,168.4c-3.1-8.1-13.2-16.2-26.4-11.7-10.7,3.7-15.8,15.9-11.7,26.4 34.5,89.5 0.8,192-80,243.9-68.3,43.8-155.5,41.9-221.2-1.1l20.3-2.5c11.2-1.4 19.1-11.6 17.8-22.8-1.3-10.3-10.1-17.9-20.2-17.9-0.8,0-72.4,8.8-72.4,8.8-5.4,0.7-10.3,3.4-13.6,7.7-3.3,4.3-4.8,9.7-4.1,15.1l8.7,69.9c1.4,11.2 11.7,19.2 22.8,17.7 11.2-1.4 19.1-11.6 17.7-22.8l-2.7-21.3c79.4,53.8 185.9,56.9 269.1,3.5 96.9-62.2 137.3-185.4 95.9-292.9z"/>
</symbol><symbol id="program_man" viewBox="0 0 70 70">
<g>
	<circle fill="#F07C51" cx="35" cy="35" r="35"/>
	<g>
		<g>
			<circle fill="#FFFFFF" cx="35" cy="26.4" r="6.4"/>
			<path fill="#FFFFFF" d="M37.7,33.2h-5.4c-4.5,0-8.2,3.7-8.2,8.2V48l0,0.1l0.5,0.1c4.3,1.3,8,1.8,11.1,1.8c6,0,9.5-1.7,9.7-1.8
				l0.4-0.2h0v-6.6C45.9,36.8,42.2,33.2,37.7,33.2z M36.3,46l-1.2,1.7c0,0,0,0-0.1,0c0,0,0,0,0,0c0,0-0.1,0-0.1,0L33.9,46
				c0,0,0,0,0-0.1l0.5-8.3c0,0,0-0.1,0.1-0.1h1.1c0,0,0.1,0,0.1,0.1L36.3,46C36.3,46,36.3,46,36.3,46z M35.7,37.3h-1.3l-1.2-2.4
				c0-0.2,0.2-0.4,0.4-0.4h2.8c0.2,0,0.4,0.2,0.4,0.4L35.7,37.3z"/>
		</g>
	</g>
</g>
</symbol><symbol id="program_people" viewBox="0 0 70 70">
<circle fill="#F07C51" cx="35" cy="35" r="35"/>
<g>
	<path fill="#FFFFFF" d="M27.6,24.1c0-2.3,1.9-4.2,4.2-4.2c2.3,0,4.2,1.9,4.2,4.2s-1.9,4.2-4.2,4.2C29.5,28.4,27.6,26.5,27.6,24.1z
		 M33.8,31.2c0-0.9,0.4-1.8,0.9-2.5c-0.4-0.1-0.7-0.1-1.1-0.1H30c-0.4,0-0.7,0-1.1,0.1c0.5,0.8,0.9,1.7,0.9,2.7
		c0.7-0.4,1.4-0.6,2.2-0.6C32.6,30.8,33.3,31,33.8,31.2z M34.5,31.6c1.2,0.8,2.1,2.1,2.2,3.6c0.5,0.2,1.1,0.4,1.6,0.4
		c2.1,0,3.9-1.7,3.9-3.9c0-2.1-1.7-3.9-3.9-3.9C36.3,27.8,34.6,29.5,34.5,31.6z M32,39.6c2.1,0,3.9-1.7,3.9-3.9
		c0-2.1-1.7-3.9-3.9-3.9c-2.1,0-3.9,1.7-3.9,3.9C28.1,37.8,29.8,39.6,32,39.6z M33.6,39.8h-3.3c-2.7,0-5,2.2-5,5v4l0,0.1l0.3,0.1
		c2.6,0.8,4.9,1.1,6.8,1.1c3.7,0,5.8-1,5.9-1.1l0.3-0.1h0v-4C38.6,42.1,36.4,39.8,33.6,39.8z M40.1,35.8h-3.3c0,1.3-0.6,2.5-1.5,3.3
		c2.4,0.7,4.2,3,4.2,5.7v1.2c3.2-0.1,5.1-1,5.2-1.1l0.3-0.1h0v-4C45.1,38.1,42.8,35.8,40.1,35.8z M41,27.7c1.2,0.8,2.1,2.1,2.2,3.6
		c0.5,0.2,1.1,0.4,1.6,0.4c2.1,0,3.9-1.7,3.9-3.9c0-2.1-1.7-3.9-3.9-3.9C42.7,23.9,41,25.6,41,27.7z M46.5,31.9h-3.3
		c0,1.3-0.6,2.5-1.5,3.3c2.4,0.7,4.2,3,4.2,5.7v1.2c3.2-0.1,5.1-1,5.2-1.1l0.3-0.1h0v-4C51.5,34.1,49.2,31.9,46.5,31.9z M25.2,35.6
		c0.8,0,1.5-0.2,2.1-0.6c0.2-1.2,0.9-2.3,1.8-3.1c0-0.1,0-0.1,0-0.2c0-2.1-1.7-3.9-3.9-3.9c-2.1,0-3.9,1.7-3.9,3.9
		C21.3,33.8,23,35.6,25.2,35.6z M28.7,39.2c-0.9-0.8-1.4-2-1.5-3.3c-0.1,0-0.2,0-0.4,0h-3.3c-2.7,0-5,2.2-5,5v4l0,0.1l0.3,0.1
		c2.1,0.7,4,1,5.6,1.1v-1.2C24.4,42.1,26.2,39.9,28.7,39.2z"/>
</g>
</symbol><symbol id="program_world" viewBox="0 0 70 70">
<g>
	<circle fill="#F07C51" cx="35" cy="35" r="35"/>
	<g>
		<path fill="#FFFFFF" d="M50.1,34c-0.5-7.6-6.5-13.6-14.1-14.1v0h-1h-1v0c-7.6,0.5-13.6,6.5-14.1,14.1h0v1v1h0
			c0.5,7.6,6.5,13.6,14.1,14.1v0h1h1v0c7.6-0.5,13.6-6.5,14.1-14.1h0v-1L50.1,34L50.1,34z M29.3,23.2c-1,1.3-1.8,2.9-2.4,4.8h-3
			C25.3,25.9,27.1,24.2,29.3,23.2z M22.9,30h3.5c-0.3,1.3-0.4,2.6-0.5,4h-4C22,32.6,22.4,31.2,22.9,30z M21.9,36h4
			c0.1,1.4,0.2,2.8,0.5,4h-3.5C22.4,38.8,22,37.4,21.9,36z M23.9,42.1h3c0.6,1.9,1.4,3.5,2.4,4.8C27.1,45.8,25.3,44.1,23.9,42.1z
			 M34,48c-2.1-0.6-3.9-2.8-4.9-5.9H34V48z M34,40h-5.5c-0.3-1.3-0.5-2.6-0.5-4h6V40z M34,34h-6c0.1-1.4,0.2-2.8,0.5-4H34V34z
			 M34,27.9H29c1.1-3.1,2.9-5.4,4.9-5.9V27.9z M46.1,27.9h-3c-0.6-1.9-1.4-3.5-2.4-4.8C42.9,24.2,44.7,25.9,46.1,27.9z M36,22
			c2.1,0.6,3.9,2.8,4.9,5.9H36V22z M36,30h5.5c0.3,1.3,0.5,2.6,0.5,4h-6V30z M36,36h6c-0.1,1.4-0.2,2.8-0.5,4H36V36z M36,48v-5.9H41
			C39.9,45.2,38.1,47.4,36,48z M40.7,46.8c1-1.3,1.8-2.9,2.4-4.8h3C44.7,44.1,42.9,45.8,40.7,46.8z M47.1,40h-3.5
			c0.3-1.3,0.4-2.6,0.5-4h4C48,37.4,47.6,38.8,47.1,40z M44.1,34c-0.1-1.4-0.2-2.8-0.5-4h3.5c0.5,1.3,0.9,2.6,1,4H44.1z"/>
	</g>
</g>
</symbol><symbol id="search_baby" viewBox="0 0 21.8 20">
<g>
	<g>
		<path fill="#FFF" d="M21.8,7.1c0-3.9-3.1-7.1-7-7.1c-0.4,0-0.8,0-1.2,0.1c-0.2,0-0.5,0.1-0.7,0.2l1.9,6.8L21.8,7.1L21.8,7.1z"/>
		<path fill="#FFF" d="M6.4,8.1c0-0.5-0.2-1.4-0.8-2.2C4.8,5,3.8,4.4,2.4,4.2C2.3,4,2,3.9,1.8,3.9H0.9C0.4,3.9,0,4.3,0,4.7
			c0,0.5,0.4,0.9,0.9,0.9h0.9c0.2,0,0.4-0.1,0.5-0.2c1,0.2,1.8,0.6,2.3,1.2C5,7.2,5.1,7.7,5.2,8.1h0c0,3.8,3.7,6.8,8.3,6.8
			c4.6,0,8.3-3.1,8.3-6.8C21.8,8.1,6.4,8.1,6.4,8.1z"/>
		<path fill="#FFF" d="M10.2,15.2c-1.3,0-2.4,1.1-2.4,2.4S8.9,20,10.2,20s2.4-1.1,2.4-2.4S11.5,15.2,10.2,15.2z M10.2,18.8
			c-0.6,0-1.2-0.5-1.2-1.2s0.5-1.2,1.2-1.2c0.6,0,1.2,0.5,1.2,1.2S10.8,18.8,10.2,18.8z"/>
		<path fill="#FFF" d="M16.6,15.2c-1.3,0-2.4,1.1-2.4,2.4s1.1,2.4,2.4,2.4c1.3,0,2.4-1.1,2.4-2.4S17.9,15.2,16.6,15.2z M16.6,18.8
			c-0.6,0-1.2-0.5-1.2-1.2s0.5-1.2,1.2-1.2c0.6,0,1.2,0.5,1.2,1.2S17.2,18.8,16.6,18.8z"/>
	</g>
</g>
</symbol><symbol id="search_icon" viewBox="0 0 17 17">

<g id="Search_1_">
	<path fill="#FFF" d="M16.6,14.6l-3.7-3.7c0,0,0,0-0.1-0.1C13.6,9.7,14,8.4,14,7c0-3.9-3.1-7-7-7S0,3.1,0,7c0,3.9,3.1,7,7,7
		c1.4,0,2.7-0.4,3.8-1.2c0,0,0,0,0.1,0.1l3.7,3.7c0.6,0.6,1.5,0.6,2,0C17.1,16,17.1,15.1,16.6,14.6z M7,11.6c-2.5,0-4.6-2-4.6-4.6
		c0-2.5,2-4.6,4.6-4.6c2.5,0,4.6,2,4.6,4.6S9.5,11.6,7,11.6z"/>
</g>
</symbol><symbol id="search_man" viewBox="0 0 20 20">
<g>
	<path fill="#FFF" d="M16.3,13.8H15c-1.4,0-2.5-1.1-2.5-2.5v-0.8c0.6-0.7,0.9-1.4,1.2-2.3c0-0.1,0.2-0.2,0.2-0.3c0.5-0.5,0.6-1.3,0.2-1.9
		c0-0.1-0.1-0.2-0.1-0.3c0-0.7,0-1.5,0-2.2c0-0.9-0.3-1.8-0.9-2.5c-0.5-0.5-1.2-0.8-1.9-1C10.3-0.1,9.4,0,8.5,0.2
		C7.7,0.4,7,0.8,6.6,1.5C6.2,2.1,6,2.8,6,3.5C6,4.2,6,5,6,5.7C6,5.9,5.9,6,5.8,6.1C5.5,6.7,5.6,7.5,6.2,8c0.1,0.1,0.2,0.3,0.2,0.4
		c0.2,0.7,0.6,1.4,1.1,2v0.8c0,1.4-1.1,2.5-2.5,2.5H3.8c0,0-2.3,0.6-3.8,3.7v1.3C0,19.4,0.6,20,1.3,20h17.5c0.7,0,1.2-0.6,1.2-1.2
		v-1.3C18.5,14.4,16.3,13.8,16.3,13.8z"/>
</g>
</symbol><symbol id="search_star" viewBox="0 0 21.1 20">
<g>
	<path fill="#FFF" d="M20.1,6.8l-5.8-0.5c-0.4,0-0.7-0.3-0.8-0.6l-2.1-5c-0.3-0.8-1.5-0.8-1.8,0l-2.1,5C7.4,6,7.1,6.2,6.7,6.3L0.9,6.8
		C0,6.9-0.3,8,0.3,8.6l4.4,3.8C5,12.6,5.1,13,5,13.4l-1.3,5.4c-0.2,0.8,0.7,1.5,1.5,1.1L10,17c0.3-0.2,0.7-0.2,1,0l4.8,2.8
		c0.8,0.4,1.7-0.2,1.5-1.1L16,13.4c-0.1-0.4,0-0.7,0.3-1l4.4-3.8C21.4,8,21,6.9,20.1,6.8z"/>
</g>
</symbol><symbol id="slider_arrow_next" viewBox="0 0 21.4 40">

<g>
	<path d="M2.4,0.4C2.1,0.1,1.8,0,1.4,0s-0.7,0.1-1,0.4c-0.6,0.6-0.6,1.4,0,2L18,20L0.4,37.6c-0.6,0.6-0.6,1.4,0,2
		c0.6,0.6,1.4,0.6,2,0L21,21c0.6-0.6,0.6-1.4,0-2L2.4,0.4z"/>
</g>
</symbol><symbol id="slider_arrow_prew" viewBox="0 0 21.4 40">

<g>
	<path d="M19,39.6c0.3,0.3,0.6,0.4,1,0.4s0.7-0.1,1-0.4c0.6-0.6,0.6-1.4,0-2L3.4,20L21,2.4c0.6-0.6,0.6-1.4,0-2s-1.4-0.6-2,0L0.4,19
		c-0.6,0.6-0.6,1.4,0,2L19,39.6z"/>
</g>
</symbol><symbol id="soc_fb" viewBox="0 0 48 48">
<g>
	<path fill="#475B9B" d="M24,0C24,0,24,0,24,0C24,0,24,0,24,0C10.7,0,0,10.7,0,24s10.7,24,24,24c0,0,0,0,0,0s0,0,0,0
		c13.3,0,24-10.7,24-24S37.3,0,24,0z M21,39V25h-5v-5h5v-4c0-4.6,2.9-7,7-7c2,0,4,0,4,0v5h-2c-2.2,0-3,0.5-3,2v4l5,0l-1,5h-4v14H21z
		"/>
</g>
</symbol><symbol id="soc_g" viewBox="0 0 48 48">
<g>
	<path fill="#E13719" d="M24,0C24,0,24,0,24,0C24,0,24,0,24,0C10.7,0,0,10.7,0,24s10.7,24,24,24c0,0,0,0,0,0s0,0,0,0
		c13.3,0,24-10.7,24-24S37.3,0,24,0z M29,24v-2h4v-4h2v4h4v2h-4v4h-2v-4H29z M19,39c-5.2,0-10-2.6-10-6c0-3.4,3.8-6,9-6
		c0.6,0,1.5,0,2,0c-0.7-0.7-1.5-1.7-1.5-2.7c0-0.6,0.2-1.2,0.5-1.7c-0.3,0-0.6,0-0.9,0c-4.2,0-7.1-2.8-7.1-6.6c0-3.7,3.8-7,8-7
		c2.3,0,9.4,0,9.4,0L26,10h-3c2,1,3,3.7,3,6c0,2-1.5,3.8-3,5c-1.5,1.2-1,3-1,3c0,0.9,2,2,2,2c2.5,1.7,5,3.3,5,6C29,36,24.9,39,19,39
		z"/>
	<path fill="#E13719" d="M21,28c0,0-1.2,0-2,0c-3.6,0-7,2.3-7,5c0,2.7,3.4,4,7,4c5,0,7-1,7-4c0-0.3,0-2-1-3C23.9,28.9,22,28,21,28z"/>
	<path fill="#E13719" d="M23,16.1c-0.4-3.1-2.6-6-5-6.1c-2.4-0.1-4.4,2.9-4,6c0.4,3.1,3.6,6,6,6C22,22,23.4,19.2,23,16.1z"/>
</g>
</symbol><symbol id="soc_g2" viewBox="0 0 48 48">
<g>
	<polygon fill="none" points="35,18 33,18 33,22 29,22 29,24 33,24 33,28 35,28 35,24 39,24 39,22 35,22 	"/>
	<path fill="none" d="M24,26c0,0-2-1.1-2-2c0,0-0.5-1.8,1-3c1.5-1.2,3-3,3-5c0-2.3-1-5-3-6h3l2.4-1c0,0-7.1,0-9.4,0
		c-4.2,0-8,3.3-8,7c0,3.7,2.8,6.6,7.1,6.6c0.3,0,0.6,0,0.9,0c-0.3,0.5-0.5,1.1-0.5,1.7c0,1,0.8,2,1.5,2.7c-0.5,0-1.4,0-2,0
		c-5.2,0-9,2.6-9,6c0,3.4,4.9,6,10,6c5.9,0,10-3,10-7C29,29.3,26.5,27.7,24,26z M14,16c-0.4-3.1,1.6-6.1,4-6c2.4,0.1,4.6,2.9,5,6.1
		c0.4,3.1-1,5.9-3,5.9C17.6,22,14.4,19.1,14,16z M19,37c-3.6,0-7-1.3-7-4c0-2.7,3.4-5,7-5c0.8,0,2,0,2,0c1,0,2.9,0.9,4,2
		c1,1,1,2.7,1,3C26,36,24,37,19,37z"/>
	<path fill="#E13719" d="M33.9,32.5L33.9,32.5c-0.1,0.5-0.3,1.2-0.4,1.6l-0.3,1.4h1.5l-0.4-1.5C34.2,33.6,34,33,33.9,32.5z"/>
	<path fill="#E13719" d="M24,0C24,0,24,0,24,0C24,0,24,0,24,0C10.7,0,0,10.7,0,24s10.7,24,24,24c0,0,0,0,0,0s0,0,0,0
		c13.3,0,24-10.7,24-24S37.3,0,24,0z M19,39c-5.2,0-10-2.6-10-6c0-3.4,3.8-6,9-6c0.6,0,1.5,0,2,0c-0.7-0.7-1.5-1.7-1.5-2.7
		c0-0.6,0.2-1.2,0.5-1.7c-0.3,0-0.6,0-0.9,0c-4.2,0-7.1-2.8-7.1-6.6c0-3.7,3.8-7,8-7c2.3,0,9.4,0,9.4,0L26,10h-3c2,1,3,3.7,3,6
		c0,2-1.5,3.8-3,5c-1.5,1.2-1,3-1,3c0,0.9,2,2,2,2c2.5,1.7,5,3.3,5,6C29,36,24.9,39,19,39z M35.5,39L35,37.1h-2.1L32.4,39h-2.2
		l2.4-8.1h2.9l2.4,8.1H35.5z M39,24h-4v4h-2v-4h-4v-2h4v-4h2v4h4V24z"/>
	<path fill="#E13719" d="M21,28c0,0-1.2,0-2,0c-3.6,0-7,2.3-7,5c0,2.7,3.4,4,7,4c5,0,7-1,7-4c0-0.3,0-2-1-3C23.9,28.9,22,28,21,28z"/>
	<path fill="#E13719" d="M23,16.1c-0.4-3.1-2.6-6-5-6.1c-2.4-0.1-4.4,2.9-4,6c0.4,3.1,3.6,6,6,6C22,22,23.4,19.2,23,16.1z"/>
</g>
</symbol><symbol id="soc_od" viewBox="0 0 48 48">
<g>
	<path fill="#D57120" d="M24,0C24,0,24,0,24,0C24,0,24,0,24,0C10.7,0,0,10.7,0,24s10.7,24,24,24c0,0,0,0,0,0s0,0,0,0
		c13.3,0,24-10.7,24-24S37.3,0,24,0z M31,16c0,3.9-3.1,7-7,7c-3.9,0-7-3.1-7-7c0-3.9,3.1-7,7-7C27.9,9,31,12.1,31,16z M24,33
		c0,0-4.5,5.3-4.5,5.3S19,39,18,39c-1.1,0-2-0.9-2-2c0-0.6,0.8-1.6,0.8-1.6L21,30c0,0-3.8-1.6-5-2.3c-0.4-0.3-1-0.7-1-1.7
		c0-1.1,0.9-2,2-2c1,0,3,2,7,2s6-2,7-2c1.1,0,2,0.9,2,2c0,1-0.6,1.5-1,1.7c-1.2,0.7-5,2.3-5,2.3l4.3,5.4c0,0,0.8,0.9,0.8,1.6
		c0,1.1-0.9,2-2,2c-1,0-1.5-0.7-1.5-0.7S24,33,24,33z"/>
	<circle fill="#D57120" cx="24" cy="16" r="3.5"/>
</g>
</symbol><symbol id="soc_tw" viewBox="0 0 48 48">
<g>
	<path fill="#2CA7E0" d="M24,0C10.7,0,0,10.7,0,24s10.7,24,24,24s24-10.7,24-24S37.3,0,24,0z M36,18.5c0,0.3,0,0.7,0,1
		c0,8.1-5.7,17-17,17c-3.5,0-7.3-0.8-10-2.6C9.5,34,10,34,10.5,34c2.9,0,5.4-0.9,7.5-2.5c-2.7-0.1-5.2-1.6-6-4c0.4,0.1,4,1,5,0
		c-2.8-0.6-7-4-7-7c0.8,0.5,2,1,3,1c-1.7-1.1-3-2.9-3-5c0-1.1,0.5-2.1,1-3c3,3.7,7,5,13,5l0.1,0c-0.1-0.3-0.1-0.6-0.1-1
		c0-3.4,2.6-6,6-6c1.8,0,2.9,0.8,4,2l0.8,0.8c1.1-0.4,2.3-1.2,3.2-1.8c-0.5,1.4-1.7,3.2-3,4c1.2-0.1,2.9-0.8,4-1.3
		C38.2,16.4,37.2,17.6,36,18.5z"/>
</g>
</symbol><symbol id="soc_vk" viewBox="0 0 48 48">
<g>
	<path fill="#5F7597" d="M24,0C24,0,24,0,24,0C24,0,24,0,24,0C10.7,0,0,10.7,0,24s10.7,24,24,24c0,0,0,0,0,0s0,0,0,0
		c13.3,0,24-10.7,24-24S37.3,0,24,0z M16.3,29.1C12.5,25.1,11,22,9,17c-0.1-0.3,0-1,1-1c1,0,1.9,0,3,0c1,0,1.2-0.2,2,1c2,3,4,7,5,7
		c1,0,1-4,1-4s0-1,0-2c0-1.4-1.7-1-2-1c-0.2,0,1-1,1-1s1.4-1,3-1c1,0,3,0,3,0c1.5,0.4,1,2.7,1,6c0,1.1,0.1,3,1,3c0.9,0,1-1,2-3
		c0.6-1.3,1-2,3-5c0.6-0.9,5.7,0.1,6,0.7c0.2,0.6-1.1,2.9-3,5.3c-3,4-2,3,0,5c2.3,2.3,3,3.4,3,4c0,1.9-2,2-2,2s-2,0-3,0s-1,0-2-1
		c-1.3-1.3-3-3-4-3s-2,1-2,2c0,0.6,0,2-1,2s-0.5,0-1,0C22.1,32.9,19.7,32.7,16.3,29.1z"/>
</g>
</symbol><symbol id="soc_yt" viewBox="0 0 48 48">
<g>
	<path fill="#CF3427" d="M24,0C24,0,24,0,24,0C24,0,24,0,24,0C10.7,0,0,10.7,0,24s10.7,24,24,24c0,0,0,0,0,0s0,0,0,0
		c13.3,0,24-10.7,24-24S37.3,0,24,0z M24,34.5c0,0-7.8,0-10.2-0.2c-0.7-0.1-2.2-0.1-3.3-1.3c-0.9-0.9-1.2-3-1.2-3S9,27.9,9,25.5v-3
		C9,20.1,9.3,18,9.3,18s0.3-2.1,1.2-3c1.1-1.2,2.4-1.2,3-1.3c4.2-0.3,10.5-0.3,10.5-0.3s6.3,0,10.5,0.3c0.6,0.1,1.9,0.1,3,1.3
		c0.9,0.9,1.2,3,1.2,3s0.3,2,0.3,4.4v3c0,2.4-0.3,4.5-0.3,4.5s-0.3,2.1-1.2,3c-1.1,1.2-2.4,1.2-3,1.3C30.3,34.6,24,34.5,24,34.5z"/>
	<polygon fill="#CF3427" points="20,20 20,28 28,24 	"/>
</g>
</symbol><symbol id="tour_icon_1" viewBox="0 0 36 36">
    <circle fill="#f1ca2f" cx="18" cy="18" r="18"/>
    <path d="M19.9,16.5c-0.5-0.3-1.1-0.5-1.7-0.8c-0.3-0.1-0.7-0.3-0.9-0.5c-0.6-0.4-0.5-1.2,0.2-1.5c0.2-0.1,0.4-0.1,0.6-0.1
            c0.8,0,1.5,0.1,2.2,0.4c0.3,0.2,0.5,0.1,0.6-0.2c0.1-0.4,0.2-0.8,0.3-1.1c0.1-0.3,0-0.4-0.3-0.5c-0.4-0.2-0.9-0.3-1.4-0.4
            c-0.6-0.1-0.6-0.1-0.6-0.7c0-0.9,0-0.9-0.9-0.9c-0.1,0-0.3,0-0.4,0c-0.4,0-0.5,0.1-0.5,0.5c0,0.2,0,0.4,0,0.6c0,0.5,0,0.5-0.5,0.7
            c-1.3,0.5-2.1,1.3-2.1,2.7c-0.1,1.2,0.6,2.1,1.6,2.7c0.6,0.4,1.3,0.6,2,0.9c0.3,0.1,0.5,0.2,0.7,0.4c0.6,0.5,0.5,1.4-0.2,1.7
            c-0.4,0.2-0.8,0.2-1.3,0.2c-0.7-0.1-1.3-0.3-1.9-0.6c-0.4-0.2-0.5-0.1-0.6,0.2c-0.1,0.3-0.2,0.7-0.3,1c-0.1,0.5-0.1,0.6,0.4,0.8
            c0.5,0.3,1.1,0.4,1.7,0.5C17,22.5,17,22.5,17,23c0,0.2,0,0.4,0,0.7c0,0.3,0.1,0.4,0.4,0.4c0.3,0,0.7,0,1,0c0.3,0,0.4-0.2,0.4-0.4
            c0-0.3,0-0.6,0-0.9c0-0.3,0.1-0.5,0.4-0.5c0.7-0.2,1.3-0.5,1.7-1.1C22.2,19.7,21.7,17.5,19.9,16.5z"/>
</symbol><symbol id="tour_icon_2" viewBox="0 0 36 36">
    <circle fill="#f1ca2f" cx="18" cy="18" r="18"/>
	<path d="M17.8,10L17.8,10c3.6,0,6.6,2.4,6.6,5.3s-2.9,5.3-6.6,5.3c-0.3,0-0.7,0-1-0.1c-1.4,1.4-3,1.7-4.7,1.7v-0.3
		c0.9-0.4,1.6-1.2,1.6-2.1c0-0.1,0-0.2,0-0.4c-1.5-1-2.4-2.5-2.4-4.1C11.3,12.4,14.2,10,17.8,10z M24.9,21.9c0,0.8,0.5,1.4,1.3,1.8
		V24c-1.4,0-2.7-0.2-3.9-1.5c-0.3,0-0.6,0.1-0.9,0.1c-1.3,0-2.5-0.4-3.5-0.9c2,0,3.8-0.6,5.3-1.8c0.7-0.6,1.3-1.3,1.7-2
		c0.4-0.8,0.6-1.7,0.6-2.5c0-0.1,0-0.3,0-0.4c1,0.8,1.6,1.9,1.6,3.2c0,1.4-0.8,2.7-2.1,3.5C24.9,21.7,24.9,21.8,24.9,21.9z"/>
</symbol><symbol id="tour_icon_3" viewBox="0 0 36 36">
    <circle fill="#f1ca2f" cx="18" cy="18" r="18"/>
    <path d="M18.3,15.4c-1.8-0.4-3.4,1.2-3.1,3.1c0.2,1,1,1.9,2.1,2.1c1.8,0.4,3.4-1.2,3.1-3.1
                C20.1,16.5,19.3,15.6,18.3,15.4z M24.8,12.8h-2.1c-0.3,0-0.6-0.2-0.7-0.5l-0.5-1.6c-0.1-0.3-0.4-0.5-0.7-0.5h-6
                c-0.3,0-0.6,0.2-0.7,0.5l-0.5,1.6c-0.1,0.3-0.4,0.5-0.7,0.5h-2.1c-1,0-1.8,0.8-1.8,1.8v7.9c0,1,0.8,1.8,1.8,1.8h14
                c1,0,1.8-0.8,1.8-1.8v-7.9C26.5,13.5,25.7,12.8,24.8,12.8z M18.4,22.3c-3,0.5-5.5-2.1-5-5c0.3-1.8,1.8-3.3,3.6-3.6
                c3-0.5,5.5,2.1,5,5C21.8,20.5,20.3,22,18.4,22.3z M24.1,15.7c-0.3,0-0.6-0.3-0.6-0.6c0-0.3,0.3-0.6,0.6-0.6c0.3,0,0.6,0.3,0.6,0.6
                C24.8,15.4,24.5,15.7,24.1,15.7z"/>
</symbol></svg>